<svg width="16" height="16" fill="none" xmlns="http://www.w3.org/2000/svg"><g clip-path="url(#clip0_406_92)"><path d="M10.033 3.333a3.333 3.333 0 012.634 2.634m-2.634-5.3a6 6 0 015.3 5.293m-.778 7.86a1.332 1.332 0 01-1.342.793 13.193 13.193 0 01-5.753-2.046 13 13 0 01-4-4 13.193 13.193 0 01-2.047-5.78A1.333 1.333 0 012.74 1.333h1.603c.463 0 .905 0 1.28.323.245.21.405.504.45.824a8.56 8.56 0 00.467 1.873 1.333 1.333 0 01-.3 1.407l-.847.847a10.666 10.666 0 004 4l.847-.847a1.334 1.334 0 011.407-.3 8.562 8.562 0 001.873.467c.324.045.62.208.831.458.304.358.32 1.172.316 1.948-.003.59.032 1.158-.112 1.486z" stroke="#FF6B00" stroke-width="2" stroke-linecap="round" stroke-linejoin="round"/></g><defs><clipPath id="clip0_406_92"><path fill="#fff" d="M0 0h16v16H0z"/></clipPath></defs></svg>