<svg version="1.0" xmlns="http://www.w3.org/2000/svg" width="541.333" height="541.333" viewBox="0 0 406 406"><path d="M106.9 93.3c-.2.3-3.1.7-6.4 1-43.3 4.2-80.9 32.9-93.8 71.7-2.9 8.7-3.8 12.3-5.2 23-.9 6.6-.9 21.8 0 29 4.2 32.7 23.6 62.2 51.3 78.1 13.9 8 31 13.7 46.2 15.6 13.5 1.7 37.8.7 49-1.8 2.5-.6 5.6-1.3 7-1.5 3.7-.7 19.9-7.3 25-10.2 11.3-6.4 27.7-20.3 31-26.2.6-1.1-.7-2.8-4.8-6.4-3.2-2.7-8.2-7.2-11.3-10-6.7-6.1-11.1-10.1-20.5-18.3l-7-6.2-5.9 6c-12 12.1-24.6 18-39 18.1-12.3.1-18.7-1.5-27.6-6.8-14.1-8.4-21.7-22.8-22.4-42.4-.7-18.1 3.9-31.6 14.4-42 3.1-3 7.9-6.6 10.6-7.9 2.8-1.3 5.7-2.8 6.6-3.2 1.6-.8 11.2-2.1 17.3-2.3 1.7-.1 5.4.2 8.1.7 12.4 2.2 21.9 7.4 32 17.6l6 6 4.5-4c2.5-2.2 7.6-6.8 11.4-10.2 3.8-3.4 7.4-6.7 8-7.2.6-.6 4.7-4.2 9.1-8 4.4-3.9 8.8-7.7 9.8-8.6 1.7-1.6 1.6-1.9-2.4-6.5-16.5-19.1-41.2-32-68.5-35.9-5.1-.7-31.9-1.7-32.5-1.2zm195.1.4c-27.3 2.3-48.2 10.6-64.3 25.2-7.4 6.8-16 23.4-17.5 33.6-.9 6.2-.9 19.8 0 24.5 3.2 16.4 14.3 30.2 31.5 38.9 9.7 5 20.8 8.2 56.9 16.5 21.4 4.9 27.1 8.3 26.1 15.8s-6 9.6-24.2 10.3c-19.6.7-41.6-4.3-63.4-14.6-4.6-2.1-8.5-3.8-8.6-3.7-.4.6-22.5 50.6-22.5 51 0 .9 14.8 7.9 21.6 10.2 13.9 4.9 31.3 8.7 47 10.3 8.9.9 36.3 1 43.4 0 29.6-3.8 51.7-14.8 64.8-32.3 16.7-22.3 16.4-56.2-.6-74.1-14.8-15.8-28.1-20.9-82.8-31.9-1.2-.2-5.1-1.3-8.7-2.4-16.1-5-15.6-17.9.9-22 6.8-1.8 20.8-2 30.9-.6 7.2 1.1 22.8 5.8 32 9.8 5 2.1 9.4 4 9.8 4.1.6.2 19.3-43.2 21.2-49.4 1.3-4.1-28.7-14.7-49.1-17.5-2.7-.3-5.8-.8-6.9-1.1-2.4-.5-32.6-1-37.5-.6z"/></svg>