<?xml version="1.0" standalone="no"?>
<!DOCTYPE svg PUBLIC "-//W3C//DTD SVG 20010904//EN"
 "http://www.w3.org/TR/2001/REC-SVG-20010904/DTD/svg10.dtd">
<svg version="1.0" xmlns="http://www.w3.org/2000/svg"
 width="406.000000pt" height="406.000000pt" viewBox="0 0 406.000000 406.000000"
 preserveAspectRatio="xMidYMid meet">
<metadata>
Created by potrace 1.14, written by Peter Selinger 2001-2017
</metadata>
<g transform="translate(0.000000,406.000000) scale(0.100000,-0.100000)"
fill="#000000" stroke="none">
<path d="M1069 3127 c-2 -3 -31 -7 -64 -10 -433 -42 -809 -329 -938 -717 -29
-87 -38 -123 -52 -230 -9 -66 -9 -218 0 -290 42 -327 236 -622 513 -781 139
-80 310 -137 462 -156 135 -17 378 -7 490 18 25 6 56 13 70 15 37 7 199 73
250 102 113 64 277 203 310 262 6 11 -7 28 -48 64 -32 27 -82 72 -113 100 -67
61 -111 101 -205 183 l-70 62 -59 -60 c-120 -121 -246 -180 -390 -181 -123 -1
-187 15 -276 68 -141 84 -217 228 -224 424 -7 181 39 316 144 420 31 30 79 66
106 79 28 13 57 28 66 32 16 8 112 21 173 23 17 1 54 -2 81 -7 124 -22 219
-74 320 -176 l60 -60 45 40 c25 22 76 68 114 102 38 34 74 67 80 72 6 6 47 42
91 80 44 39 88 77 98 86 17 16 16 19 -24 65 -165 191 -412 320 -685 359 -51 7
-319 17 -325 12z"/>
<path d="M3020 3123 c-273 -23 -482 -106 -643 -252 -74 -68 -160 -234 -175
-336 -9 -62 -9 -198 0 -245 32 -164 143 -302 315 -389 97 -50 208 -82 569
-165 214 -49 271 -83 261 -158 -10 -75 -60 -96 -242 -103 -196 -7 -416 43
-634 146 -46 21 -85 38 -86 37 -4 -6 -225 -506 -225 -510 0 -9 148 -79 216
-102 139 -49 313 -87 470 -103 89 -9 363 -10 434 0 296 38 517 148 648 323
167 223 164 562 -6 741 -148 158 -281 209 -828 319 -12 2 -51 13 -87 24 -161
50 -156 179 9 220 68 18 208 20 309 6 72 -11 228 -58 320 -98 50 -21 94 -40
98 -41 6 -2 193 432 212 494 13 41 -287 147 -491 175 -27 3 -58 8 -69 11 -24
5 -326 10 -375 6z"/>
</g>
</svg>
