<svg width="87" height="21" fill="none" xmlns="http://www.w3.org/2000/svg"><path d="M5.607 5.96L2.514 17H.28L4.34 4.203h1.39l-.124 1.758zM8.077 17L4.975 5.96l-.15-1.757H6.24L10.318 17h-2.24zm.053-4.755v1.793H2.17v-1.793h5.96zm9.15 1.45c0-.263-.03-.498-.089-.703a1.33 1.33 0 00-.307-.571 2.695 2.695 0 00-.65-.501 7.238 7.238 0 00-1.073-.501 13.703 13.703 0 01-1.415-.633 6.224 6.224 0 01-1.151-.79 3.306 3.306 0 01-.774-1.047c-.187-.398-.281-.861-.281-1.388 0-.522.09-.997.273-1.424a3.23 3.23 0 01.79-1.116c.346-.317.756-.56 1.231-.73a4.499 4.499 0 011.573-.264c.826 0 1.532.176 2.118.528A3.53 3.53 0 0118.88 5.97c.316.592.474 1.248.474 1.968h-2.126c0-.416-.065-.785-.194-1.107a1.603 1.603 0 00-.598-.756c-.269-.181-.618-.272-1.045-.272-.393 0-.718.076-.976.228-.252.153-.44.36-.562.624a2.208 2.208 0 00-.176.906c0 .234.05.448.15.641.099.188.242.36.43.519.187.158.416.307.685.448.27.14.58.275.932.404a9.35 9.35 0 011.565.72c.445.265.811.56 1.098.889.293.322.51.688.65 1.098.147.41.22.876.22 1.398a3.69 3.69 0 01-.272 1.441 2.974 2.974 0 01-.774 1.099c-.34.305-.75.542-1.23.712-.48.164-1.02.246-1.617.246a5.163 5.163 0 01-1.591-.246 4.026 4.026 0 01-1.354-.747 3.653 3.653 0 01-.949-1.275c-.228-.51-.343-1.107-.343-1.793h2.136c0 .41.05.762.15 1.055.1.287.243.524.43.712.193.181.42.316.677.404.264.082.557.123.879.123.398 0 .723-.07.975-.21.258-.147.449-.35.572-.607.123-.258.184-.557.184-.897zm8.155-2.46h-2.61L22.816 9.6h2.312c.357 0 .662-.07.914-.211s.442-.346.571-.616c.135-.27.202-.594.202-.975 0-.422-.058-.765-.175-1.028a1.134 1.134 0 00-.554-.59c-.246-.122-.563-.184-.95-.184h-1.678V17h-2.136V4.203h3.815c.597 0 1.13.07 1.6.211.474.135.875.343 1.203.624.329.281.578.642.747 1.081.176.434.264.95.264 1.547 0 .521-.111 1.002-.334 1.441a2.76 2.76 0 01-.993 1.073c-.434.275-.973.44-1.617.492l-.572.562zM25.357 17h-3.234l.984-1.784h2.25c.381 0 .695-.082.94-.246a1.5 1.5 0 00.555-.686c.123-.293.184-.636.184-1.028 0-.41-.053-.768-.158-1.072a1.379 1.379 0 00-.51-.704c-.234-.164-.545-.246-.931-.246h-2.154L23.3 9.6h2.75l.493.624c.615.011 1.116.164 1.503.457.387.287.67.659.852 1.116.182.457.273.946.273 1.468 0 .814-.152 1.5-.457 2.056-.305.551-.741.97-1.31 1.257-.562.281-1.245.422-2.048.422zm7.717-12.797l2.1 4.562 2.049-4.562h2.4l-3.2 6.337 3.27 6.46h-2.48l-2.109-4.658L32.985 17h-2.434l3.296-6.486-3.226-6.31h2.452z" fill="#fff"/><path fill-rule="evenodd" clip-rule="evenodd" d="M47 6.233a4.767 4.767 0 100 9.534 4.767 4.767 0 000-9.534zM41.1 11a5.9 5.9 0 1111.8 0 5.9 5.9 0 01-11.8 0z" fill="#BC2649"/><path d="M49.667 11a2.667 2.667 0 11-5.333 0 2.667 2.667 0 015.333 0z" fill="#BC2649"/><path d="M64.879 9.556v2.18c0 .902-.106 1.693-.317 2.372-.205.68-.503 1.248-.896 1.705a3.689 3.689 0 01-1.406 1.02c-.545.229-1.154.343-1.828.343a4.727 4.727 0 01-1.829-.343 3.858 3.858 0 01-1.415-1.02c-.392-.457-.697-1.025-.914-1.705-.21-.68-.316-1.47-.316-2.373v-2.18c0-.913.105-1.713.316-2.399.211-.691.513-1.268.906-1.731.398-.463.87-.812 1.415-1.046a4.6 4.6 0 011.82-.352c.673 0 1.282.118 1.827.352a3.756 3.756 0 011.415 1.046c.393.463.695 1.04.906 1.731.21.686.316 1.486.316 2.4zm-2.118 2.18V9.537c0-.65-.053-1.207-.159-1.67-.1-.469-.248-.85-.448-1.142a1.842 1.842 0 00-.738-.66 2.176 2.176 0 00-1.002-.22c-.37 0-.7.074-.993.22-.287.141-.533.36-.738.66-.2.293-.352.673-.457 1.142-.1.463-.15 1.02-.15 1.67v2.197c0 .639.053 1.19.158 1.653.106.457.258.832.457 1.125.206.287.454.5.747.641.293.14.624.211.994.211.375 0 .709-.07 1.002-.21.293-.141.536-.355.73-.642.198-.293.348-.668.447-1.125.1-.463.15-1.014.15-1.653zm4.289-7.533h3.867c.844 0 1.559.147 2.144.44a2.988 2.988 0 011.336 1.3c.311.569.466 1.275.466 2.119 0 .638-.096 1.2-.29 1.687-.187.486-.46.896-.817 1.23a3.78 3.78 0 01-1.292.765l-.624.343h-3.27l-.008-1.793h2.302c.416 0 .762-.09 1.037-.273.276-.181.48-.433.616-.755.14-.323.21-.689.21-1.099 0-.44-.061-.82-.184-1.143a1.519 1.519 0 00-.58-.755c-.264-.182-.612-.273-1.046-.273h-1.731V17H67.05V4.203zM73.009 17l-2.435-5.748 2.224-.009 2.496 5.643V17h-2.285zm12.181-6.565v5.044a5.572 5.572 0 01-.72.695c-.317.264-.744.498-1.284.703-.533.2-1.207.299-2.021.299a5.114 5.114 0 01-1.88-.334 3.8 3.8 0 01-1.451-1.01c-.404-.452-.715-1.015-.932-1.688-.216-.68-.325-1.483-.325-2.409V9.46c0-.914.097-1.71.29-2.39.2-.68.49-1.246.87-1.697a3.429 3.429 0 011.389-1.01c.545-.223 1.172-.335 1.88-.335.897 0 1.644.159 2.242.475.604.31 1.063.773 1.38 1.389.322.609.51 1.353.562 2.232h-2.083c-.046-.539-.149-.976-.307-1.31a1.583 1.583 0 00-.66-.755c-.287-.164-.656-.246-1.107-.246-.41 0-.761.07-1.055.21-.292.141-.533.36-.72.66-.188.293-.325.668-.413 1.125a8.78 8.78 0 00-.132 1.634v2.294c0 .645.056 1.199.167 1.662.111.462.272.843.483 1.142.217.293.484.51.8.65.317.135.677.203 1.081.203.399 0 .715-.041.95-.123a1.96 1.96 0 00.544-.273c.135-.105.243-.187.326-.246v-2.637h-2.066v-1.678h4.192z" fill="#fff"/></svg>