<svg width="24" height="24" fill="none" xmlns="http://www.w3.org/2000/svg"><g clip-path="url(#clip0_1797_3227)" stroke="#fff" stroke-width="1.5"><path d="M1 21V3a2 2 0 012-2h18a2 2 0 012 2v18a2 2 0 01-2 2H3a2 2 0 01-2-2z"/><path d="M15 7h4m-4 8.5h4m-4 3h4M5 7h2m0 0h2M7 7V5m0 2v2m-1.414 9.414L7 17m0 0l1.415-1.414M7 17l-1.414-1.414M7 17l1.415 1.414" stroke-linecap="round" stroke-linejoin="round"/></g><defs><clipPath id="clip0_1797_3227"><path fill="#fff" d="M0 0h24v24H0z"/></clipPath></defs></svg>