<svg width="14" height="14" fill="none" xmlns="http://www.w3.org/2000/svg"><path d="M1.082 2.762c.018.264.1.62.246 1.066.146.447.356.943.629 1.49a15.6 15.6 0 001.039 1.71c.41.592.888 1.161 1.435 1.708a26.18 26.18 0 001.654 1.545 29.42 29.42 0 001.559 1.272c.492.364.925.656 1.298.875.374.218.643.341.807.369.328.036.546.05.656.04l.178-.013c.045.01.182-.036.41-.136.218-.1.46-.233.724-.397.264-.173.515-.374.752-.601.237-.228.392-.465.465-.711a36.146 36.146 0 01-1.299-.657c-.565-.3-.993-.52-1.285-.656l-1.53 1.176-1.532-1.08c-.155-.082-.474-.338-.957-.766a17.451 17.451 0 01-1.298-1.299 17.298 17.298 0 01-1.121-1.353c-.337-.465-.547-.775-.63-.93l-.3-.601.875-1.108L2.71 1.203c-.42.155-.802.374-1.148.656-.338.283-.497.584-.479.903zM10.022 14c-.355 0-.784-.128-1.285-.383a13.92 13.92 0 01-1.6-1.025 28.407 28.407 0 01-1.776-1.45 75.89 75.89 0 01-1.777-1.64 11.511 11.511 0 01-1.518-1.764C1.63 7.118 1.26 6.508.96 5.906a11.911 11.911 0 01-.683-1.709C.12 3.67.03 3.222.002 2.857c-.018-.328.078-.651.287-.97.2-.328.46-.62.78-.875a5.381 5.381 0 011.066-.67A3.672 3.672 0 013.228 0l1.928 3.91-.97 1.121c.1.164.373.52.82 1.067.446.547.892 1.048 1.339 1.504.446.446.911.875 1.394 1.285.492.4.82.647.984.738L10.104 8.6l.438.191 1.025.451a38.12 38.12 0 012.064.943l.11.096c.072.064.136.178.19.342.046.164.069.283.069.356v.095c-.164.702-.506 1.249-1.025 1.64a8.35 8.35 0 01-1.682.999l-.177.068a3.78 3.78 0 01-.465.137 1.91 1.91 0 01-.465.082h-.164z" fill="#FF4043"/></svg>