<svg width="14" height="14" fill="none" xmlns="http://www.w3.org/2000/svg"><path fill-rule="evenodd" clip-rule="evenodd" d="M9.994 11.912a6.753 6.753 0 01-3.431.926C2.938 12.838 0 10.027 0 6.558 0 3.092 2.938.28 6.563.28c3.624 0 6.562 2.812 6.562 6.28a6.036 6.036 0 01-.727 2.875L14 13.396l-4.006-1.484zM1.141 6.56c0-2.865 2.427-5.188 5.421-5.188 2.995 0 5.422 2.323 5.422 5.188a5.003 5.003 0 01-.86 2.805l.477 1.218.327.832-.845-.303-1.215-.44a5.556 5.556 0 01-3.306 1.075c-2.994 0-5.42-2.322-5.42-5.187z" fill="#FF4043"/></svg>