<svg width="22" height="24" fill="none" xmlns="http://www.w3.org/2000/svg"><path fill-rule="evenodd" clip-rule="evenodd" d="M9.705 0h2.357c2.052 0 3.678 0 4.949.17 1.308.177 2.368.548 3.204 1.383.835.836 1.205 1.895 1.382 3.203.17 1.273.17 2.897.17 4.949v4.59c0 2.052 0 3.677-.17 4.949-.177 1.308-.547 2.367-1.382 3.203-.836.835-1.896 1.206-3.204 1.382-1.273.171-2.897.171-4.948.171H9.704c-2.052 0-3.677 0-4.949-.17-1.308-.177-2.367-.548-3.203-1.383C.718 21.611.347 20.552.17 19.244 0 17.97 0 16.347 0 14.295v-4.59c0-2.052 0-3.677.17-4.949.177-1.308.548-2.367 1.383-3.203C2.389.718 3.448.347 4.756.17 6.03 0 7.653 0 9.705 0zM4.979 1.83c-1.123.151-1.77.435-2.244.907-.471.472-.755 1.12-.905 2.243-.154 1.147-.157 2.659-.157 4.787v4.466c0 2.128.003 3.64.157 4.788.15 1.122.434 1.77.906 2.242.472.472 1.12.756 2.243.906 1.147.154 2.659.157 4.787.157H12c2.129 0 3.641-.003 4.789-.157 1.122-.15 1.769-.434 2.241-.906.472-.472.756-1.12.907-2.243.154-1.146.156-2.659.156-4.787V9.767c0-2.128-.002-3.64-.156-4.788-.151-1.122-.435-1.77-.907-2.242-.472-.472-1.12-.756-2.242-.906-1.147-.154-2.66-.157-4.788-.157H9.766c-2.128 0-3.639.003-4.787.157zm.602 7.937a.837.837 0 01.838-.837h8.93a.837.837 0 110 1.675h-8.93a.837.837 0 01-.838-.838zm0 4.466a.837.837 0 01.838-.838H12a.837.837 0 010 1.675H6.419a.837.837 0 01-.838-.837z" fill="#fff"/></svg>