<svg width="18" height="18" fill="none" xmlns="http://www.w3.org/2000/svg"><path d="M17.043 11.776l-4.06-1.82a1.203 1.203 0 00-1.19.142l-2.121 1.804a.162.162 0 01-.144.006C8.164 11.249 6.75 9.845 6.09 8.5a.164.164 0 010-.144L7.9 6.207a1.203 1.203 0 00.132-1.19L6.228.964a1.203 1.203 0 00-1.251-.72A4.661 4.661 0 00.922 4.875c0 6.73 5.474 12.203 12.203 12.203a4.663 4.663 0 004.631-4.053 1.203 1.203 0 00-.713-1.249zm-3.918 4.271c-6.16 0-11.172-5.012-11.172-11.172a3.63 3.63 0 013.151-3.609h.02a.172.172 0 01.158.113l1.814 4.048a.172.172 0 010 .144L5.28 7.724a.408.408 0 00-.036.05 1.203 1.203 0 00-.079 1.18c.763 1.56 2.335 3.12 3.913 3.883a1.202 1.202 0 001.232-.122l2.12-1.805a.163.163 0 01.138-.009l4.06 1.82a.172.172 0 01.104.171 3.63 3.63 0 01-3.608 3.155z" fill="#fff"/></svg>