<svg width="114" height="31" fill="none" xmlns="http://www.w3.org/2000/svg"><mask id="a" style="mask-type:luminance" maskUnits="userSpaceOnUse" x="0" y="0" width="114" height="31"><path d="M113.675.854H0V30.31h113.675V.854z" fill="#fff"/></mask><g mask="url(#a)"><path d="M30.77 6.87h5.99c3.802 0 6.251 3.795 6.251 8.995 0 2.86-.776 5.375-2.268 6.925-1.057 1.084-2.428 1.702-4.22 1.702h-5.754V6.869zm5.553 14.543c2.709 0 3.765-2.044 3.765-5.547 0-3.503-1.234-5.941-3.684-5.941h-2.746V21.41h2.665v.003zm7.118-3.233c0-3.773 2.17-6.678 5.336-6.678 3.167 0 5.336 2.909 5.336 6.678s-2.17 6.678-5.336 6.678c-3.166 0-5.336-2.91-5.336-6.678zm7.926 0c0-2.465-.935-4.14-2.59-4.14-1.655 0-2.59 1.675-2.59 4.14s.916 4.116 2.59 4.116 2.59-1.65 2.59-4.116zm3.305 0c0-3.773 1.991-6.678 5.099-6.678 2.649 0 4.282 1.898 4.64 4.633h-2.649c-.18-1.111-.876-1.948-1.873-1.948-1.633 0-2.468 1.555-2.468 3.993 0 2.438.776 3.993 2.428 3.993 1.094 0 1.873-.714 2.05-2.145h2.609c-.178 2.685-1.873 4.83-4.6 4.83-3.226 0-5.236-2.91-5.236-6.678zm16.998 6.312v-1.478h-.06c-.697 1.157-1.492 1.825-2.926 1.825-2.269 0-3.543-1.798-3.543-4.56v-8.433h2.69v7.862c0 1.478.539 2.291 1.691 2.291 1.275 0 2.051-1.184 2.051-2.858v-7.295h2.709v12.646H71.67zM87.469 6.946h2.708v3.133h-2.708V6.946zm0 4.904h2.708v12.642h-2.708V11.846v.004zm3.835 13.012h2.69c.218.787.797 1.404 2.05 1.404 1.534 0 2.27-.91 2.27-2.639v-1.381h-.06c-.598.837-1.374 1.478-2.668 1.478-2.269 0-4.5-2.219-4.5-6.038 0-3.82 1.832-6.188 4.42-6.188 1.274 0 2.209.617 2.826 1.674h.04v-1.33h2.609v11.681c0 1.774-.458 2.982-1.215 3.846-.857.988-2.17 1.431-3.684 1.431-2.786 0-4.5-1.477-4.778-3.942v.004zm7.15-7.245c0-1.848-.798-3.426-2.428-3.426-1.375 0-2.291 1.33-2.291 3.449 0 2.118.916 3.402 2.31 3.402 1.71 0 2.409-1.554 2.409-3.425zm6.336-4.047h.059c.698-1.354 1.633-2.072 3.026-2.072 2.11 0 3.525 1.972 3.525 4.734v8.256h-2.708v-7.766c0-1.355-.636-2.32-1.773-2.32-1.194 0-2.07 1.185-2.07 2.91v7.172h-2.708V11.845h2.649v1.725zm-23.49.297c-2.11-.567-3.108-.988-3.108-2.415 0-1.258 1.016-2.072 2.568-2.072 1.418 0 2.5.822 2.724 2.466h2.777c-.284-3.422-2.334-5.301-5.48-5.301-3.144 0-5.456 1.798-5.456 5.273 0 3.673 2.33 4.51 4.877 5.224 2.17.617 3.525.96 3.525 2.685 0 1.628-1.293 2.268-2.767 2.268-2.033 0-3.008-.837-3.207-2.959h-2.827c.1 3.723 2.29 5.841 6.152 5.841 3.207 0 5.535-1.998 5.535-5.57 0-3.796-2.39-4.66-5.317-5.448l.003.008zm31.2.317c-.595 0-1.078-.598-1.078-1.335s.483-1.335 1.078-1.335c.595 0 1.078.598 1.078 1.335s-.483 1.335-1.078 1.335zm0-2.458c-.502 0-.907.506-.907 1.123s.409 1.123.907 1.123c.499 0 .907-.505.907-1.123 0-.617-.408-1.123-.907-1.123z" fill="#000"/><path d="M112.129 12.161h.352c.146 0 .246 0 .343.1.068.07.121.178.121.336 0 .263-.156.351-.218.374l.246.556h-.236l-.219-.505h-.183v.505h-.206v-1.366zm.206.22v.428h.071c.072 0 .097 0 .137-.003.047 0 .194-.012.194-.213 0-.03 0-.13-.088-.185-.043-.027-.096-.027-.218-.027h-.096z" fill="#000"/><path d="M23.795.854H0V30.31h23.795V.854z" fill="#D5FF00"/><path d="M20.49 23.357H3.305v2.864H20.49v-2.864zm-8.59-1.639l1.636-2.021 4.974-6.161-1.655-2.045-3.8 4.707V4.535H10.74l.003 11.663-3.802-4.707-1.652 2.045 4.974 6.16 1.636 2.022z" fill="#000"/></g></svg>