<svg width="316" height="124" fill="none" xmlns="http://www.w3.org/2000/svg"><path d="M50.052 1.25l7.362 2.9a11.154 11.154 0 008.172 0l7.362-2.9a17.98 17.98 0 0123.066 9.555l3.153 7.25a11.153 11.153 0 005.778 5.778l7.25 3.153a17.98 17.98 0 019.555 23.074l-2.9 7.361a11.153 11.153 0 000 8.165l2.9 7.362a17.983 17.983 0 01-9.555 23.066l-7.25 3.153a11.146 11.146 0 00-5.778 5.778l-3.153 7.25a17.98 17.98 0 01-23.074 9.555l-7.361-2.9a11.153 11.153 0 00-8.165 0l-7.362 2.9a17.983 17.983 0 01-23.066-9.555l-3.153-7.25a11.153 11.153 0 00-5.778-5.778l-7.25-3.153A17.98 17.98 0 011.25 72.94l2.9-7.361a11.154 11.154 0 000-8.165l-2.9-7.362a17.98 17.98 0 019.555-23.066l7.25-3.153a11.153 11.153 0 005.778-5.778l3.153-7.25A17.98 17.98 0 0150.06 1.25h-.008zm30.979 42.906L53.904 74.673 41.821 62.589a3.718 3.718 0 00-5.258 5.258l14.872 14.872a3.72 3.72 0 005.406-.157L86.585 49.1a3.718 3.718 0 10-5.554-4.944z" fill="#0FA958"/><path d="M155.459 83.648h2.482l3.763 12.163 3.751-12.163h2.302L162.726 100h-2.056l-5.211-16.352zm-.932 0h2.291l.371 10.411V100h-2.662V83.648zm12.039 0h2.303V100h-2.662v-5.94l.359-10.412zm14.706 14.072V100h-7.097v-2.28h7.097zm-6.378-14.072V100h-2.729V83.648h2.729zm5.424 6.806V92.7h-6.143v-2.246h6.143zm.887-6.806v2.291h-7.03v-2.29h7.03zm9.585 12.13c0-.338-.037-.637-.112-.9a1.713 1.713 0 00-.393-.73c-.195-.216-.472-.43-.831-.64a9.263 9.263 0 00-1.37-.64 17.584 17.584 0 01-1.809-.808 7.964 7.964 0 01-1.471-1.01 4.234 4.234 0 01-.988-1.337c-.24-.51-.359-1.1-.359-1.774 0-.667.116-1.273.348-1.82a4.12 4.12 0 011.01-1.426 4.592 4.592 0 011.573-.932 5.745 5.745 0 012.01-.337c1.056 0 1.958.224 2.707.674a4.512 4.512 0 011.729 1.808c.404.756.606 1.594.606 2.515h-2.717c0-.531-.083-1.003-.247-1.415a2.054 2.054 0 00-.764-.966c-.344-.232-.79-.348-1.336-.348-.502 0-.918.098-1.247.292-.322.195-.562.46-.719.798-.15.337-.224.722-.224 1.157 0 .299.063.572.191.82.127.239.31.46.55.662.239.202.531.393.876.573.344.18.741.352 1.19.516.764.277 1.43.584 1.999.921a5.711 5.711 0 011.404 1.134 4 4 0 01.831 1.404c.187.524.281 1.12.281 1.786 0 .674-.116 1.288-.348 1.842a3.798 3.798 0 01-.989 1.404 4.64 4.64 0 01-1.572.91c-.614.209-1.303.314-2.066.314a6.588 6.588 0 01-2.033-.315 5.142 5.142 0 01-1.729-.954 4.653 4.653 0 01-1.213-1.629c-.292-.651-.438-1.415-.438-2.29h2.729c0 .523.063.972.191 1.347.127.367.31.67.55.91.247.232.535.404.865.516a3.77 3.77 0 001.123.157c.509 0 .924-.09 1.246-.27.33-.186.573-.445.73-.774.157-.33.236-.711.236-1.146zm16.492-5.29v2.785c0 1.153-.135 2.164-.405 3.032-.262.869-.643 1.595-1.145 2.179a4.71 4.71 0 01-1.797 1.303c-.696.292-1.475.438-2.336.438-.853 0-1.632-.146-2.336-.438a4.93 4.93 0 01-1.808-1.303c-.501-.584-.891-1.31-1.168-2.179-.269-.868-.404-1.88-.404-3.032v-2.785c0-1.168.135-2.19.404-3.066.27-.884.655-1.621 1.157-2.212a4.935 4.935 0 011.808-1.337c.704-.3 1.479-.45 2.325-.45.861 0 1.639.15 2.336.45.703.3 1.306.745 1.808 1.337.501.59.887 1.328 1.156 2.212.27.876.405 1.898.405 3.066zm-2.707 2.785v-2.808c0-.83-.067-1.542-.202-2.133-.127-.6-.318-1.086-.573-1.46a2.351 2.351 0 00-.943-.843c-.367-.187-.794-.28-1.28-.28-.472 0-.895.093-1.269.28-.367.18-.682.46-.944.843-.254.374-.449.86-.584 1.46-.127.591-.191 1.302-.191 2.133v2.808c0 .816.068 1.52.203 2.111.134.584.329 1.063.584 1.438.262.367.58.64.954.82.374.18.797.27 1.269.27.479 0 .906-.09 1.28-.27.375-.18.686-.453.933-.82.254-.375.445-.854.572-1.438.128-.591.191-1.295.191-2.111zm10.989-9.625V100h-2.718V83.648h2.718zm4.167 0v2.291h-11.006v-2.29h11.006zm11.359 6.806v2.291h-6.884v-2.29h6.884zm-6.244-6.806V100h-2.729V83.648h2.729zm8.378 0V100h-2.718V83.648h2.718zM245.65 97.72V100h-7.098v-2.28h7.098zm-6.379-14.072V100h-2.729V83.648h2.729zm5.424 6.806V92.7h-6.143v-2.246h6.143zm.888-6.806v2.291h-7.031v-2.29h7.031zm11.359 14.072V100h-6.794v-2.28h6.794zm-6.076-14.072V100h-2.729V83.648h2.729zm11.326 0V100h-2.729V83.648h2.729zm14.482 6.84v2.785c0 1.153-.135 2.164-.405 3.032-.262.869-.644 1.595-1.145 2.179a4.71 4.71 0 01-1.797 1.303c-.696.292-1.475.438-2.336.438-.854 0-1.632-.146-2.336-.438a4.93 4.93 0 01-1.808-1.303c-.502-.584-.891-1.31-1.168-2.179-.27-.868-.404-1.88-.404-3.032v-2.785c0-1.168.134-2.19.404-3.066.269-.884.655-1.621 1.157-2.212a4.927 4.927 0 011.808-1.337c.704-.3 1.478-.45 2.324-.45.861 0 1.64.15 2.336.45.704.3 1.307.745 1.808 1.337.502.59.888 1.328 1.157 2.212.27.876.405 1.898.405 3.066zm-2.707 2.785v-2.808c0-.83-.067-1.542-.202-2.133-.127-.6-.318-1.086-.573-1.46a2.351 2.351 0 00-.943-.843c-.367-.187-.794-.28-1.281-.28-.471 0-.894.093-1.269.28a2.46 2.46 0 00-.943.843c-.255.374-.449.86-.584 1.46-.127.591-.191 1.302-.191 2.133v2.808c0 .816.068 1.52.202 2.111.135.584.33 1.063.584 1.438.262.367.581.64.955.82.374.18.797.27 1.269.27.479 0 .906-.09 1.28-.27.375-.18.685-.453.932-.82.255-.375.446-.854.573-1.438.127-.591.191-1.295.191-2.111zm6.631-9.625h2.482l3.762 12.163 3.751-12.163h2.303L287.864 100h-2.055l-5.211-16.352zm-.932 0h2.291l.371 10.411V100h-2.662V83.648zm12.039 0h2.303V100h-2.662v-5.94l.359-10.412zm11.438 2.246L299.19 100h-2.852l5.188-16.352h1.775l-.158 2.246zM306.299 100l-3.964-14.106-.191-2.246h1.808L309.163 100h-2.864zm.067-6.076v2.291h-7.614v-2.29h7.614zm-147.17 22.597h1.773c-.034.771-.191 1.428-.469 1.97a2.872 2.872 0 01-1.201 1.231c-.518.283-1.15.424-1.897.424a3.633 3.633 0 01-1.524-.307 3.148 3.148 0 01-1.135-.886 4.146 4.146 0 01-.718-1.429c-.161-.561-.241-1.198-.241-1.911v-1.89c0-.713.083-1.35.249-1.911a4.166 4.166 0 01.732-1.429c.318-.39.703-.686 1.157-.886a3.77 3.77 0 011.553-.308c.737 0 1.358.142 1.86.425.503.283.892.698 1.165 1.245.273.547.432 1.214.476 2h-1.772c-.025-.532-.098-.957-.22-1.275-.117-.322-.298-.554-.542-.695-.239-.142-.562-.213-.967-.213-.337 0-.627.064-.871.191-.24.127-.437.317-.594.571a2.97 2.97 0 00-.344.945 7.03 7.03 0 00-.11 1.325v1.905c0 .488.032.92.095 1.296.064.376.166.696.308.96.142.258.33.456.564.593.234.132.527.198.879.198.42 0 .754-.066 1.003-.198.254-.132.442-.354.564-.667.122-.312.198-.737.227-1.274zm10.726-2.725v1.817c0 .752-.087 1.411-.263 1.977-.171.567-.42 1.04-.747 1.421a3.086 3.086 0 01-1.172.85c-.454.19-.962.285-1.524.285a3.946 3.946 0 01-1.523-.285 3.222 3.222 0 01-1.179-.85c-.327-.381-.581-.854-.762-1.421-.176-.566-.264-1.225-.264-1.977v-1.817c0-.761.088-1.428.264-1.999.176-.576.427-1.057.754-1.443a3.227 3.227 0 011.18-.872 3.837 3.837 0 011.516-.293c.561 0 1.069.098 1.523.293.459.196.852.486 1.179.872.328.386.579.867.755 1.443.176.571.263 1.238.263 1.999zm-1.765 1.817v-1.831c0-.542-.044-1.006-.132-1.392-.083-.39-.207-.708-.373-.952a1.533 1.533 0 00-.615-.549 1.818 1.818 0 00-.835-.183c-.308 0-.584.061-.828.183-.239.117-.444.3-.615.549-.166.244-.293.562-.381.952-.083.386-.124.85-.124 1.392v1.831c0 .532.043.991.131 1.377.088.381.215.693.381.937.171.24.379.418.623.535.244.117.52.176.827.176.313 0 .591-.059.835-.176.245-.117.447-.295.608-.535.166-.244.291-.556.374-.937.083-.386.124-.845.124-1.377zm4.325-6.277h1.619l2.453 7.932 2.447-7.932h1.501L177.221 120h-1.34l-3.399-10.664zm-.608 0h1.494l.242 6.789V120h-1.736v-10.664zm7.852 0h1.501V120h-1.736v-3.875l.235-6.789zm7.174 6.709h-2.249v-1.487h2.249c.366 0 .661-.078.886-.234.229-.157.395-.371.498-.645.107-.273.161-.583.161-.93 0-.332-.054-.645-.161-.937a1.547 1.547 0 00-.491-.711c-.224-.181-.522-.271-.893-.271h-1.751V120h-1.772v-10.664h3.523c.703 0 1.303.146 1.801.439.499.293.879.696 1.143 1.209.264.508.396 1.091.396 1.75 0 .689-.132 1.28-.396 1.773a2.736 2.736 0 01-1.143 1.142c-.498.264-1.098.396-1.801.396zm11.004 2.468V120h-4.629v-1.487h4.629zm-4.16-9.177V120h-1.78v-10.664h1.78zm3.538 4.438v1.465h-4.007v-1.465h4.007zm.578-4.438v1.494h-4.585v-1.494h4.585zm8.895 0V120h-1.743l-3.764-7.383V120h-1.722v-10.664h1.722l3.794 7.434v-7.434h1.713zm6.749 7.91c0-.22-.024-.415-.073-.586a1.108 1.108 0 00-.256-.476 2.223 2.223 0 00-.542-.417 6.023 6.023 0 00-.894-.418c-.42-.161-.813-.337-1.179-.527a5.226 5.226 0 01-.959-.659 2.746 2.746 0 01-.645-.872 2.694 2.694 0 01-.234-1.157c0-.435.075-.83.227-1.187.156-.361.376-.671.659-.93.288-.264.63-.466 1.025-.608.396-.146.833-.22 1.311-.22.689 0 1.277.147 1.766.44.493.293.869.686 1.128 1.179.263.493.395 1.04.395 1.641h-1.772c0-.347-.054-.655-.162-.923a1.328 1.328 0 00-.498-.63c-.224-.151-.515-.227-.871-.227-.327 0-.598.063-.813.19-.21.127-.366.301-.469.52a1.84 1.84 0 00-.146.755c0 .195.041.373.124.534.083.157.203.301.359.433.156.131.347.256.571.373.225.117.484.23.777.337.498.181.932.381 1.303.601.371.219.677.466.916.739.244.269.425.574.542.916.122.342.183.73.183 1.164 0 .44-.076.84-.227 1.202a2.479 2.479 0 01-.645.915 3.016 3.016 0 01-1.025.593c-.4.137-.85.205-1.348.205-.459 0-.901-.068-1.325-.205a3.346 3.346 0 01-1.128-.622 3.038 3.038 0 01-.791-1.062c-.191-.425-.286-.923-.286-1.494h1.78c0 .341.041.634.124.879.083.239.203.437.359.593.161.151.349.264.564.337.22.068.464.102.733.102.332 0 .603-.058.813-.175.214-.123.373-.291.476-.506.102-.215.153-.464.153-.747zm7.196-6.445L218.122 120h-1.86l3.384-10.664h1.157l-.103 1.465zm2.058 9.199l-2.585-9.199-.124-1.465h1.179L224.626 120h-1.868zm.044-3.962v1.494h-4.965v-1.494h4.965zm6.156-6.702V120h-1.772v-10.664h1.772zm2.718 0v1.494h-7.178v-1.494h7.178zm3.409 0V120h-1.78v-10.664h1.78zm9.444 4.46v1.817c0 .752-.088 1.411-.263 1.977-.171.567-.42 1.04-.747 1.421a3.086 3.086 0 01-1.172.85c-.454.19-.962.285-1.524.285a3.946 3.946 0 01-1.523-.285 3.222 3.222 0 01-1.179-.85c-.328-.381-.581-.854-.762-1.421-.176-.566-.264-1.225-.264-1.977v-1.817c0-.761.088-1.428.264-1.999.176-.576.427-1.057.754-1.443a3.224 3.224 0 011.179-.872 3.842 3.842 0 011.517-.293c.561 0 1.069.098 1.523.293.459.196.852.486 1.179.872.327.386.579.867.755 1.443.175.571.263 1.238.263 1.999zm-1.765 1.817v-1.831c0-.542-.044-1.006-.132-1.392-.083-.39-.207-.708-.373-.952a1.533 1.533 0 00-.615-.549 1.818 1.818 0 00-.835-.183c-.308 0-.584.061-.828.183-.239.117-.444.3-.615.549-.166.244-.293.562-.381.952-.083.386-.125.85-.125 1.392v1.831c0 .532.044.991.132 1.377.088.381.215.693.381.937.171.24.378.418.623.535.244.117.52.176.827.176.313 0 .591-.059.835-.176.244-.117.447-.295.608-.535.166-.244.291-.556.374-.937.083-.386.124-.845.124-1.377zm10.946-6.277V120h-1.743l-3.765-7.383V120h-1.721v-10.664h1.721l3.794 7.434v-7.434h1.714zm10.356 7.91c0-.22-.024-.415-.073-.586a1.108 1.108 0 00-.256-.476 2.223 2.223 0 00-.542-.417 6.072 6.072 0 00-.894-.418c-.42-.161-.813-.337-1.179-.527a5.27 5.27 0 01-.96-.659 2.758 2.758 0 01-.644-.872 2.694 2.694 0 01-.235-1.157c0-.435.076-.83.228-1.187.156-.361.376-.671.659-.93.288-.264.63-.466 1.025-.608.396-.146.833-.22 1.311-.22.689 0 1.277.147 1.765.44.493.293.869.686 1.128 1.179a3.42 3.42 0 01.396 1.641h-1.773c0-.347-.053-.655-.161-.923a1.328 1.328 0 00-.498-.63c-.225-.151-.515-.227-.871-.227-.328 0-.599.063-.813.19a1.18 1.18 0 00-.469.52 1.84 1.84 0 00-.147.755c0 .195.042.373.125.534.083.157.202.301.359.433.156.131.346.256.571.373.225.117.483.23.776.337.498.181.933.381 1.304.601.371.219.676.466.916.739.244.269.424.574.542.916.122.342.183.73.183 1.164 0 .44-.076.84-.227 1.202a2.49 2.49 0 01-.645.915 3.016 3.016 0 01-1.025.593c-.401.137-.85.205-1.348.205-.459 0-.901-.068-1.326-.205a3.346 3.346 0 01-1.128-.622 3.05 3.05 0 01-.791-1.062c-.19-.425-.285-.923-.285-1.494h1.78c0 .341.041.634.124.879.083.239.203.437.359.593.161.151.349.264.564.337.22.068.464.102.732.102.332 0 .603-.058.813-.175.215-.123.374-.291.476-.506a1.71 1.71 0 00.154-.747zm10.756-3.45v1.817c0 .752-.088 1.411-.264 1.977-.171.567-.42 1.04-.747 1.421a3.078 3.078 0 01-1.172.85 3.91 3.91 0 01-1.523.285 3.948 3.948 0 01-1.524-.285 3.222 3.222 0 01-1.179-.85c-.327-.381-.581-.854-.762-1.421-.176-.566-.263-1.225-.263-1.977v-1.817c0-.761.087-1.428.263-1.999.176-.576.428-1.057.755-1.443a3.224 3.224 0 011.179-.872 3.837 3.837 0 011.516-.293c.561 0 1.069.098 1.523.293.459.196.852.486 1.18.872.327.386.578.867.754 1.443.176.571.264 1.238.264 1.999zm-1.765 1.817v-1.831c0-.542-.044-1.006-.132-1.392-.083-.39-.208-.708-.374-.952a1.533 1.533 0 00-.615-.549 1.815 1.815 0 00-.835-.183c-.308 0-.584.061-.828.183-.239.117-.444.3-.615.549-.166.244-.293.562-.381.952-.083.386-.124.85-.124 1.392v1.831c0 .532.044.991.132 1.377.087.381.214.693.38.937.171.24.379.418.623.535.244.117.52.176.828.176.312 0 .59-.059.835-.176a1.51 1.51 0 00.607-.535c.167-.244.291-.556.374-.937.083-.386.125-.845.125-1.377zm8.609-6.277h1.78v7.405c0 .815-.154 1.472-.462 1.97a2.684 2.684 0 01-1.23 1.091 4.142 4.142 0 01-1.714.344c-.654 0-1.238-.114-1.75-.344a2.612 2.612 0 01-1.209-1.091c-.293-.498-.439-1.155-.439-1.97v-7.405h1.772v7.405c0 .508.064.901.19 1.179.132.278.318.471.557.579.244.107.537.161.879.161.342 0 .632-.054.872-.161.244-.108.429-.301.556-.579.132-.278.198-.671.198-1.179v-7.405zm3.775 0h3.223c.703 0 1.299.122 1.787.366.489.244.86.606 1.114 1.084.258.474.388 1.062.388 1.765 0 .532-.081 1.001-.242 1.407a2.712 2.712 0 01-.681 1.025 3.152 3.152 0 01-1.077.637l-.52.286h-2.724l-.008-1.494h1.919c.347 0 .635-.076.864-.227.23-.152.401-.362.513-.63.117-.269.176-.574.176-.916 0-.366-.051-.683-.154-.952a1.27 1.27 0 00-.483-.63c-.22-.151-.511-.227-.872-.227h-1.443V120h-1.78v-10.664zM290.407 120l-2.028-4.79 1.853-.007 2.08 4.702V120h-1.905zm8.522-3.479h1.772c-.034.771-.19 1.428-.468 1.97a2.874 2.874 0 01-1.202 1.231c-.517.283-1.149.424-1.897.424a3.628 3.628 0 01-1.523-.307 3.14 3.14 0 01-1.135-.886c-.313-.391-.552-.867-.718-1.429-.161-.561-.242-1.198-.242-1.911v-1.89c0-.713.083-1.35.249-1.911.171-.562.415-1.038.733-1.429.317-.39.703-.686 1.157-.886a3.77 3.77 0 011.553-.308c.737 0 1.357.142 1.86.425.503.283.891.698 1.165 1.245.273.547.432 1.214.476 2h-1.773c-.024-.532-.097-.957-.219-1.275-.118-.322-.298-.554-.542-.695-.24-.142-.562-.213-.967-.213-.337 0-.628.064-.872.191a1.543 1.543 0 00-.593.571 2.97 2.97 0 00-.344.945c-.074.376-.11.818-.11 1.325v1.905c0 .488.032.92.095 1.296s.166.696.308.96c.141.258.329.456.564.593.234.132.527.198.878.198.42 0 .755-.066 1.004-.198.254-.132.442-.354.564-.667.122-.312.198-.737.227-1.274zm9.43 1.992V120h-4.629v-1.487h4.629zm-4.16-9.177V120h-1.78v-10.664h1.78zm3.537 4.438v1.465h-4.006v-1.465h4.006zm.579-4.438v1.494h-4.585v-1.494h4.585zM162.914 61.254l5.449-20.848h4.623L165.34 66h-3.164l.738-4.746zm-4.764-20.848l5.414 20.848.791 4.746h-3.164l-7.646-25.594h4.605zm35.088 22.026V66h-11.11v-3.568h11.11zm-9.985-22.026V66h-4.271V40.406h4.271zm8.491 10.653v3.515h-9.616V51.06h9.616zm1.388-10.653v3.586h-11.004v-3.586h11.004zm6.717 0h7.734c1.687 0 3.117.293 4.289.88a5.98 5.98 0 012.672 2.6c.621 1.137.931 2.55.931 4.237 0 1.277-.193 2.402-.58 3.375a6.533 6.533 0 01-1.634 2.461c-.715.656-1.577 1.166-2.584 1.53l-1.248.685h-6.539l-.018-3.586h4.605c.832 0 1.524-.182 2.075-.545.55-.363.961-.867 1.23-1.512.281-.644.422-1.377.422-2.197 0-.879-.123-1.64-.369-2.285-.246-.656-.633-1.16-1.16-1.512-.528-.363-1.225-.545-2.092-.545h-3.463V66h-4.271V40.406zM211.766 66l-4.869-11.496 4.448-.018 4.992 11.286V66h-4.571zm15.119-25.594V66h-4.271V40.406h4.271zm12.271 0V66h-4.271V40.406h4.271zm8.297 11.162v3.586h-9.281v-3.586h9.281zm1.195-11.162v3.586h-10.476v-3.586h10.476zm10.97 0V66h-4.271V40.406h4.271zm22.256 22.026V66h-11.11v-3.568h11.11zm-9.985-22.026V66h-4.271V40.406h4.271zm8.491 10.653v3.515h-9.616V51.06h9.616zm1.388-10.653v3.586h-11.004v-3.586h11.004zM294.742 66h-4.447l.035-3.568h4.412c1.371 0 2.467-.252 3.287-.756.821-.516 1.412-1.301 1.776-2.356.363-1.054.545-2.402.545-4.043v-4.166c0-1.265-.106-2.343-.317-3.234-.199-.902-.515-1.635-.949-2.197a3.681 3.681 0 00-1.67-1.266c-.691-.281-1.523-.422-2.496-.422h-4.711v-3.586h4.711c1.465 0 2.789.235 3.973.703a8.185 8.185 0 013.041 2.075c.855.902 1.511 2.021 1.968 3.357.457 1.336.686 2.871.686 4.606v4.13c0 1.735-.229 3.27-.686 4.606-.457 1.324-1.113 2.443-1.968 3.357a8.387 8.387 0 01-3.094 2.057c-1.207.469-2.572.703-4.096.703zm-2.004-25.594V66h-4.271V40.406h4.271z" fill="#324A74"/><path d="M164.215 10.922L158.027 33h-4.465l8.122-25.594h2.777l-.246 3.516zM169.154 33l-6.205-22.078-.299-3.516h2.83L173.637 33h-4.483zm.106-9.51v3.586h-11.918V23.49h11.918zm18.299 2.9c0-.527-.059-.995-.176-1.406a2.671 2.671 0 00-.615-1.142c-.305-.34-.739-.674-1.301-1.002-.551-.328-1.266-.662-2.145-1.002a27.428 27.428 0 01-2.83-1.266 12.465 12.465 0 01-2.303-1.582 6.612 6.612 0 01-1.546-2.092c-.375-.796-.563-1.722-.563-2.777 0-1.043.182-1.992.545-2.848a6.454 6.454 0 011.582-2.232 7.182 7.182 0 012.461-1.459c.949-.352 1.998-.527 3.146-.527 1.653 0 3.065.351 4.237 1.054 1.183.704 2.086 1.647 2.707 2.83.633 1.184.949 2.496.949 3.938h-4.254c0-.832-.129-1.57-.387-2.215a3.209 3.209 0 00-1.195-1.512c-.539-.363-1.236-.545-2.092-.545-.785 0-1.435.153-1.951.457a2.83 2.83 0 00-1.125 1.248c-.234.528-.351 1.131-.351 1.811 0 .469.099.897.298 1.283.2.375.487.721.862 1.037.375.317.832.616 1.371.897s1.16.55 1.863.808c1.195.434 2.238.915 3.129 1.442.891.527 1.623 1.119 2.197 1.775a6.24 6.24 0 011.301 2.198c.293.82.439 1.752.439 2.794 0 1.055-.181 2.016-.544 2.883a5.96 5.96 0 01-1.547 2.198c-.68.609-1.5 1.084-2.461 1.423-.961.328-2.039.493-3.235.493-1.101 0-2.162-.164-3.181-.493a8.053 8.053 0 01-2.707-1.494c-.797-.68-1.43-1.53-1.899-2.549-.457-1.02-.685-2.214-.685-3.585h4.271c0 .82.1 1.523.299 2.109.199.574.486 1.049.861 1.424.387.363.838.633 1.354.808a5.9 5.9 0 001.758.246c.797 0 1.447-.14 1.951-.422a2.72 2.72 0 001.142-1.212c.247-.516.37-1.114.37-1.793zm16.312-4.921h-5.221l-.017-3.27h4.623c.715 0 1.324-.14 1.828-.422a2.71 2.71 0 001.143-1.23c.269-.54.404-1.19.404-1.951 0-.844-.117-1.53-.352-2.057a2.266 2.266 0 00-1.107-1.178c-.492-.246-1.125-.369-1.899-.369h-3.357V33h-4.271V7.406h7.628c1.196 0 2.262.14 3.2.422.949.27 1.752.686 2.408 1.248.656.563 1.154 1.283 1.494 2.162.352.867.527 1.899.527 3.094 0 1.043-.222 2.004-.668 2.883-.445.867-1.107 1.582-1.986 2.144-.867.551-1.945.88-3.234.985l-1.143 1.125zM203.713 33h-6.469l1.969-3.568h4.5c.762 0 1.389-.164 1.881-.492a2.995 2.995 0 001.107-1.372c.246-.586.369-1.271.369-2.056 0-.82-.105-1.535-.316-2.145-.211-.61-.551-1.078-1.02-1.406-.468-.328-1.089-.492-1.863-.492h-4.307l.036-3.27h5.502l.984 1.248c1.23.024 2.232.328 3.006.914a5.043 5.043 0 011.705 2.233 7.88 7.88 0 01.545 2.935c0 1.63-.305 3-.914 4.114a6.038 6.038 0 01-2.619 2.513c-1.125.563-2.491.844-4.096.844zm15.433-25.594l4.202 9.123 4.095-9.123h4.799l-6.398 12.674L232.383 33h-4.957l-4.219-9.316L218.971 33h-4.869l6.591-12.973-6.451-12.62h4.904zm16.454 23.45c0-.68.216-1.249.65-1.706.445-.457 1.055-.685 1.828-.685.774 0 1.377.228 1.811.685.445.457.668 1.026.668 1.706 0 .656-.223 1.212-.668 1.67-.434.456-1.037.685-1.811.685-.773 0-1.383-.229-1.828-.686-.434-.457-.65-1.013-.65-1.67zm27.404-12.745v4.36c0 1.804-.211 3.386-.633 4.746-.41 1.36-1.008 2.496-1.793 3.41a7.375 7.375 0 01-2.812 2.039c-1.09.457-2.309.686-3.657.686-1.336 0-2.554-.229-3.656-.686a7.715 7.715 0 01-2.83-2.039c-.785-.914-1.394-2.05-1.828-3.41-.422-1.36-.633-2.942-.633-4.746v-4.36c0-1.828.211-3.427.633-4.799.422-1.382 1.025-2.537 1.81-3.462a7.725 7.725 0 012.831-2.092c1.101-.469 2.314-.703 3.638-.703 1.348 0 2.567.234 3.656.703a7.54 7.54 0 012.831 2.092c.785.925 1.388 2.08 1.81 3.463.422 1.37.633 2.97.633 4.798zm-4.236 4.36v-4.395c0-1.3-.106-2.414-.317-3.34-.199-.937-.498-1.699-.896-2.285-.399-.598-.891-1.037-1.477-1.318-.574-.293-1.242-.44-2.004-.44-.738 0-1.4.147-1.986.44-.574.281-1.067.72-1.477 1.318-.398.586-.703 1.348-.914 2.285-.199.926-.299 2.04-.299 3.34v4.395c0 1.277.106 2.379.317 3.304.211.915.515 1.665.914 2.25a3.9 3.9 0 001.494 1.284c.586.28 1.248.421 1.986.421.75 0 1.418-.14 2.004-.421a3.64 3.64 0 001.459-1.284c.399-.585.698-1.335.897-2.25.199-.925.299-2.027.299-3.304zm8.578-15.065h7.734c1.688 0 3.117.293 4.289.88a5.975 5.975 0 012.672 2.6c.621 1.137.932 2.55.932 4.237 0 1.277-.194 2.402-.58 3.375-.375.973-.92 1.793-1.635 2.461-.715.656-1.576 1.166-2.584 1.53l-1.248.685h-6.539l-.018-3.586h4.606c.832 0 1.523-.182 2.074-.545a3.269 3.269 0 001.23-1.512c.282-.644.422-1.377.422-2.197 0-.879-.123-1.64-.369-2.285-.246-.656-.633-1.16-1.16-1.512-.527-.363-1.225-.545-2.092-.545h-3.463V33h-4.271V7.406zM279.264 33l-4.869-11.496 4.447-.018 4.992 11.286V33h-4.57zm24.363-13.13v10.089c-.316.387-.797.85-1.441 1.389-.633.527-1.489.996-2.567 1.406-1.066.398-2.414.598-4.043.598-1.371 0-2.625-.223-3.762-.668a7.6 7.6 0 01-2.9-2.022c-.809-.902-1.43-2.027-1.863-3.375-.434-1.36-.651-2.965-.651-4.816v-4.553c0-1.828.194-3.422.58-4.781.399-1.36.979-2.49 1.741-3.393a6.865 6.865 0 012.777-2.021c1.09-.446 2.344-.668 3.762-.668 1.793 0 3.287.316 4.482.949 1.207.621 2.127 1.547 2.76 2.777.644 1.219 1.019 2.707 1.125 4.465h-4.166c-.094-1.078-.299-1.951-.615-2.619-.305-.68-.744-1.184-1.319-1.512-.574-.328-1.312-.492-2.215-.492-.82 0-1.523.14-2.109.422-.586.281-1.066.72-1.441 1.318-.375.586-.651 1.336-.826 2.25-.176.914-.264 2.004-.264 3.27v4.588c0 1.289.111 2.396.334 3.322.223.926.545 1.688.967 2.285a3.96 3.96 0 001.599 1.3c.633.27 1.354.405 2.162.405.797 0 1.43-.082 1.899-.246.469-.164.832-.346 1.09-.545.269-.21.486-.375.65-.492v-5.273h-4.131v-3.358h8.385z" fill="#BC2649"/><path stroke="#000" d="M153 76.5h160"/></svg>