<svg width="31" height="31" fill="none" xmlns="http://www.w3.org/2000/svg"><path opacity=".5" d="M11.768 1.86c-.377.322-.566.483-.768.618a4.18 4.18 0 01-1.526.632c-.238.047-.486.067-.98.107-1.242.099-1.863.148-2.381.331a4.205 4.205 0 00-2.565 2.565c-.183.518-.232 1.139-.331 2.381-.04.495-.06.742-.107.98A4.204 4.204 0 012.478 11c-.135.202-.296.39-.618.768-.808.949-1.212 1.423-1.449 1.919a4.205 4.205 0 000 3.626c.237.496.641.97 1.45 1.919.321.377.482.566.617.768.31.462.525.98.632 1.526.047.238.067.486.107.98.099 1.242.148 1.863.331 2.381a4.205 4.205 0 002.565 2.565c.518.183 1.139.232 2.381.331.495.04.742.06.98.107a4.203 4.203 0 011.526.632c.202.135.39.296.768.618.949.808 1.423 1.212 1.919 1.449a4.205 4.205 0 003.626 0c.496-.237.97-.641 1.919-1.45.377-.321.566-.482.768-.617a4.18 4.18 0 011.526-.632c.238-.047.486-.067.98-.107 1.242-.099 1.863-.148 2.381-.331a4.205 4.205 0 002.565-2.565c.183-.518.232-1.139.331-2.381.04-.494.06-.742.107-.98A4.203 4.203 0 0128.522 20c.135-.202.296-.39.618-.768.808-.949 1.212-1.423 1.449-1.919a4.205 4.205 0 000-3.626c-.237-.496-.641-.97-1.45-1.919-.321-.377-.482-.566-.617-.768a4.203 4.203 0 01-.632-1.526c-.047-.238-.067-.486-.107-.98-.099-1.242-.148-1.863-.331-2.381a4.205 4.205 0 00-2.565-2.565c-.518-.183-1.139-.232-2.381-.331-.494-.04-.742-.06-.98-.107A4.204 4.204 0 0120 2.478c-.202-.135-.39-.296-.768-.618-.949-.808-1.423-1.212-1.919-1.449a4.205 4.205 0 00-3.626 0c-.496.237-.97.641-1.919 1.45z" fill="#048011"/><path d="M22.279 12.186a1.262 1.262 0 00-1.784-1.784l-7.518 7.518-2.472-2.472a1.261 1.261 0 00-1.784 1.784l3.364 3.364a1.262 1.262 0 001.784 0l8.41-8.41z" fill="#fff"/></svg>