<svg width="300" height="120" fill="none" xmlns="http://www.w3.org/2000/svg"><rect width="300" height="120" rx="4" fill="#fff"/><path opacity=".5" d="M47.245 25.301c-.974.83-1.462 1.245-1.982 1.594a10.85 10.85 0 01-3.94 1.632c-.614.121-1.252.172-2.528.274-3.205.256-4.808.384-6.145.856a10.851 10.851 0 00-6.618 6.618c-.472 1.337-.6 2.94-.856 6.145-.102 1.276-.153 1.914-.274 2.528a10.85 10.85 0 01-1.632 3.94c-.349.52-.764 1.008-1.594 1.982-2.086 2.447-3.129 3.67-3.74 4.95a10.851 10.851 0 000 9.36c.611 1.28 1.654 2.503 3.74 4.95.83.975 1.245 1.462 1.594 1.982a10.85 10.85 0 011.632 3.94c.121.614.172 1.252.274 2.528.256 3.205.384 4.808.856 6.145a10.851 10.851 0 006.618 6.618c1.337.472 2.94.6 6.145.856 1.276.102 1.914.153 2.528.274a10.85 10.85 0 013.94 1.632c.52.349 1.008.764 1.982 1.594 2.447 2.086 3.67 3.129 4.95 3.74a10.849 10.849 0 009.36 0c1.28-.611 2.503-1.654 4.95-3.74.975-.83 1.462-1.245 1.982-1.594a10.85 10.85 0 013.94-1.632c.614-.121 1.252-.172 2.528-.274 3.205-.256 4.808-.384 6.145-.856a10.851 10.851 0 006.618-6.618c.472-1.337.6-2.94.856-6.145.102-1.276.153-1.914.274-2.528a10.85 10.85 0 011.632-3.94c.349-.52.764-1.007 1.594-1.982 2.086-2.447 3.129-3.67 3.74-4.95a10.851 10.851 0 000-9.36c-.611-1.28-1.654-2.503-3.74-4.95-.83-.974-1.245-1.462-1.594-1.982a10.85 10.85 0 01-1.632-3.94c-.121-.614-.172-1.252-.274-2.528-.256-3.205-.384-4.808-.856-6.145a10.851 10.851 0 00-6.618-6.618c-1.337-.472-2.94-.6-6.145-.856-1.276-.102-1.914-.153-2.528-.274a10.85 10.85 0 01-3.94-1.632c-.52-.349-1.007-.764-1.982-1.594-2.447-2.086-3.67-3.129-4.95-3.74a10.851 10.851 0 00-9.36 0c-1.28.611-2.503 1.654-4.95 3.74z" fill="#048011"/><path d="M74.37 51.948a3.255 3.255 0 10-4.605-4.604l-19.4 19.401-6.38-6.38a3.256 3.256 0 00-4.604 4.605l8.681 8.68a3.255 3.255 0 004.604 0L74.37 51.949z" fill="#fff"/><path d="M115.361 37.82l-3.056 11.68h-3.018l4.443-14.219h1.885l-.254 2.54zm2.412 11.68l-3.076-11.68-.283-2.539h1.914l4.483 14.219h-3.038zm.108-5.303v2.373h-6.416v-2.373h6.416zm10.303 1.563c0-.254-.023-.485-.069-.694a1.306 1.306 0 00-.293-.576 2.602 2.602 0 00-.634-.527 7.397 7.397 0 00-1.075-.547 25.586 25.586 0 01-1.533-.703 7.194 7.194 0 01-1.338-.879 3.813 3.813 0 01-.947-1.172c-.228-.456-.342-.99-.342-1.602 0-.598.108-1.142.322-1.63.222-.489.534-.905.938-1.25a4.287 4.287 0 011.416-.81 5.571 5.571 0 011.826-.284c.912 0 1.699.189 2.363.566a3.95 3.95 0 011.553 1.553c.371.658.557 1.413.557 2.266h-2.852a2.95 2.95 0 00-.176-1.065 1.467 1.467 0 00-.537-.732c-.247-.176-.566-.264-.957-.264-.364 0-.667.075-.908.225a1.34 1.34 0 00-.527.596 2.03 2.03 0 00-.166.84c0 .234.055.445.166.634.117.182.276.348.478.498.202.143.44.283.713.42.28.137.586.27.918.4.645.254 1.214.534 1.709.84.495.3.908.638 1.24 1.016a3.8 3.8 0 01.752 1.26c.17.468.254 1.002.254 1.601 0 .593-.104 1.133-.312 1.621a3.46 3.46 0 01-.889 1.25 4.125 4.125 0 01-1.416.801 5.603 5.603 0 01-1.836.283 6.24 6.24 0 01-1.865-.273 4.557 4.557 0 01-1.553-.85 3.993 3.993 0 01-1.045-1.455c-.254-.592-.381-1.292-.381-2.1h2.862c0 .43.042.798.127 1.104.084.3.214.54.39.723.176.175.391.309.645.4.26.085.556.127.888.127.378 0 .677-.072.899-.215a1.2 1.2 0 00.488-.576c.098-.24.147-.514.147-.82zm9.58-2.461h-2.91l-.01-2.07h2.48c.391 0 .71-.066.957-.196a1.23 1.23 0 00.557-.596c.124-.266.185-.589.185-.966 0-.436-.055-.785-.166-1.045a1.098 1.098 0 00-.537-.586c-.247-.124-.569-.186-.966-.186h-1.524V49.5h-2.861V35.281h4.385c.709 0 1.344.078 1.904.235.56.156 1.035.394 1.426.712.39.32.686.723.888 1.212.209.488.313 1.064.313 1.728a3.73 3.73 0 01-.352 1.621A2.852 2.852 0 01140.43 42c-.495.313-1.143.488-1.944.527l-.722.772zm-.098 6.201h-3.623l1.143-2.363h2.48c.378 0 .684-.082.918-.244.234-.163.404-.381.508-.655.104-.28.156-.599.156-.957a3.43 3.43 0 00-.146-1.054c-.092-.3-.245-.528-.459-.684-.215-.163-.505-.244-.87-.244h-2.461l.02-2.07h2.988l.674.82c.762-.026 1.371.12 1.826.44.456.312.782.722.977 1.23.202.501.303 1.035.303 1.601 0 .912-.173 1.68-.518 2.305a3.3 3.3 0 01-1.494 1.406c-.658.313-1.465.469-2.422.469zm9.053-14.219l2.031 4.746 1.934-4.746h3.154l-3.428 7.041 3.496 7.178h-3.281l-2.021-4.853-2.022 4.853h-3.213l3.555-7.236-3.477-6.983h3.272zm8.76 12.822c0-.43.143-.787.429-1.074.287-.293.674-.44 1.162-.44.489 0 .876.147 1.162.44.287.287.43.645.43 1.074 0 .43-.143.788-.43 1.075-.286.286-.673.43-1.162.43-.488 0-.875-.144-1.162-.43a1.459 1.459 0 01-.429-1.075zm15.722-6.816v2.373c0 1.003-.124 1.882-.371 2.637-.241.749-.586 1.377-1.035 1.885-.443.5-.98.878-1.611 1.133-.625.253-1.319.38-2.08.38a5.552 5.552 0 01-2.09-.38 4.4 4.4 0 01-1.621-1.133c-.45-.508-.798-1.136-1.045-1.885-.248-.755-.371-1.634-.371-2.637v-2.373c0-1.029.12-1.927.361-2.695.241-.775.589-1.42 1.045-1.934a4.36 4.36 0 011.621-1.172c.625-.267 1.318-.4 2.08-.4s1.455.133 2.08.4a4.36 4.36 0 011.621 1.172c.456.514.804 1.16 1.045 1.934.247.768.371 1.666.371 2.695zm-2.842 2.373v-2.392c0-.678-.048-1.254-.146-1.729-.098-.482-.244-.876-.44-1.182a1.85 1.85 0 00-.712-.673 2.119 2.119 0 00-.977-.215c-.371 0-.7.071-.986.215-.28.143-.518.367-.713.673-.189.306-.332.7-.43 1.182-.091.475-.137 1.051-.137 1.729v2.392c0 .651.049 1.208.147 1.67.097.462.244.84.439 1.133.196.293.433.511.713.654.287.137.615.205.987.205.364 0 .686-.068.966-.205a1.8 1.8 0 00.713-.654c.189-.293.332-.67.43-1.133.098-.462.146-1.019.146-1.67zm4.932-8.379h4.561c.95 0 1.761.163 2.431.489a3.454 3.454 0 011.543 1.445c.358.638.537 1.426.537 2.363 0 .768-.104 1.426-.312 1.973a3.66 3.66 0 01-.889 1.357 4.407 4.407 0 01-1.377.86l-.869.517h-3.701l-.01-2.373h2.568c.391 0 .713-.084.967-.254.261-.176.453-.42.576-.732.131-.32.196-.69.196-1.114 0-.449-.059-.833-.176-1.152-.111-.325-.29-.573-.537-.742-.241-.176-.557-.264-.947-.264h-1.7V49.5h-2.861V35.281zm6.455 14.219l-2.607-6.338 2.998-.01 2.666 6.211v.137h-3.057zm14.268-7.47v5.859a6.618 6.618 0 01-.889.752c-.384.28-.889.527-1.514.742-.618.208-1.373.312-2.265.312-.788 0-1.504-.123-2.149-.37a4.356 4.356 0 01-1.65-1.124c-.456-.508-.804-1.14-1.045-1.894-.241-.762-.361-1.664-.361-2.705V41.18c0-1.029.114-1.924.341-2.686.235-.768.573-1.406 1.016-1.914.443-.508.97-.885 1.582-1.133.619-.247 1.315-.37 2.09-.37 1.068 0 1.943.178 2.627.536a3.52 3.52 0 011.562 1.592c.358.703.573 1.566.645 2.588h-2.764c-.045-.599-.146-1.068-.302-1.406-.15-.339-.362-.58-.635-.723-.274-.15-.629-.224-1.065-.224a2.22 2.22 0 00-.986.205 1.66 1.66 0 00-.703.644c-.189.3-.329.684-.42 1.152-.091.47-.137 1.042-.137 1.72v2.44c0 .671.052 1.244.156 1.72.105.475.258.862.459 1.161.209.3.469.518.782.655.319.13.693.195 1.123.195.345 0 .621-.036.83-.107.208-.072.374-.147.498-.225.13-.085.237-.15.322-.195v-2.617h-2.041v-2.159h4.893z" fill="#BC2649"/><path d="M113.469 66.39l2.422-9.265h2.054L114.547 68.5h-1.406l.328-2.11zm-2.117-9.265l2.406 9.266.351 2.109h-1.406l-3.398-11.375h2.047zm14.234 9.79V68.5h-4.938v-1.586h4.938zm-4.438-9.79V68.5h-1.898V57.125h1.898zm3.774 4.734v1.563h-4.274v-1.563h4.274zm.617-4.734v1.594h-4.891v-1.594h4.891zm1.625 0h3.438c.75 0 1.385.13 1.906.39.521.261.916.646 1.187 1.157.276.505.414 1.133.414 1.883 0 .567-.086 1.067-.257 1.5a2.9 2.9 0 01-.727 1.093 3.367 3.367 0 01-1.148.68l-.555.305h-2.906l-.008-1.594h2.047c.369 0 .677-.08.922-.242.244-.162.427-.386.546-.672a2.42 2.42 0 00.188-.977c0-.39-.055-.729-.164-1.015a1.345 1.345 0 00-.516-.672c-.234-.161-.544-.242-.929-.242h-1.54V68.5h-1.898V57.125zm5.297 11.375l-2.164-5.11 1.976-.007 2.219 5.015v.102h-2.031zm5.359-11.375V68.5h-1.898V57.125h1.898zm4.094 0V68.5h-1.898V57.125h1.898zm3.688 4.96v1.595h-4.125v-1.594h4.125zm.531-4.96v1.594h-4.656v-1.594h4.656zm3.515 0V68.5h-1.898V57.125h1.898zm8.532 9.79V68.5h-4.938v-1.586h4.938zm-4.438-9.79V68.5h-1.898V57.125h1.898zm3.774 4.734v1.563h-4.274v-1.563h4.274zm.617-4.734v1.594h-4.891v-1.594h4.891zm4.406 11.375h-1.977l.016-1.586h1.961c.609 0 1.096-.112 1.461-.336.365-.229.628-.578.789-1.047.162-.469.242-1.068.242-1.797v-1.851c0-.563-.047-1.042-.14-1.438-.089-.4-.23-.726-.422-.976a1.64 1.64 0 00-.742-.563c-.308-.125-.678-.187-1.11-.187h-2.094v-1.594h2.094c.651 0 1.24.104 1.766.313a3.63 3.63 0 011.351.921c.381.401.672.899.875 1.493.203.593.305 1.276.305 2.046v1.836c0 .771-.102 1.453-.305 2.047a4.1 4.1 0 01-.875 1.492 3.73 3.73 0 01-1.375.915c-.536.208-1.143.312-1.82.312zm-.891-11.375V68.5h-1.898V57.125h1.898zm11.532 0h1.726l2.617 8.46 2.61-8.46h1.601l-3.5 11.375h-1.429l-3.625-11.375zm-.649 0h1.594l.258 7.242V68.5h-1.852V57.125zm8.375 0h1.602V68.5h-1.852v-4.133l.25-7.242zm10.071 9.79V68.5h-4.938v-1.586h4.938zm-4.438-9.79V68.5h-1.898V57.125h1.898zm3.773 4.734v1.563h-4.273v-1.563h4.273zm.618-4.734v1.594h-4.891v-1.594h4.891zm6.508 8.438a2.28 2.28 0 00-.079-.626 1.186 1.186 0 00-.273-.507 2.38 2.38 0 00-.578-.446 6.45 6.45 0 00-.953-.445 12.5 12.5 0 01-1.258-.562 5.525 5.525 0 01-1.024-.704 2.952 2.952 0 01-.687-.93c-.167-.353-.25-.765-.25-1.234 0-.463.081-.885.242-1.265.167-.386.401-.716.703-.992a3.2 3.2 0 011.094-.649 4 4 0 011.398-.234c.735 0 1.362.156 1.883.468.526.313.927.732 1.203 1.258.282.526.422 1.11.422 1.75h-1.89c0-.37-.058-.698-.172-.984a1.43 1.43 0 00-.531-.672c-.24-.161-.55-.242-.93-.242-.349 0-.638.068-.867.203a1.25 1.25 0 00-.5.555 1.95 1.95 0 00-.157.804c0 .209.045.399.133.57.089.167.216.321.383.462.167.14.37.273.609.398.24.125.516.245.829.36a8.27 8.27 0 011.39.64c.396.234.721.497.977.79.26.286.453.611.578.976.13.364.195.778.195 1.242 0 .469-.081.896-.242 1.281-.156.38-.385.706-.688.977-.302.27-.666.481-1.093.632a4.436 4.436 0 01-1.438.22 4.59 4.59 0 01-1.414-.22 3.575 3.575 0 01-1.203-.664 3.257 3.257 0 01-.844-1.132c-.203-.454-.304-.985-.304-1.594H194c0 .365.044.677.133.937.088.256.216.467.383.633.172.162.372.281.601.36.235.072.495.109.781.109.355 0 .644-.063.868-.188.229-.13.398-.31.507-.539.11-.229.165-.494.165-.796zm11.312-3.68v1.937c0 .802-.094 1.506-.281 2.11-.183.604-.448 1.11-.797 1.515a3.285 3.285 0 01-1.25.907 4.163 4.163 0 01-1.625.304 4.198 4.198 0 01-1.625-.304 3.432 3.432 0 01-1.258-.907c-.349-.406-.62-.911-.812-1.515-.188-.605-.282-1.308-.282-2.11v-1.937c0-.813.094-1.524.282-2.133.187-.615.455-1.128.804-1.54a3.436 3.436 0 011.258-.929 4.091 4.091 0 011.617-.312c.599 0 1.141.104 1.625.312.49.209.909.519 1.258.93.349.411.617.924.805 1.539.187.61.281 1.32.281 2.133zm-1.883 1.937v-1.953c0-.578-.047-1.073-.14-1.484-.089-.417-.222-.755-.399-1.016a1.64 1.64 0 00-.656-.586 1.934 1.934 0 00-.891-.195 1.95 1.95 0 00-.883.195c-.255.125-.474.32-.656.586-.177.26-.312.6-.406 1.016a7.127 7.127 0 00-.133 1.484v1.953c0 .568.047 1.058.141 1.47.094.405.229.739.406 1 .182.254.404.444.664.57.26.124.555.187.883.187.333 0 .63-.063.891-.188.26-.125.476-.315.648-.57.177-.26.31-.594.398-1 .089-.411.133-.901.133-1.469zm7.485-6.695V68.5h-1.891V57.125h1.891zm2.898 0v1.594h-7.656v-1.594h7.656zm7.742 4.734v1.594h-4.789V61.86h4.789zm-4.344-4.734V68.5h-1.898V57.125h1.898zm5.829 0V68.5h-1.891V57.125h1.891zm8.484 9.79V68.5h-4.938v-1.586h4.938zm-4.438-9.79V68.5h-1.898V57.125h1.898zm3.774 4.734v1.563h-4.274v-1.563h4.274zm.617-4.734v1.594h-4.891v-1.594h4.891zm7.742 9.79V68.5h-4.726v-1.586h4.726zm-4.226-9.79V68.5h-1.899V57.125h1.899zm7.718 0V68.5h-1.898V57.125h1.898zm9.914 4.758v1.937c0 .802-.093 1.506-.281 2.11-.182.604-.448 1.11-.797 1.515a3.27 3.27 0 01-1.25.907 4.163 4.163 0 01-1.625.304 4.206 4.206 0 01-1.625-.304 3.428 3.428 0 01-1.257-.907c-.349-.406-.62-.911-.813-1.515-.187-.605-.281-1.308-.281-2.11v-1.937c0-.813.094-1.524.281-2.133.188-.615.456-1.128.805-1.54a3.428 3.428 0 011.258-.929 4.084 4.084 0 011.617-.312c.599 0 1.14.104 1.625.312.489.209.909.519 1.258.93.349.411.617.924.804 1.539.188.61.281 1.32.281 2.133zm-1.882 1.937v-1.953c0-.578-.047-1.073-.141-1.484-.088-.417-.221-.755-.398-1.016a1.635 1.635 0 00-.657-.586 1.933 1.933 0 00-.89-.195 1.95 1.95 0 00-.883.195c-.255.125-.474.32-.656.586-.177.26-.313.6-.407 1.016a7.202 7.202 0 00-.132 1.484v1.953c0 .568.046 1.058.14 1.47.094.405.229.739.406 1 .183.254.404.444.665.57.26.124.554.187.882.187.334 0 .631-.063.891-.188s.477-.315.648-.57c.178-.26.31-.594.399-1 .088-.411.133-.901.133-1.469zm4.453-6.695h1.726l2.618 8.46 2.609-8.46h1.602l-3.5 11.375h-1.43l-3.625-11.375zm-.649 0h1.594l.258 7.242V68.5h-1.852V57.125zm8.375 0h1.602V68.5h-1.852v-4.133l.25-7.242zm7.797 1.563l-2.75 9.812h-1.984l3.609-11.375h1.235l-.11 1.563zm2.196 9.812l-2.758-9.813-.133-1.562h1.258l3.625 11.375h-1.992zm.046-4.227v1.594h-5.296v-1.594h5.296zM115.672 83.79h1.89c-.036.823-.203 1.523-.5 2.102a3.047 3.047 0 01-1.281 1.312c-.552.302-1.226.453-2.023.453-.604 0-1.146-.11-1.625-.328a3.34 3.34 0 01-1.211-.945c-.333-.417-.589-.925-.766-1.524-.172-.599-.258-1.278-.258-2.039v-2.015c0-.76.089-1.44.266-2.04.182-.598.443-1.106.781-1.523a3.27 3.27 0 011.235-.945c.489-.219 1.041-.328 1.656-.328.786 0 1.448.15 1.984.453.537.302.951.745 1.242 1.328.292.583.461 1.294.508 2.133h-1.89c-.026-.568-.104-1.021-.235-1.36-.125-.343-.317-.59-.578-.742-.255-.15-.599-.226-1.031-.226-.359 0-.669.067-.93.203a1.652 1.652 0 00-.633.61c-.161.265-.283.6-.367 1.007a7.492 7.492 0 00-.117 1.414v2.031c0 .521.034.982.102 1.383.067.401.177.742.328 1.024.151.276.351.486.601.632.25.141.563.211.938.211.448 0 .804-.07 1.07-.21.271-.141.471-.378.602-.712.13-.333.211-.786.242-1.359zm11.281-2.906v1.937c0 .802-.094 1.506-.281 2.11-.182.604-.448 1.11-.797 1.515-.344.401-.76.703-1.25.907a4.163 4.163 0 01-1.625.304 4.202 4.202 0 01-1.625-.304 3.432 3.432 0 01-1.258-.907c-.349-.406-.62-.911-.812-1.515-.188-.605-.282-1.308-.282-2.11v-1.937c0-.813.094-1.524.282-2.133.187-.615.455-1.128.804-1.54a3.444 3.444 0 011.258-.929 4.091 4.091 0 011.617-.312c.599 0 1.141.104 1.625.312.49.209.909.518 1.258.93.349.411.617.924.805 1.539.187.61.281 1.32.281 2.133zm-1.883 1.937v-1.953c0-.578-.047-1.073-.14-1.484-.089-.417-.222-.755-.399-1.016a1.64 1.64 0 00-.656-.586 1.934 1.934 0 00-.891-.195c-.328 0-.622.065-.882.195a1.71 1.71 0 00-.657.586c-.177.26-.312.6-.406 1.016a7.196 7.196 0 00-.133 1.484v1.953c0 .568.047 1.058.141 1.47.094.405.229.739.406 1 .182.254.404.444.664.57.261.124.555.187.883.187.333 0 .63-.063.891-.188.26-.125.476-.315.648-.57.177-.26.31-.594.399-1 .088-.411.132-.901.132-1.469zm4.453-6.695h1.727l2.617 8.46 2.61-8.46h1.601l-3.5 11.375h-1.43l-3.625-11.375zm-.648 0h1.594l.258 7.242V87.5h-1.852V76.125zm8.375 0h1.602V87.5H137v-4.133l.25-7.242zm7.492 7.156h-2.398v-1.586h2.398c.391 0 .706-.083.946-.25.244-.166.421-.395.531-.687.114-.292.172-.623.172-.992a2.89 2.89 0 00-.172-1 1.648 1.648 0 00-.524-.758c-.239-.193-.557-.29-.953-.29h-1.867V87.5h-1.891V76.125h3.758c.75 0 1.391.156 1.922.469.531.312.938.742 1.219 1.289.281.541.422 1.164.422 1.867 0 .734-.141 1.365-.422 1.89a2.926 2.926 0 01-1.219 1.22c-.531.28-1.172.421-1.922.421zm11.578 2.633V87.5h-4.937v-1.586h4.937zm-4.437-9.789V87.5h-1.899V76.125h1.899zm3.773 4.734v1.563h-4.273V80.86h4.273zm.617-4.734v1.594h-4.89v-1.594h4.89zm9.329 0V87.5h-1.86l-4.015-7.875V87.5h-1.836V76.125h1.836l4.046 7.93v-7.93h1.829zm7.039 8.438a2.25 2.25 0 00-.079-.626 1.176 1.176 0 00-.273-.507 2.38 2.38 0 00-.578-.446 6.45 6.45 0 00-.953-.445 12.5 12.5 0 01-1.258-.562 5.516 5.516 0 01-1.023-.704 2.94 2.94 0 01-.688-.93c-.167-.353-.25-.765-.25-1.234 0-.463.081-.885.242-1.265.167-.386.401-.716.703-.992a3.2 3.2 0 011.094-.649 4.002 4.002 0 011.399-.234c.734 0 1.362.156 1.882.469.526.312.927.731 1.203 1.257.282.526.422 1.11.422 1.75h-1.89c0-.37-.058-.698-.172-.984a1.43 1.43 0 00-.531-.672c-.24-.161-.55-.242-.93-.242-.349 0-.638.068-.867.203a1.25 1.25 0 00-.5.555 1.966 1.966 0 00-.156.804c0 .209.044.399.132.57.089.167.216.321.383.462.167.14.37.273.609.398.24.125.516.245.829.36a8.27 8.27 0 011.39.64c.396.234.722.498.977.79.26.286.453.611.578.976.13.364.195.778.195 1.242 0 .469-.08.896-.242 1.281a2.64 2.64 0 01-.687.977 3.24 3.24 0 01-1.094.632 4.432 4.432 0 01-1.438.22 4.59 4.59 0 01-1.414-.22 3.575 3.575 0 01-1.203-.664 3.257 3.257 0 01-.844-1.132c-.203-.454-.304-.985-.304-1.594h1.898c0 .365.044.677.133.937.088.256.216.467.383.633.172.162.372.281.601.36.235.072.495.109.782.109.354 0 .643-.063.867-.188.229-.13.398-.31.508-.539.109-.229.164-.494.164-.796zm7.515-6.876l-2.75 9.813h-1.984l3.609-11.375h1.235l-.11 1.563zm2.196 9.813l-2.758-9.813-.133-1.562h1.258l3.625 11.375h-1.992zm.046-4.227v1.594h-5.296v-1.594h5.296zm6.407-7.148V87.5h-1.891V76.125h1.891zm2.898 0v1.594h-7.656v-1.594h7.656zm3.477 0V87.5h-1.899V76.125h1.899zm9.914 4.758v1.937c0 .802-.094 1.506-.282 2.11-.182.604-.447 1.11-.796 1.515a3.285 3.285 0 01-1.25.907 4.166 4.166 0 01-1.625.304 4.198 4.198 0 01-1.625-.304 3.423 3.423 0 01-1.258-.907c-.349-.406-.62-.911-.813-1.515-.187-.605-.281-1.308-.281-2.11v-1.937c0-.813.094-1.524.281-2.133.188-.615.456-1.128.805-1.54a3.428 3.428 0 011.258-.929 4.084 4.084 0 011.617-.312c.599 0 1.141.104 1.625.312.49.209.909.518 1.258.93.349.411.617.924.804 1.539.188.61.282 1.32.282 2.133zm-1.883 1.937v-1.953c0-.578-.047-1.073-.141-1.484-.088-.417-.221-.755-.398-1.016a1.64 1.64 0 00-.656-.586 1.937 1.937 0 00-.891-.195 1.95 1.95 0 00-.883.195c-.255.125-.474.32-.656.586-.177.26-.313.6-.406 1.016a7.127 7.127 0 00-.133 1.484v1.953c0 .568.047 1.058.141 1.47.093.405.229.739.406 1 .182.254.403.444.664.57.26.124.554.187.883.187.333 0 .63-.063.89-.188.261-.125.477-.315.649-.57.177-.26.31-.594.398-1 .089-.411.133-.901.133-1.469zm11.516-6.695V87.5h-1.86l-4.015-7.875V87.5h-1.836V76.125h1.836l4.046 7.93v-7.93h1.829zm10.726 8.438a2.29 2.29 0 00-.078-.626 1.186 1.186 0 00-.273-.507 2.408 2.408 0 00-.579-.446 6.354 6.354 0 00-.953-.445 12.5 12.5 0 01-1.258-.562 5.55 5.55 0 01-1.023-.704 2.922 2.922 0 01-.687-.93c-.167-.353-.25-.765-.25-1.234 0-.463.08-.885.242-1.265a2.86 2.86 0 01.703-.992 3.19 3.19 0 011.094-.649 3.996 3.996 0 011.398-.234c.734 0 1.362.156 1.883.469.526.312.927.731 1.203 1.257.281.526.422 1.11.422 1.75h-1.891c0-.37-.057-.698-.172-.984a1.419 1.419 0 00-.531-.672c-.239-.161-.549-.242-.93-.242-.349 0-.638.068-.867.203a1.26 1.26 0 00-.5.555 1.966 1.966 0 00-.156.804c0 .209.044.399.133.57.088.167.216.321.383.462.166.14.369.273.609.398s.516.245.828.36c.531.192.995.406 1.391.64.396.234.721.498.976.79.261.286.453.611.578.976.131.364.196.778.196 1.242 0 .469-.081.896-.242 1.281-.157.38-.386.706-.688.977a3.23 3.23 0 01-1.094.632 4.43 4.43 0 01-1.437.22 4.58 4.58 0 01-1.414-.22 3.575 3.575 0 01-1.203-.664 3.233 3.233 0 01-.844-1.132c-.203-.454-.305-.985-.305-1.594h1.899c0 .365.044.677.132.937.089.256.217.467.383.633.172.162.373.281.602.36.234.072.495.109.781.109.354 0 .643-.063.867-.188.229-.13.399-.31.508-.539.109-.229.164-.494.164-.796zm11.313-3.68v1.937c0 .802-.094 1.506-.282 2.11-.182.604-.448 1.11-.796 1.515a3.285 3.285 0 01-1.25.907 4.172 4.172 0 01-1.626.304 4.197 4.197 0 01-1.624-.304 3.423 3.423 0 01-1.258-.907c-.349-.406-.62-.911-.813-1.515-.187-.605-.281-1.308-.281-2.11v-1.937c0-.813.094-1.524.281-2.133.188-.615.456-1.128.805-1.54a3.428 3.428 0 011.258-.929 4.084 4.084 0 011.617-.312c.599 0 1.141.104 1.625.312.489.209.909.518 1.258.93.349.411.617.924.804 1.539.188.61.282 1.32.282 2.133zm-1.883 1.937v-1.953c0-.578-.047-1.073-.141-1.484-.088-.417-.221-.755-.398-1.016a1.64 1.64 0 00-.656-.586 1.94 1.94 0 00-.891-.195 1.95 1.95 0 00-.883.195c-.255.125-.474.32-.656.586-.177.26-.313.6-.406 1.016a7.127 7.127 0 00-.133 1.484v1.953c0 .568.047 1.058.14 1.47.094.405.23.739.407 1 .182.254.403.444.664.57.26.124.554.187.882.187.334 0 .631-.063.891-.188.261-.125.477-.315.649-.57.177-.26.309-.594.398-1 .089-.411.133-.901.133-1.469zm9.023-6.695h1.899v7.898c0 .87-.164 1.57-.493 2.102A2.86 2.86 0 01244 87.29a4.425 4.425 0 01-1.828.367c-.698 0-1.32-.122-1.867-.367a2.787 2.787 0 01-1.289-1.164c-.313-.531-.469-1.232-.469-2.102v-7.898h1.891v7.898c0 .542.067.961.203 1.258.14.297.338.503.593.617.261.115.573.172.938.172.364 0 .674-.057.93-.172.26-.114.458-.32.593-.617.141-.297.211-.716.211-1.258v-7.898zm3.867 0h3.438c.75 0 1.385.13 1.906.39.521.261.917.647 1.188 1.157.276.505.414 1.133.414 1.883 0 .567-.086 1.067-.258 1.5a2.9 2.9 0 01-.727 1.093c-.317.292-.7.519-1.148.68l-.555.305h-2.906l-.008-1.594h2.047c.37 0 .677-.08.922-.242.245-.162.427-.385.547-.672a2.42 2.42 0 00.187-.977c0-.39-.054-.729-.164-1.015a1.349 1.349 0 00-.515-.672c-.235-.162-.545-.242-.93-.242h-1.539v9.78h-1.899V76.125zM253.07 87.5l-2.164-5.11 1.977-.007 2.219 5.015v.102h-2.032zm8.93-3.71h1.891c-.037.822-.203 1.522-.5 2.1a3.055 3.055 0 01-1.282 1.313c-.552.302-1.226.453-2.023.453-.604 0-1.146-.11-1.625-.328a3.34 3.34 0 01-1.211-.945c-.333-.417-.589-.925-.766-1.524-.172-.599-.257-1.278-.257-2.039v-2.015c0-.76.088-1.44.265-2.04.182-.598.443-1.106.781-1.523a3.27 3.27 0 011.235-.945c.489-.219 1.041-.328 1.656-.328.787 0 1.448.15 1.984.453.537.302.951.745 1.243 1.328.291.583.461 1.294.507 2.133h-1.89c-.026-.568-.104-1.021-.235-1.36-.125-.343-.317-.59-.578-.742-.255-.15-.599-.226-1.031-.226-.359 0-.669.067-.93.203a1.642 1.642 0 00-.632.61c-.162.265-.284.6-.368 1.007a7.492 7.492 0 00-.117 1.414v2.031c0 .521.034.982.102 1.383.067.401.177.742.328 1.024.151.276.351.486.601.632.25.141.563.211.938.211.448 0 .805-.07 1.07-.21.271-.141.472-.378.602-.712.13-.333.211-.786.242-1.359zm9.898 2.124V87.5h-4.937v-1.586h4.937zm-4.437-9.789V87.5h-1.899V76.125h1.899zm3.773 4.734v1.563h-4.273v-1.563h4.273zm.618-4.734v1.594h-4.891v-1.594h4.891z" fill="#576885"/></svg>