<svg width="62" height="62" fill="none" xmlns="http://www.w3.org/2000/svg"><path d="M49.22 29.4c.569-.065 1.085.344 1.12.915A19.375 19.375 0 1137.324 13.17c.541.187.796.795.58 1.325-.216.53-.82.782-1.361.599A17.303 17.303 0 1048.277 30.55c-.03-.572.374-1.086.943-1.15z" fill="#FF4043"/><path fill-rule="evenodd" clip-rule="evenodd" d="M46.625 16.531a2 2 0 00-4 0v.297h-2.36a2 2 0 000 4h2.36v2.36a2 2 0 104 0v-2.36h.297a2 2 0 000-4h-.297v-.297z" fill="#FF4043"/><path d="M30.905 41.656a.986.986 0 01-.76-.32c-.197-.2-.295-.45-.295-.75v-1.454c-.859-.057-1.625-.192-2.3-.406a10.293 10.293 0 01-1.71-.75c-.323-.185-.527-.434-.612-.748a1.5 1.5 0 01.063-.898c.113-.286.303-.485.57-.6.267-.113.584-.063.95.15.394.229.907.45 1.54.664.647.2 1.421.3 2.322.3 1.055 0 1.814-.186 2.279-.557.464-.385.696-.863.696-1.433 0-.471-.162-.856-.485-1.156-.324-.299-.9-.541-1.73-.727l-2.238-.492c-2.546-.556-3.82-1.91-3.82-4.064 0-1.198.402-2.204 1.204-3.017.816-.827 1.906-1.326 3.27-1.497v-1.519c0-.3.1-.549.296-.749a.986.986 0 01.76-.32c.295 0 .541.107.738.32.211.2.317.45.317.75v1.497a7.876 7.876 0 011.773.406 5.359 5.359 0 011.646.877c.267.214.422.463.464.749.042.27-.007.527-.148.77a.993.993 0 01-.612.47c-.267.072-.584 0-.95-.213a5.687 5.687 0 00-1.371-.578c-.507-.157-1.112-.235-1.815-.235-.9 0-1.61.206-2.131.62-.507.4-.76.927-.76 1.583 0 .485.155.877.464 1.177.31.285.837.513 1.583.684l2.3.514c1.35.3 2.342.777 2.976 1.433.633.642.95 1.49.95 2.545 0 1.198-.409 2.182-1.225 2.953-.802.755-1.85 1.233-3.144 1.433v1.519c0 .3-.099.549-.296.748a.986.986 0 01-.76.321z" fill="#FF4043"/></svg>