<svg width="53" height="53" fill="none" xmlns="http://www.w3.org/2000/svg"><path d="M42.075 25.132a.85.85 0 01.957.782A16.563 16.563 0 1131.906 11.26a.85.85 0 01.496 1.132c-.184.453-.7.669-1.164.512a14.79 14.79 0 1010.031 13.213c-.026-.489.32-.928.806-.984z" fill="#FF4043"/><path fill-rule="evenodd" clip-rule="evenodd" d="M40.363 13.88a2 2 0 00-3.828-.075H34.71a2 2 0 000 4h1.727v1.726a2 2 0 104 0v-1.823a2 2 0 00-.075-3.829z" fill="#fff"/><path d="M26.419 35.61a.843.843 0 01-.65-.275.875.875 0 01-.252-.64v-1.243a8.35 8.35 0 01-1.967-.348 8.805 8.805 0 01-1.46-.64c-.277-.158-.452-.372-.524-.64a1.282 1.282 0 01.054-.768.883.883 0 01.487-.512c.229-.098.5-.055.812.128.337.195.776.384 1.317.567.553.17 1.214.256 1.984.256.902 0 1.552-.159 1.948-.476.397-.329.596-.737.596-1.225 0-.402-.139-.731-.415-.987-.277-.256-.77-.463-1.48-.622l-1.912-.42c-2.176-.476-3.265-1.634-3.265-3.475 0-1.024.343-1.884 1.029-2.578.697-.708 1.629-1.134 2.796-1.28v-1.299c0-.256.084-.47.252-.64a.843.843 0 01.65-.274c.252 0 .463.091.63.274.181.17.271.384.271.64v1.28a6.73 6.73 0 011.516.348c.541.183 1.01.432 1.407.75.228.182.36.396.397.64a.976.976 0 01-.127.658.85.85 0 01-.523.402c-.228.061-.499 0-.811-.183a4.866 4.866 0 00-1.173-.494c-.433-.134-.95-.2-1.551-.2-.77 0-1.377.176-1.822.53-.433.34-.65.792-.65 1.353 0 .414.133.75.397 1.006.265.243.716.438 1.353.585l1.966.439c1.155.256 2.003.664 2.544 1.225.541.548.812 1.274.812 2.176 0 1.024-.35 1.865-1.047 2.524-.685.646-1.581 1.054-2.688 1.225v1.298c0 .256-.084.47-.252.64a.843.843 0 01-.65.274z" fill="#FF4043"/></svg>