<svg width="25" height="28" fill="none" xmlns="http://www.w3.org/2000/svg"><path d="M3.428 18.717L1 26l7.283-2.428c3.327 1.68 7.396 1.486 10.564-.473C22.325 20.948 24 17.205 24 13.222 23.7 7.78 19.221 3.3 13.778 3h-.64c-1.686-.004-3.35.39-4.855 1.15a10.861 10.861 0 00-6.005 9.711c-.005 1.687.39 3.35 1.15 4.856z" stroke="#fff" stroke-width="2" stroke-linecap="round" stroke-linejoin="round"/><path d="M6.605 11.313V17H5.461v-5.688h1.144zm1.782 2.417v.946h-2.07v-.946h2.07zm.218-2.418v.95H6.316v-.95h2.29zm.672 0h1.825c.38 0 .704.066.972.196s.474.323.617.578c.144.255.215.57.215.945 0 .307-.041.57-.125.79a1.46 1.46 0 01-.355.542 1.764 1.764 0 01-.551.344l-.348.207h-1.48l-.004-.95h1.027a.683.683 0 00.387-.1.617.617 0 00.23-.294c.053-.127.079-.276.079-.445 0-.18-.024-.333-.07-.46a.568.568 0 00-.216-.298.628.628 0 00-.378-.105h-.68V17H9.277v-5.688zM11.86 17l-1.043-2.535 1.2-.004 1.066 2.484V17H11.86zm5.106-.945V17h-2.473v-.945h2.473zm-2.117-4.742V17h-1.145v-5.688h1.145zm1.785 2.304v.918h-2.14v-.918h2.14zm.324-2.305v.95h-2.465v-.95h2.465zm3.938 4.743V17h-2.473v-.945h2.473zm-2.118-4.742V17h-1.144v-5.688h1.144zm1.785 2.304v.918h-2.14v-.918h2.14zm.325-2.305v.95h-2.465v-.95h2.465z" fill="#fff"/></svg>