<svg width="22" height="20" fill="none" xmlns="http://www.w3.org/2000/svg"><g clip-path="url(#clip0_1136_905)"><path d="M16.27 5.396h.01M7.09 1.66h8.744c2.414 0 4.371 1.859 4.371 4.151v8.303c0 2.292-1.957 4.15-4.371 4.15H7.09c-2.414 0-4.371-1.858-4.371-4.15V5.81c0-2.292 1.957-4.15 4.371-4.15zm7.87 7.78a3.175 3.175 0 01-.356 2.016 3.417 3.417 0 01-1.532 1.437 3.661 3.661 0 01-2.128.312 3.566 3.566 0 01-1.917-.93 3.265 3.265 0 01-.98-1.82 3.173 3.173 0 01.329-2.022c.33-.623.86-1.133 1.513-1.454a3.66 3.66 0 012.124-.338c.742.105 1.43.433 1.96.937s.876 1.157.986 1.861z" stroke="#fff" stroke-width="2" stroke-linecap="round" stroke-linejoin="round"/></g><defs><clipPath id="clip0_1136_905"><path fill="#fff" transform="translate(.969)" d="M0 0h20.984v19.925H0z"/></clipPath></defs></svg>