<svg width="20" height="20" fill="none" xmlns="http://www.w3.org/2000/svg"><g clip-path="url(#clip0_2228_3805)"><path d="M14.583 5.396h.009M5.833 1.66h8.334a4.159 4.159 0 014.166 4.152v8.302a4.159 4.159 0 01-4.166 4.15H5.833a4.159 4.159 0 01-4.166-4.15V5.812A4.159 4.159 0 015.833 1.66zm7.5 7.78a3.31 3.31 0 01-.338 2.016 3.328 3.328 0 01-1.46 1.437 3.344 3.344 0 01-3.856-.618 3.317 3.317 0 01-.62-3.841A3.327 3.327 0 018.5 6.979a3.344 3.344 0 013.892.6c.506.503.835 1.156.94 1.86z" stroke="#324A74" stroke-width="2" stroke-linecap="round" stroke-linejoin="round"/></g><defs><clipPath id="clip0_2228_3805"><path fill="#fff" d="M0 0h20v19.925H0z"/></clipPath></defs></svg>