<svg width="78" height="78" fill="none" xmlns="http://www.w3.org/2000/svg"><g filter="url(#filter0_d_1611_2753)"><circle cx="39" cy="35" r="35" fill="#BC2649"/><circle cx="39" cy="35" r="34.5" stroke="#324A74" stroke-opacity=".31"/></g><path d="M43.393 13.344l-.938 29.531H35.63l-.996-29.531h8.76zm-8.877 38.642c0-1.25.41-2.304 1.23-3.164.82-.879 1.904-1.318 3.252-1.318 1.387 0 2.48.44 3.281 1.318.82.86 1.23 1.914 1.23 3.164 0 1.27-.41 2.344-1.23 3.223-.8.86-1.894 1.289-3.281 1.289-1.348 0-2.432-.43-3.252-1.289-.82-.879-1.23-1.953-1.23-3.223z" fill="#fff"/><defs><filter id="filter0_d_1611_2753" x="0" y="0" width="78" height="78" filterUnits="userSpaceOnUse" color-interpolation-filters="sRGB"><feFlood flood-opacity="0" result="BackgroundImageFix"/><feColorMatrix in="SourceAlpha" values="0 0 0 0 0 0 0 0 0 0 0 0 0 0 0 0 0 0 127 0" result="hardAlpha"/><feOffset dy="4"/><feGaussianBlur stdDeviation="2"/><feComposite in2="hardAlpha" operator="out"/><feColorMatrix values="0 0 0 0 0 0 0 0 0 0 0 0 0 0 0 0 0 0 0.25 0"/><feBlend in2="BackgroundImageFix" result="effect1_dropShadow_1611_2753"/><feBlend in="SourceGraphic" in2="effect1_dropShadow_1611_2753" result="shape"/></filter></defs></svg>