<svg width="69" height="69" fill="none" xmlns="http://www.w3.org/2000/svg"><g filter="url(#filter0_d_1611_2752)"><circle cx="34.5" cy="30.5" r="30.5" fill="#BC2649"/><circle cx="34.5" cy="30.5" r="30" stroke="#324A74" stroke-opacity=".31"/></g><path d="M38.327 12.453l-.781 24.61h-5.689l-.83-24.61h7.3zM30.93 44.655c0-1.041.341-1.92 1.025-2.636.684-.733 1.587-1.1 2.71-1.1 1.156 0 2.067.367 2.734 1.1.684.716 1.026 1.595 1.026 2.636 0 1.058-.342 1.953-1.026 2.686-.667.716-1.578 1.074-2.734 1.074-1.123 0-2.026-.358-2.71-1.074-.683-.733-1.025-1.628-1.025-2.686z" fill="#fff"/><defs><filter id="filter0_d_1611_2752" x="0" y="0" width="69" height="69" filterUnits="userSpaceOnUse" color-interpolation-filters="sRGB"><feFlood flood-opacity="0" result="BackgroundImageFix"/><feColorMatrix in="SourceAlpha" values="0 0 0 0 0 0 0 0 0 0 0 0 0 0 0 0 0 0 127 0" result="hardAlpha"/><feOffset dy="4"/><feGaussianBlur stdDeviation="2"/><feComposite in2="hardAlpha" operator="out"/><feColorMatrix values="0 0 0 0 0 0 0 0 0 0 0 0 0 0 0 0 0 0 0.25 0"/><feBlend in2="BackgroundImageFix" result="effect1_dropShadow_1611_2752"/><feBlend in="SourceGraphic" in2="effect1_dropShadow_1611_2752" result="shape"/></filter></defs></svg>