<svg width="14" height="16" fill="none" xmlns="http://www.w3.org/2000/svg"><path d="M11.889 5.79c0 1.99-1.957 4.613-3.336 6.214a1.739 1.739 0 01-2.661 0c-1.38-1.601-3.336-4.224-3.336-6.215C2.556 2.715 4.645 1 7.222 1 9.8 1 11.89 2.715 11.89 5.79z" stroke="#000" stroke-linejoin="round"/><circle cx="7.223" cy="4.889" r="1.556" stroke="#FF4043"/><path d="M9.167 11.252h.389c2.28.289 3.889.987 3.889 1.803 0 1.074-2.786 1.945-6.223 1.945C3.786 15 1 14.13 1 13.056c0-.816 1.609-1.515 3.889-1.804h.389" stroke="#000"/></svg>