<svg width="91" height="22" fill="none" xmlns="http://www.w3.org/2000/svg"><path d="M6.23 5.734L2.793 18H.313L4.824 3.781h1.543L6.23 5.734zM8.975 18L5.527 5.734l-.166-1.953h1.573L11.464 18h-2.49zm.058-5.283v1.992h-6.62v-1.992h6.62zM19.2 14.328c0-.293-.032-.553-.097-.781a1.478 1.478 0 00-.342-.635 2.991 2.991 0 00-.723-.557 8.026 8.026 0 00-1.191-.556c-.56-.215-1.084-.45-1.573-.703a6.923 6.923 0 01-1.279-.88 3.674 3.674 0 01-.86-1.161c-.208-.443-.312-.957-.312-1.543 0-.58.101-1.107.303-1.582.208-.482.501-.895.879-1.24a3.99 3.99 0 011.367-.811 4.999 4.999 0 011.748-.293c.918 0 1.703.195 2.354.586.657.39 1.159.915 1.504 1.572.351.658.527 1.387.527 2.188H19.14c0-.463-.072-.873-.215-1.23a1.781 1.781 0 00-.664-.84c-.3-.202-.687-.303-1.162-.303-.437 0-.798.084-1.084.253-.28.17-.489.4-.625.694-.13.293-.196.628-.196 1.006 0 .26.056.498.166.713.111.208.27.4.479.576.208.176.462.342.762.498.299.156.644.306 1.035.449.664.24 1.243.508 1.738.8.495.294.902.623 1.22.987.326.358.567.765.723 1.22a4.6 4.6 0 01.244 1.554c0 .586-.1 1.12-.302 1.601a3.305 3.305 0 01-.86 1.22 4.037 4.037 0 01-1.367.792 5.54 5.54 0 01-1.797.273 5.733 5.733 0 01-1.767-.273 4.475 4.475 0 01-1.504-.83 4.06 4.06 0 01-1.055-1.416c-.254-.567-.38-1.23-.38-1.992h2.372c0 .455.056.846.166 1.171.111.32.27.583.479.791.215.202.465.352.752.45.293.09.618.136.976.136.443 0 .804-.078 1.084-.234a1.51 1.51 0 00.635-.674 2.28 2.28 0 00.205-.996zm9.063-2.734h-2.9l-.01-1.817h2.568c.397 0 .736-.078 1.015-.234a1.5 1.5 0 00.635-.684c.15-.3.225-.66.225-1.084 0-.468-.065-.85-.195-1.142a1.26 1.26 0 00-.616-.654c-.273-.137-.625-.206-1.054-.206h-1.866V18h-2.373V3.781h4.239c.664 0 1.256.078 1.777.235.527.15.973.38 1.338.693.364.312.641.713.83 1.201.195.482.293 1.055.293 1.719 0 .58-.124 1.113-.371 1.601a3.067 3.067 0 01-1.104 1.192c-.481.306-1.08.488-1.797.547l-.634.625zM28.174 18H24.58l1.094-1.982h2.5c.423 0 .771-.092 1.045-.274.273-.182.478-.436.615-.762.137-.325.205-.706.205-1.142 0-.456-.059-.853-.176-1.192a1.532 1.532 0 00-.566-.78c-.26-.183-.606-.274-1.035-.274h-2.393l.02-1.817h3.056l.547.694c.684.013 1.24.182 1.67.508a2.8 2.8 0 01.947 1.24 4.37 4.37 0 01.303 1.63c0 .906-.17 1.667-.508 2.286a3.35 3.35 0 01-1.455 1.396c-.625.313-1.383.469-2.275.469zm8.574-14.219l2.334 5.069 2.275-5.069h2.666l-3.554 7.041L44.102 18h-2.754l-2.344-5.176L36.65 18h-2.705l3.662-7.207-3.584-7.012h2.725z" fill="#324A74"/><path d="M53.665 11a3.667 3.667 0 11-7.333 0 3.667 3.667 0 017.333 0z" fill="#BC2649"/><path d="M66.977 9.729v2.421c0 1.003-.118 1.882-.352 2.637-.228.755-.56 1.387-.996 1.895a4.1 4.1 0 01-1.563 1.133c-.605.253-1.282.38-2.03.38-.743 0-1.42-.127-2.032-.38a4.287 4.287 0 01-1.572-1.133c-.437-.508-.775-1.14-1.016-1.895-.234-.755-.351-1.634-.351-2.637V9.73c0-1.016.117-1.905.351-2.666.234-.769.57-1.41 1.006-1.924a4.29 4.29 0 011.572-1.162 5.11 5.11 0 012.022-.391c.748 0 1.425.13 2.03.39a4.18 4.18 0 011.573 1.163c.436.514.772 1.155 1.006 1.923.234.762.352 1.65.352 2.667zm-2.354 2.421V9.71c0-.723-.059-1.341-.176-1.855-.11-.521-.276-.944-.498-1.27a2.047 2.047 0 00-.82-.732 2.418 2.418 0 00-1.113-.245c-.41 0-.778.082-1.104.245-.319.156-.592.4-.82.732-.222.326-.39.749-.508 1.27-.11.514-.166 1.132-.166 1.855v2.441c0 .71.059 1.322.176 1.836.117.508.286.925.508 1.25.227.32.504.557.83.713.325.156.693.235 1.103.235a2.54 2.54 0 001.113-.235c.326-.156.596-.394.811-.713.221-.325.387-.742.498-1.25.11-.514.166-1.126.166-1.836zm4.766-8.369h4.297c.937 0 1.731.163 2.382.489a3.32 3.32 0 011.485 1.445c.345.631.517 1.416.517 2.353 0 .71-.107 1.335-.322 1.875-.208.54-.511.997-.908 1.367a4.2 4.2 0 01-1.436.85l-.693.381h-3.633l-.01-1.992h2.559c.462 0 .846-.101 1.152-.303.306-.202.534-.482.684-.84.156-.358.234-.765.234-1.22 0-.489-.068-.912-.205-1.27a1.687 1.687 0 00-.644-.84c-.293-.202-.68-.303-1.162-.303h-1.924V18h-2.373V3.781zM76.009 18l-2.704-6.387 2.47-.01 2.774 6.27V18h-2.54zm13.536-7.295v5.606a6.19 6.19 0 01-.8.771c-.352.293-.828.553-1.427.781-.592.222-1.34.332-2.246.332a5.683 5.683 0 01-2.09-.37 4.222 4.222 0 01-1.61-1.124c-.45-.501-.795-1.126-1.036-1.875-.24-.755-.361-1.647-.361-2.676V9.621c0-1.016.107-1.901.322-2.656.221-.755.544-1.384.967-1.885a3.818 3.818 0 011.543-1.123c.605-.247 1.302-.371 2.09-.371.996 0 1.826.176 2.49.527.67.345 1.181.86 1.533 1.543.358.677.566 1.504.625 2.48H87.23c-.053-.598-.166-1.083-.342-1.454-.17-.378-.414-.658-.733-.84-.319-.182-.729-.274-1.23-.274-.456 0-.847.078-1.172.235-.326.156-.593.4-.8.732-.21.326-.362.742-.46 1.25a9.818 9.818 0 00-.146 1.817v2.548c0 .716.061 1.332.185 1.846s.303.938.537 1.27c.241.325.537.566.889.722.352.15.752.225 1.201.225.443 0 .794-.046 1.055-.137a2.16 2.16 0 00.605-.303c.15-.117.27-.208.362-.273v-2.93h-2.295v-1.865h4.658z" fill="#324A74"/></svg>