<svg width="113" height="113" fill="none" xmlns="http://www.w3.org/2000/svg"><circle cx="56.5" cy="56.5" r="56.5" fill="#fff"/><g clip-path="url(#clip0_1844_2907)"><path d="M56.285 102.957c25.218 0 45.661-20.895 45.661-46.672 0-25.776-20.443-46.672-45.66-46.672-25.218 0-45.661 20.896-45.661 46.672 0 25.777 20.443 46.672 45.66 46.672z" fill="#BC2649"/><path d="M56.286 88.814c17.965 0 32.528-14.563 32.528-32.528 0-17.965-14.563-32.528-32.528-32.528-17.965 0-32.528 14.563-32.528 32.528 0 17.965 14.563 32.528 32.528 32.528z" fill="#036"/><path d="M56.285 84.279c-15.435 0-27.988-12.558-27.988-27.988s12.558-27.988 27.988-27.988S84.273 40.86 84.273 56.29 71.715 84.279 56.285 84.279zm0-54.456c-14.591 0-26.463 11.871-26.463 26.463 0 14.591 11.872 26.462 26.463 26.462 14.591 0 26.463-11.871 26.463-26.462 0-14.592-11.872-26.463-26.463-26.463z" fill="#fff"/><path d="M56.286 84.274a.762.762 0 01-.763-.763v-54.45a.762.762 0 111.526 0v54.45a.762.762 0 01-.763.763z" fill="#fff"/><path d="M83.515 57.049H29.06a.762.762 0 110-1.526h54.456a.762.762 0 110 1.526zm-38.522-7.602a.762.762 0 01-.763-.762v-9.136a.762.762 0 111.526 0v9.136a.76.76 0 01-.763.762z" fill="#fff"/><path d="M49.559 44.877h-9.136a.762.762 0 110-1.525h9.136a.762.762 0 110 1.525zM73.02 42.62h-9.136a.762.762 0 110-1.525h9.136a.762.762 0 110 1.525zm0 4.52h-9.136a.762.762 0 110-1.526h9.136a.762.762 0 110 1.526zM49.559 68.005h-9.136a.762.762 0 110-1.525h9.136a.762.762 0 110 1.525zm22.124 3.229a.767.767 0 01-.54-.224l-6.461-6.462c-.3-.3-.3-.783 0-1.078.3-.3.783-.3 1.078 0l6.462 6.462c.3.3.3.783 0 1.078a.767.767 0 01-.54.224z" fill="#fff"/><path d="M65.22 71.234a.767.767 0 01-.538-.224c-.3-.3-.3-.783 0-1.078l6.462-6.462c.3-.3.783-.3 1.078 0 .3.3.3.783 0 1.078L65.76 71.01a.767.767 0 01-.54.224z" fill="#fff"/><path d="M56.286 89.322c-18.216 0-33.036-14.82-33.036-33.037 0-18.216 14.825-33.031 33.036-33.031 18.212 0 33.037 14.82 33.037 33.036 0 18.217-14.82 33.037-33.036 33.037v-.005zm0-65.051c-17.657 0-32.02 14.362-32.02 32.02 0 17.657 14.363 32.02 32.02 32.02 17.658 0 32.02-14.364 32.02-32.02 0-17.658-14.362-32.02-32.02-32.02z" fill="#fff"/><path d="M56.286 103.288c-25.913 0-46.997-21.084-46.997-47.002 0-25.92 21.084-46.998 46.997-46.998 25.914 0 46.998 21.084 46.998 46.998 0 25.913-21.084 46.997-46.998 46.997v.005zm0-92.475c-25.074 0-45.472 20.398-45.472 45.472 0 25.075 20.398 45.473 45.472 45.473 25.075 0 45.473-20.398 45.473-45.472 0-25.075-20.398-45.473-45.473-45.473z" fill="#fff"/><path d="M19.14 61.445l.284 1.75 1.358.127.218 1.357-6.675-.956-.188-1.174 6.03-3.03.223 1.372-1.245.55-.005.004zm-.83 1.643l-.192-1.185-2.171.96 2.364.225zm.108-6.64c-.264.005-.457.082-.59.214-.132.137-.264.386-.401.742-.229.651-.503 1.124-.824 1.414-.32.29-.706.442-1.154.452-.544.015-.981-.168-1.322-.544-.335-.376-.513-.86-.528-1.454-.01-.396.066-.747.223-1.063.158-.315.387-.559.687-.732.3-.172.64-.264 1.027-.274l.03 1.296c-.3.005-.529.076-.681.209-.153.132-.229.32-.224.559.005.229.076.402.214.524.137.122.32.183.544.178.178 0 .335-.082.473-.224.137-.148.28-.402.427-.763.213-.635.478-1.098.798-1.388.325-.295.737-.447 1.25-.457.56-.016 1.002.152 1.327.503.326.35.494.829.509 1.444.01.417-.066.798-.229 1.144-.163.346-.402.62-.712.818-.315.204-.686.305-1.118.316l-.03-1.302c.37-.01.64-.086.802-.239.163-.147.245-.386.234-.712-.01-.452-.259-.676-.737-.66h.005zm1.69-2.024l-6.401-.686.214-1.978c.07-.666.274-1.159.61-1.474.335-.315.788-.443 1.362-.382.326.036.6.138.819.305.218.168.37.382.452.646.112-.28.3-.483.565-.61.264-.127.58-.173.94-.137.62.066 1.073.29 1.352.66.28.372.387.885.316 1.536l-.224 2.12h-.005zm-3.584-1.693l.07-.67c.057-.51-.182-.789-.706-.845-.29-.03-.503.005-.64.107-.138.102-.224.29-.25.549l-.076.686 1.602.173zm.94.102l1.708.183.087-.829c.025-.234-.03-.417-.158-.549-.132-.137-.33-.218-.59-.244-.574-.06-.89.117-.95.529l-.097.91zm1.288-7.133l-.467 1.973 1.662.392.55-2.334 1.047.25-.855 3.599-6.263-1.485.849-3.59 1.052.25-.549 2.323 1.48.351.467-1.972 1.022.244h.005zm2.329-3.401c-.244-.091-.457-.097-.63-.02-.173.081-.387.259-.646.539-.452.518-.884.854-1.291 1.006a1.712 1.712 0 01-1.24-.01c-.509-.188-.85-.524-1.023-.996-.172-.473-.157-.992.051-1.546.138-.371.34-.671.605-.905a1.73 1.73 0 01.91-.422 2.14 2.14 0 011.058.127l-.453 1.215c-.28-.106-.518-.127-.711-.06-.194.065-.33.213-.417.437a.713.713 0 000 .569c.081.168.229.29.442.366.168.061.34.05.524-.03.183-.082.412-.265.68-.55.433-.508.855-.838 1.262-.991.406-.152.854-.137 1.327.04.523.199.874.514 1.042.962.173.442.147.955-.066 1.53a2.506 2.506 0 01-.636.976c-.28.26-.6.427-.966.493-.366.071-.752.03-1.159-.122l.458-1.22c.345.127.625.158.834.081.208-.076.37-.27.483-.574.157-.427.015-.722-.438-.89V42.3zm-.45-7.429l-.747 1.404 4.728 2.511-.61 1.155-4.728-2.512-.732 1.383-.956-.508 2.09-3.94.955.508zm5.461-3.074c.701.503 1.128 1.062 1.276 1.672.147.61.01 1.21-.412 1.8-.422.585-.946.91-1.571.971-.625.061-1.286-.157-1.983-.65l-.895-.641c-.716-.514-1.159-1.083-1.322-1.709-.162-.62-.035-1.23.392-1.82.417-.58.946-.9 1.581-.945.636-.051 1.317.178 2.034.686l.895.64.005-.004zm-1.637.432c-.473-.34-.87-.524-1.195-.554-.326-.03-.59.096-.793.376-.204.28-.24.564-.117.859.127.295.412.605.859.935l.93.666c.458.331.844.504 1.16.524.315.02.574-.112.777-.396.199-.275.24-.555.122-.844-.117-.285-.396-.59-.838-.915l-.91-.651h.005zm4.909-2.568c-.188-.183-.381-.27-.57-.265-.188 0-.457.082-.808.24-.625.294-1.154.432-1.586.406a1.74 1.74 0 01-1.134-.498c-.391-.376-.574-.813-.544-1.322.03-.503.25-.971.661-1.398a2.21 2.21 0 01.91-.59 1.725 1.725 0 011.002-.025c.335.091.64.27.92.534l-.895.935c-.219-.208-.427-.32-.63-.335-.204-.016-.387.06-.555.233-.157.163-.234.336-.223.524.01.183.096.356.259.514a.664.664 0 00.493.178c.203 0 .483-.082.839-.234.6-.295 1.113-.432 1.55-.407.438.025.84.213 1.206.564.401.387.594.819.574 1.297-.02.478-.244.935-.666 1.378-.29.3-.61.513-.971.64-.36.127-.722.153-1.083.071a2.121 2.121 0 01-1.012-.57l.905-.94c.27.26.514.392.732.402.224.01.448-.102.672-.336.315-.325.3-.655-.046-.991v-.005zm12.068-8.78c.295.67.356 1.26.178 1.769-.172.508-.574.91-1.194 1.22-.656.32-1.261.35-1.82.092-.56-.26-1.032-.788-1.424-1.582l-.478-.97c-.391-.794-.513-1.495-.36-2.1.147-.605.543-1.068 1.184-1.383.63-.31 1.195-.366 1.693-.178.498.193.935.605 1.301 1.24l-1.169.575c-.214-.402-.412-.65-.605-.753-.193-.096-.442-.07-.747.082-.31.152-.478.37-.504.65-.02.28.087.677.326 1.18l.539 1.093c.28.575.539.936.772 1.088.234.153.509.148.819 0 .305-.152.483-.33.524-.534.04-.208-.026-.508-.199-.91l1.164-.574v-.005zm2.418.285l2.16-.738.351 1.022-3.386 1.16-2.084-6.091 1.23-.422 1.739 5.069h-.01zm5.86-1.801l-1.74.351-.076 1.358-1.347.274.696-6.706 1.165-.234 3.259 5.908-1.363.274-.6-1.225h.005zm-1.674-.768l1.18-.238-1.042-2.13-.138 2.368zm5.449 1.622l-1.297.122-.61-6.405 1.291-.123.616 6.406zm2.781-6.558l1.087 4.688 1.343-4.622 1.698.046-.178 6.437-1.302-.036.046-1.739.193-2.68-1.408 4.388-.885-.025-1.164-4.459.046 2.685-.051 1.738-1.297-.035.178-6.437 1.699.046-.005.005zm7.726 5.547c.046-.26.02-.468-.091-.62-.107-.158-.32-.336-.646-.544-.59-.356-.997-.722-1.215-1.098a1.733 1.733 0 01-.204-1.226c.097-.533.366-.925.804-1.179.437-.254.945-.325 1.53-.219.386.072.722.219.991.438.275.218.468.493.575.823.107.33.127.681.056 1.063l-1.276-.234c.056-.295.03-.534-.066-.712-.097-.178-.265-.29-.504-.335-.223-.041-.406-.006-.559.101-.147.107-.244.275-.285.498-.03.173.01.346.122.509.112.168.33.356.656.574.575.336.976.697 1.195 1.073.219.376.285.814.188 1.317-.102.549-.356.95-.763 1.195-.406.244-.915.31-1.515.198a2.55 2.55 0 01-1.072-.458 1.909 1.909 0 01-.656-.869c-.132-.35-.158-.737-.082-1.16l1.282.24c-.066.366-.046.645.066.834.112.193.33.315.65.376.448.081.712-.112.799-.585h.02zm13.93 5.369c-.406.615-.869.981-1.388 1.113-.518.127-1.077.015-1.672-.34-.625-.377-.981-.865-1.068-1.475-.086-.61.097-1.296.554-2.054l.555-.93c.452-.758.976-1.24 1.565-1.444.59-.204 1.19-.122 1.805.244.6.36.956.803 1.068 1.327.112.524 0 1.113-.336 1.77l-1.118-.672c.224-.396.325-.702.3-.915-.02-.214-.178-.407-.473-.585-.3-.178-.574-.203-.824-.066-.249.132-.518.437-.813.91l-.625 1.042c-.33.55-.493.961-.493 1.24 0 .28.147.51.447.687.295.173.539.224.737.148.198-.076.417-.295.656-.661l1.113.666.01-.005zm2.594 3.091l-1.378-1.113-1.098.808-1.067-.864 5.612-3.742.926.747-2.471 6.28-1.078-.875.56-1.24h-.006zm-.478-1.78l.936.758.976-2.16-1.912 1.408v-.005zm2.937 4.413l1.576 1.647-.778.748-2.476-2.588 4.652-4.454.9.94-3.87 3.707h-.004zm5.493 5.044c-.61.412-1.18.575-1.708.494-.529-.082-1.002-.402-1.414-.956-.432-.585-.574-1.175-.416-1.775.152-.594.584-1.159 1.301-1.688l.87-.645c.711-.529 1.377-.773 2.002-.737.626.035 1.15.34 1.572.915.416.564.574 1.108.477 1.632-.096.523-.427 1.027-.986 1.505l-.778-1.048c.356-.28.57-.523.63-.727.062-.203-.01-.447-.213-.722-.208-.28-.452-.406-.732-.376-.28.03-.65.203-1.103.529l-.976.722c-.514.381-.824.701-.93.956-.107.254-.057.523.152.803.203.274.412.417.62.422.209 0 .498-.117.86-.361l.772 1.042v.015zm6.238 2.37l-3.91 2.135c-.59.315-1.128.402-1.611.254-.488-.147-.89-.519-1.216-1.113-.33-.605-.426-1.154-.284-1.648.142-.493.508-.9 1.108-1.225l3.884-2.12.626 1.15-3.89 2.124c-.32.173-.523.351-.6.529-.08.178-.045.402.102.676.148.27.32.422.509.448.193.025.442-.046.752-.209l3.905-2.135.625 1.139v-.005zm-3.859 4.641l.834 2.125-1.007.392-1.307-3.336 5.994-2.349.473 1.21-4.987 1.953v.005zm2.049 5.795l-.422-1.723-1.362-.02-.33-1.338 6.73.412.285 1.154-5.765 3.508-.33-1.347 1.194-.65v.004zm.697-1.708l.284 1.17 2.085-1.134-2.37-.036zm4.187 7.108l-.187-1.581-5.318.635-.158-1.296 5.318-.636-.188-1.556 1.078-.127.529 4.428-1.078.128.005.005zm-2.718 5.639c-.864-.016-1.53-.229-2.003-.64-.473-.418-.702-.987-.691-1.71.01-.721.254-1.285.732-1.692.478-.407 1.144-.605 1.998-.6l1.098.015c.885.01 1.57.229 2.064.646.493.417.732.991.722 1.718-.01.717-.264 1.276-.758 1.683-.493.407-1.18.605-2.064.6l-1.103-.015.005-.005zm1.098-1.286c.58.01 1.012-.067 1.302-.23.284-.162.432-.416.437-.762.005-.346-.127-.6-.397-.773-.269-.167-.68-.259-1.24-.274l-1.144-.015c-.564-.01-.981.07-1.25.233-.27.163-.407.422-.412.773 0 .34.121.595.38.763.26.167.662.26 1.21.27l1.12.015h-.006zm-1.795 4.25l.097-.636-2.324-.36.199-1.287 6.36.981-.315 2.05c-.102.645-.34 1.113-.732 1.413-.387.3-.89.401-1.505.305-.844-.132-1.388-.53-1.632-1.195l-2.776.712-.061-.01.213-1.383 2.471-.6.005.01zm1.17-.473l-.112.732c-.04.254.015.463.168.615.152.153.37.255.655.3.636.097.997-.101 1.073-.6l.117-.752-1.896-.295h-.005zM29.322 89.073l2.252-1.586-.55-2.7 2.202 1.652 2.395-1.352-.89 2.608 2.029 1.861-2.751-.04-1.144 2.506-.813-2.629-2.736-.315.006-.005zm11.216 7.316l1.57-2.257-1.438-2.35 2.633.799 1.79-2.095.056 2.75 2.542 1.053-2.603.905-.219 2.746-1.662-2.197-2.68.64.01.006zm13.04 3.041l.707-2.66-2.156-1.713 2.75-.152.966-2.578.992 2.568 2.75.122-2.135 1.738.737 2.654-2.313-1.494-2.298 1.52v-.005zm13.295-1.608l-.25-2.74-2.607-.874 2.531-1.083.026-2.756 1.81 2.075 2.628-.83-1.413 2.365 1.596 2.242-2.684-.61-1.637 2.211zm11.949-6.06l-1.17-2.49-2.75.07 2.009-1.88-.92-2.599 2.41 1.327 2.185-1.672-.518 2.704 2.267 1.561-2.73.346-.783 2.638v-.005z" fill="#fff"/></g><defs><clipPath id="clip0_1844_2907"><path fill="#fff" transform="translate(9.29 9.288)" d="M0 0h94v94H0z"/></clipPath></defs></svg>