<svg width="103" height="16" fill="none" xmlns="http://www.w3.org/2000/svg"><path d="M6.487 2.353L2.72 15.786H0L4.946.214h1.69l-.149 2.139zm3.008 13.433L5.716 2.353 5.534.213h1.724l4.967 15.573h-2.73zM9.56 10v2.182H2.302V10h7.257zm11.144 1.765c0-.321-.036-.606-.107-.856a1.617 1.617 0 00-.375-.695c-.185-.207-.45-.41-.792-.61-.335-.2-.77-.403-1.306-.61a16.687 16.687 0 01-1.723-.77 7.578 7.578 0 01-1.403-.962 4.024 4.024 0 01-.942-1.273c-.228-.485-.342-1.048-.342-1.69 0-.634.11-1.212.332-1.732.228-.528.55-.98.963-1.358.421-.385.92-.681 1.499-.888A5.484 5.484 0 0118.423 0c1.006 0 1.866.214 2.58.642a4.297 4.297 0 011.648 1.722c.386.72.578 1.518.578 2.395h-2.59c0-.506-.079-.955-.236-1.347a1.95 1.95 0 00-.728-.92c-.328-.221-.753-.332-1.274-.332-.478 0-.874.093-1.188.278a1.72 1.72 0 00-.685.76c-.143.32-.214.688-.214 1.101 0 .286.06.546.182.781.121.228.296.439.525.631.228.193.506.375.834.546.329.17.707.335 1.135.492a11.28 11.28 0 011.906.877c.542.32.988.68 1.338 1.08.356.392.62.838.792 1.337.178.499.267 1.066.267 1.7 0 .642-.11 1.227-.331 1.754a3.62 3.62 0 01-.942 1.337c-.414.371-.914.66-1.499.867-.585.2-1.242.299-1.97.299-.67 0-1.316-.1-1.937-.3a4.905 4.905 0 01-1.649-.909 4.443 4.443 0 01-1.156-1.55c-.278-.62-.417-1.348-.417-2.182h2.6c0 .499.061.927.183 1.283.121.35.296.638.524.867.236.22.51.385.825.492.32.1.678.15 1.07.15.485 0 .881-.086 1.188-.258.314-.178.546-.424.696-.737.15-.314.225-.678.225-1.091zm9.934-2.995h-3.18l-.01-1.99h2.815c.436 0 .807-.085 1.114-.256.306-.171.538-.42.695-.749.165-.328.247-.723.247-1.187 0-.513-.072-.93-.215-1.251a1.38 1.38 0 00-.674-.717c-.3-.15-.685-.224-1.156-.224h-2.045v13.39h-2.6V.214h4.645c.728 0 1.377.085 1.948.257.578.164 1.067.417 1.467.759.4.342.703.78.91 1.315.214.528.32 1.156.32 1.883 0 .634-.135 1.22-.406 1.754a3.36 3.36 0 01-1.21 1.305c-.528.335-1.184.534-1.97.599l-.695.684zm-.096 7.016H26.6l1.2-2.171h2.74c.463 0 .845-.1 1.145-.3.3-.2.525-.477.674-.834.15-.356.225-.773.225-1.251 0-.5-.064-.934-.192-1.305a1.678 1.678 0 00-.621-.855c-.286-.2-.664-.3-1.135-.3h-2.623l.022-1.99h3.35l.6.76c.75.014 1.36.2 1.83.556.471.35.817.802 1.039 1.359.22.556.331 1.151.331 1.786 0 .99-.185 1.825-.556 2.502a3.67 3.67 0 01-1.595 1.53c-.685.342-1.517.513-2.494.513zM39.939.214l2.559 5.55 2.494-5.55h2.922l-3.896 7.711L48 15.786h-3.019l-2.569-5.668-2.58 5.668h-2.965l4.014-7.893-3.928-7.68h2.986zm38.047 6.513V9.38c0 1.098-.13 2.06-.39 2.887-.252.828-.62 1.519-1.103 2.075a4.542 4.542 0 01-1.732 1.24c-.671.279-1.422.418-2.252.418-.822 0-1.573-.14-2.251-.417a4.75 4.75 0 01-1.743-1.24c-.483-.557-.858-1.248-1.125-2.076-.26-.827-.39-1.79-.39-2.887V6.727c0-1.112.13-2.085.39-2.92.26-.84.631-1.543 1.114-2.106A4.752 4.752 0 0170.247.428 5.725 5.725 0 0172.487 0c.83 0 1.581.143 2.252.428.678.285 1.26.71 1.743 1.273.483.563.855 1.265 1.115 2.106.26.835.39 1.808.39 2.92zM75.378 9.38V6.706c0-.792-.065-1.469-.195-2.032-.123-.57-.307-1.034-.552-1.39a2.26 2.26 0 00-.91-.803c-.353-.178-.764-.267-1.233-.267-.455 0-.863.089-1.223.267a2.358 2.358 0 00-.91.802c-.245.357-.433.82-.562 1.39-.123.564-.184 1.241-.184 2.033V9.38c0 .777.065 1.447.194 2.01.13.556.318 1.013.563 1.37.253.349.56.609.92.78.361.171.769.257 1.223.257.462 0 .873-.086 1.234-.257s.66-.431.899-.78c.245-.357.429-.813.552-1.37.122-.563.184-1.233.184-2.01zM80.66.214h4.762c1.04 0 1.92.178 2.641.535a3.66 3.66 0 011.645 1.583c.383.691.574 1.55.574 2.577 0 .777-.119 1.462-.357 2.054a3.967 3.967 0 01-1.007 1.497c-.44.4-.97.71-1.59.93l-.77.417h-4.026l-.01-2.181h2.835c.513 0 .938-.11 1.278-.332.339-.22.591-.528.757-.92a3.28 3.28 0 00.26-1.337c0-.534-.076-.998-.227-1.39a1.85 1.85 0 00-.715-.92c-.325-.22-.754-.331-1.288-.331H83.29v13.39h-2.63V.214zm7.338 15.572L85 8.791l2.739-.01 3.073 6.866v.14h-2.814zM103 7.796v6.14c-.195.235-.491.517-.888.845-.389.32-.916.606-1.58.855-.656.243-1.486.364-2.49.364-.844 0-1.616-.135-2.316-.406a4.682 4.682 0 01-1.785-1.23c-.498-.55-.88-1.234-1.148-2.054-.267-.827-.4-1.804-.4-2.93V6.61c0-1.113.119-2.082.357-2.91.245-.827.602-1.515 1.071-2.064a4.23 4.23 0 011.71-1.23C96.204.136 96.976 0 97.849 0c1.104 0 2.024.193 2.76.578a3.83 3.83 0 011.699 1.69c.397.74.628 1.646.693 2.716h-2.565c-.058-.656-.184-1.187-.379-1.594-.188-.413-.458-.72-.812-.92-.353-.2-.808-.299-1.364-.299-.505 0-.938.086-1.298.257-.361.17-.657.438-.888.802-.231.356-.4.813-.509 1.369-.108.556-.162 1.22-.162 1.99v2.79c0 .785.069 1.459.206 2.022.137.563.335 1.027.595 1.39.267.357.595.62.985.792.39.164.833.246 1.331.246.49 0 .88-.05 1.17-.15.288-.1.511-.21.67-.331.166-.129.3-.229.401-.3V9.84h-2.544V7.797H103z" fill="#324A74"/><path fill-rule="evenodd" clip-rule="evenodd" d="M57.219 3.408a5.065 5.065 0 100 10.13 5.065 5.065 0 000-10.13zM50.95 8.473a6.269 6.269 0 1112.538 0 6.269 6.269 0 01-12.538 0z" fill="#BC2649"/><path d="M60.052 8.473a2.833 2.833 0 11-5.666 0 2.833 2.833 0 015.666 0z" fill="#BC2649"/></svg>