<svg width="25" height="17" fill="none" xmlns="http://www.w3.org/2000/svg"><path d="M2.885 0C1.292 0 0 1.27 0 2.833v11.334C0 15.73 1.292 17 2.885 17h19.23C23.708 17 25 15.73 25 14.167V2.833C25 1.27 23.708 0 22.115 0H2.885zm0 1.889h19.23c.53 0 .962.424.962.944v.473L12.5 8.914 1.923 3.306v-.473c0-.52.432-.944.962-.944zM1.923 3.57l6.28 4.81-6.16 6.2 7.513-5.255 2.944 1.86 2.945-1.86 7.512 5.254-6.16-6.198 6.28-4.811v10.596a.884.884 0 01-.12.413.95.95 0 01-.842.531H2.885a.95.95 0 01-.842-.53.889.889 0 01-.12-.414V3.57z" fill="#fff"/></svg>