<svg width="18" height="18" fill="none" xmlns="http://www.w3.org/2000/svg"><path fill-rule="evenodd" clip-rule="evenodd" d="M4.73 1.55a.674.674 0 00-.954 0L2.358 2.97a3.43 3.43 0 00-.697 3.844 19.186 19.186 0 009.527 9.527 3.43 3.43 0 003.843-.697l1.419-1.419a.674.674 0 000-.953l-1.908-1.908a.674.674 0 00-.778-.127l-1.06.53a2.878 2.878 0 01-3.321-.54l-2.61-2.609a2.878 2.878 0 01-.539-3.321l.53-1.06a.674.674 0 00-.126-.778L4.729 1.55zM3.054.83a1.694 1.694 0 012.395 0L7.36 2.736c.515.516.643 1.303.317 1.956l-.53 1.059a1.858 1.858 0 00.348 2.144l2.61 2.61a1.86 1.86 0 002.145.348l1.058-.53a1.694 1.694 0 011.956.318l1.908 1.908a1.694 1.694 0 010 2.395l-1.419 1.418a4.449 4.449 0 01-4.987.905A20.205 20.205 0 01.732 7.235a4.449 4.449 0 01.905-4.987L3.055.829z" fill="#fff"/></svg>