<svg width="21" height="26" fill="none" xmlns="http://www.w3.org/2000/svg"><path d="M10.5 5.571c-.944 0-1.867.273-2.652.783a4.673 4.673 0 00-1.757 2.084 4.526 4.526 0 00-.272 2.682c.184.9.639 1.728 1.306 2.377a4.816 4.816 0 002.444 1.271 4.89 4.89 0 002.757-.264 4.747 4.747 0 002.142-1.71 4.553 4.553 0 00.805-2.58 4.58 4.58 0 00-1.398-3.283 4.841 4.841 0 00-3.375-1.36zm0 7.43a2.92 2.92 0 01-1.59-.47 2.804 2.804 0 01-1.056-1.25 2.715 2.715 0 01-.163-1.61c.11-.54.384-1.037.784-1.426.4-.39.91-.655 1.466-.763a2.938 2.938 0 011.655.159c.523.21.97.568 1.285 1.026.315.458.483.996.483 1.547 0 .74-.302 1.448-.84 1.97A2.905 2.905 0 0110.5 13zM10.5 0a10.663 10.663 0 00-7.421 2.995A10.087 10.087 0 000 10.215c0 3.644 1.731 7.507 5.011 11.171a30.032 30.032 0 004.946 4.446.974.974 0 001.095 0c1.81-1.3 3.466-2.79 4.937-4.446C19.264 17.722 21 13.86 21 10.214a10.087 10.087 0 00-3.079-7.219A10.662 10.662 0 0010.5 0zm0 23.911c-1.972-1.509-8.59-7.052-8.59-13.697 0-2.216.904-4.342 2.515-5.91A8.714 8.714 0 0110.5 1.858c2.278 0 4.464.88 6.075 2.448a8.244 8.244 0 012.516 5.91c0 6.642-6.619 12.187-8.591 13.696z" fill="#fff"/></svg>