<svg width="22" height="22" fill="none" xmlns="http://www.w3.org/2000/svg"><path d="M19.867 21.5l-7.35-7.35a7.11 7.11 0 01-4.433 1.517c-2.12 0-3.914-.735-5.381-2.203C1.235 11.996.5 10.202.5 8.084c0-2.12.734-3.914 2.203-5.381C4.17 1.235 5.965.5 8.083.5c2.12 0 3.913.734 5.381 2.203 1.468 1.468 2.202 3.262 2.203 5.38a7.11 7.11 0 01-1.517 4.434l7.35 7.35-1.633 1.633zM8.083 13.333c1.459 0 2.698-.51 3.72-1.531 1.02-1.022 1.531-2.261 1.53-3.719 0-1.458-.51-2.698-1.531-3.719-1.022-1.021-2.261-1.531-3.719-1.53-1.458 0-2.698.51-3.719 1.531s-1.531 2.26-1.53 3.718c0 1.459.51 2.698 1.531 3.72 1.021 1.02 2.26 1.531 3.718 1.53z" fill="#fff"/></svg>