<svg width="20" height="20" fill="none" xmlns="http://www.w3.org/2000/svg"><g clip-path="url(#clip0_42_649)"><path d="M8.195 0c4.527 0 8.196 3.62 8.196 8.084a7.99 7.99 0 01-1.977 5.267l5.388 5.473a.685.685 0 01-.015.98.71.71 0 01-.993-.014l-5.383-5.47a8.23 8.23 0 01-5.216 1.849C3.67 16.169 0 12.549 0 8.084 0 3.62 3.67 0 8.195 0zm0 1.386c-3.75 0-6.79 2.999-6.79 6.698 0 3.7 3.04 6.699 6.79 6.699s6.791-3 6.791-6.699c0-3.7-3.04-6.698-6.79-6.698h-.001z" fill="#fff"/></g><defs><clipPath id="clip0_42_649"><path fill="#fff" d="M0 0h20v20H0z"/></clipPath></defs></svg>