<svg width="20" height="20" fill="none" xmlns="http://www.w3.org/2000/svg"><path d="M11.667 12.5a1.667 1.667 0 11-3.333 0 1.667 1.667 0 013.333 0zm-.758 4.166c.1.6.308 1.159.6 1.667H5.001a1.667 1.667 0 01-1.667-1.667V8.333a1.66 1.66 0 011.667-1.667h.833V5c0-2.3 1.867-4.167 4.167-4.167S14.167 2.7 14.167 5v1.666h.834a1.667 1.667 0 011.666 1.667v2.575a5.527 5.527 0 00-.833-.075c-.283 0-.558.033-.833.075V8.333H5v8.333h5.908zm-3.408-10h5V5c0-1.384-1.117-2.5-2.5-2.5A2.497 2.497 0 007.5 5v1.666zM17.784 13.2l-2.992 2.991-1.325-1.325-.966.967 2.291 2.5 3.959-3.958-.967-1.175z" fill="#048011"/></svg>