<svg width="20" height="20" fill="none" xmlns="http://www.w3.org/2000/svg"><g clip-path="url(#clip0_2228_3803)"><path d="M16.55 3.761a9.097 9.097 0 002.617-1.27 6.403 6.403 0 01-1.734 3.047c.044.227.066.458.067.689 0 9.547-9.167 13.698-16.667 9.547a9.727 9.727 0 005.834-1.66C1.385 11.775 1.476 7.378 1.992 4.98A9.255 9.255 0 012.5 3.32a8.861 8.861 0 003.276 2.82A8.91 8.91 0 0010 7.082v-.83a3.71 3.71 0 01.644-2.14 3.747 3.747 0 015.906-.352z" stroke="#324A74" stroke-width="2" stroke-linecap="round" stroke-linejoin="round"/></g><defs><clipPath id="clip0_2228_3803"><path fill="#fff" d="M0 0h20v19.925H0z"/></clipPath></defs></svg>