<svg width="21" height="20" fill="none" xmlns="http://www.w3.org/2000/svg"><g clip-path="url(#clip0_1136_903)"><path d="M17.365 3.761a9.75 9.75 0 002.745-1.27 6.336 6.336 0 01-1.819 3.047c.046.227.07.458.07.689 0 9.547-9.617 13.698-17.486 9.547 2.175.083 4.32-.5 6.12-1.66C1.454 11.775 1.55 7.378 2.09 4.98a8.986 8.986 0 01.534-1.66 9.026 9.026 0 001.494 1.578c.587.487 1.24.905 1.943 1.241a9.733 9.733 0 004.431.942v-.83a3.586 3.586 0 01.676-2.14 3.89 3.89 0 011.844-1.385 4.113 4.113 0 012.348-.133 3.955 3.955 0 012.005 1.167z" stroke="#fff" stroke-width="2" stroke-linecap="round" stroke-linejoin="round"/></g><defs><clipPath id="clip0_1136_903"><path fill="#fff" d="M0 0h20.984v19.925H0z"/></clipPath></defs></svg>