<svg width="18" height="18" fill="none" xmlns="http://www.w3.org/2000/svg"><g clip-path="url(#clip0_42_127)"><path d="M7.375 0c4.075 0 7.377 3.258 7.377 7.276a7.19 7.19 0 01-1.78 4.74l4.85 4.926a.617.617 0 01-.014.882.639.639 0 01-.893-.013l-4.845-4.923a7.407 7.407 0 01-4.695 1.664C3.303 14.552 0 11.294 0 7.276S3.303 0 7.375 0zm0 1.247c-3.375 0-6.11 2.7-6.11 6.029 0 3.33 2.736 6.029 6.11 6.029 3.376 0 6.112-2.7 6.112-6.03s-2.736-6.028-6.11-6.028h-.002z" fill="#444"/></g><defs><clipPath id="clip0_42_127"><path fill="#fff" d="M0 0h18v18H0z"/></clipPath></defs></svg>