<svg width="20" height="16" fill="none" xmlns="http://www.w3.org/2000/svg"><path d="M18.199 2.276c.284.291.485.652.584 1.046a23.99 23.99 0 01.384 4.426 23.986 23.986 0 01-.384 4.358 2.306 2.306 0 01-1.616 1.66c-1.434.383-7.167.383-7.167.383s-5.733 0-7.167-.382a2.32 2.32 0 01-1.616-1.594 23.989 23.989 0 01-.384-4.425 23.989 23.989 0 01.384-4.392 2.306 2.306 0 011.616-1.66c.592-.167 3.881-.379 7.167-.383 3.323-.004 6.644.202 7.167.349.392.11.748.322 1.032.614z" stroke="#324A74" stroke-width="2" stroke-linecap="round" stroke-linejoin="round"/></svg>