<svg width="22" height="21" fill="none" xmlns="http://www.w3.org/2000/svg"><g clip-path="url(#clip0_1136_909)"><path d="M19.997 5.276c.298.292.51.653.614 1.047.277 1.46.412 2.941.402 4.425a22.9 22.9 0 01-.402 4.359 2.278 2.278 0 01-.614 1.046 2.459 2.459 0 01-1.082.614c-1.504.382-7.52.382-7.52.382s-6.015 0-7.519-.382a2.464 2.464 0 01-1.068-.586 2.288 2.288 0 01-.628-1.008 22.896 22.896 0 01-.402-4.425 22.896 22.896 0 01.402-4.392c.104-.394.315-.755.613-1.047a2.46 2.46 0 011.083-.614c.62-.166 4.072-.378 7.52-.381 3.486-.004 6.97.2 7.518.348.412.11.786.323 1.083.614z" stroke="#fff" stroke-width="2" stroke-linecap="round" stroke-linejoin="round"/></g><defs><clipPath id="clip0_1136_909"><path fill="#fff" transform="translate(.902 .992)" d="M0 0h20.984v19.925H0z"/></clipPath></defs></svg>