<svg width="11" height="20" viewBox="0 0 11 20" fill="none" xmlns="http://www.w3.org/2000/svg">
<path d="M0.295606 18.3137C0.20118 18.4092 0.12736 18.5214 0.0783611 18.6441C0.0293619 18.7667 0.00614255 18.8974 0.0100301 19.0286C0.0139177 19.1598 0.0448357 19.289 0.101018 19.4089C0.157201 19.5287 0.237548 19.6367 0.337472 19.7269C0.437396 19.8171 0.554941 19.8876 0.683395 19.9344C0.811848 19.9811 0.948694 20.0033 1.08612 19.9996C1.22355 19.9959 1.35886 19.9664 1.48434 19.9127C1.60982 19.8591 1.723 19.7823 1.81743 19.6869L10.7139 10.6922C10.8976 10.5067 11 10.261 11 10.0056C11 9.75026 10.8976 9.50458 10.7139 9.31902L1.81743 0.323299C1.72362 0.225795 1.61047 0.147059 1.48453 0.0916672C1.35859 0.0362752 1.22238 0.00533058 1.08381 0.000629504C0.945238 -0.00407157 0.807071 0.0175662 0.677332 0.0642842C0.547593 0.111002 0.428869 0.181869 0.328055 0.272771C0.227242 0.363672 0.146349 0.472795 0.0900744 0.593801C0.0338003 0.714806 0.00326721 0.845283 0.0002482 0.977652C-0.00277081 1.11002 0.0217842 1.24164 0.0724879 1.36487C0.123192 1.4881 0.199033 1.60049 0.295606 1.69549L8.51386 10.0056L0.295606 18.3137Z" fill="black"/>
</svg>
