<svg width="87" height="21" viewBox="0 0 87 21" fill="none" xmlns="http://www.w3.org/2000/svg">
<path d="M5.60742 5.96094L2.51367 17H0.28125L4.3418 4.20312H5.73047L5.60742 5.96094ZM8.07715 17L4.97461 5.96094L4.8252 4.20312H6.24023L10.3184 17H8.07715ZM8.12988 12.2451V14.0381H2.1709V12.2451H8.12988ZM17.2793 13.6953C17.2793 13.4316 17.25 13.1973 17.1914 12.9922C17.1387 12.7812 17.0361 12.5908 16.8838 12.4209C16.7314 12.251 16.5146 12.084 16.2334 11.9199C15.958 11.7559 15.6006 11.5889 15.1611 11.4189C14.6572 11.2256 14.1855 11.0146 13.7461 10.7861C13.3125 10.5518 12.9287 10.2881 12.5947 9.99512C12.2666 9.69629 12.0088 9.34766 11.8213 8.94922C11.6338 8.55078 11.54 8.08789 11.54 7.56055C11.54 7.03906 11.6309 6.56445 11.8125 6.13672C12 5.70313 12.2637 5.33105 12.6035 5.02051C12.9492 4.7041 13.3594 4.46094 13.834 4.29102C14.3086 4.11523 14.833 4.02734 15.4072 4.02734C16.2334 4.02734 16.9395 4.20312 17.5254 4.55469C18.1172 4.90625 18.5684 5.37793 18.8789 5.96973C19.1953 6.56152 19.3535 7.21777 19.3535 7.93848H17.2266C17.2266 7.52246 17.1621 7.15332 17.0332 6.83105C16.9043 6.50879 16.7051 6.25684 16.4355 6.0752C16.166 5.89355 15.8174 5.80273 15.3896 5.80273C14.9971 5.80273 14.6719 5.87891 14.4141 6.03125C14.1621 6.18359 13.9746 6.3916 13.8516 6.65527C13.7344 6.91895 13.6758 7.2207 13.6758 7.56055C13.6758 7.79492 13.7256 8.00879 13.8252 8.20215C13.9248 8.38965 14.0684 8.5625 14.2559 8.7207C14.4434 8.87891 14.6719 9.02832 14.9414 9.16895C15.2109 9.30957 15.5215 9.44434 15.873 9.57324C16.4707 9.79004 16.9922 10.0303 17.4375 10.2939C17.8828 10.5576 18.249 10.8535 18.5361 11.1816C18.8291 11.5039 19.0459 11.8701 19.1865 12.2803C19.333 12.6904 19.4062 13.1562 19.4062 13.6777C19.4062 14.2051 19.3154 14.6855 19.1338 15.1191C18.958 15.5469 18.7002 15.9131 18.3604 16.2178C18.0205 16.5225 17.6104 16.7598 17.1299 16.9297C16.6494 17.0938 16.1104 17.1758 15.5127 17.1758C14.9619 17.1758 14.4316 17.0938 13.9219 16.9297C13.418 16.7656 12.9668 16.5166 12.5684 16.1826C12.1699 15.8428 11.8535 15.418 11.6191 14.9082C11.3906 14.3984 11.2764 13.8008 11.2764 13.1152H13.4121C13.4121 13.5254 13.4619 13.877 13.5615 14.1699C13.6611 14.457 13.8047 14.6943 13.9922 14.8818C14.1855 15.0635 14.4111 15.1982 14.6689 15.2861C14.9326 15.3682 15.2256 15.4092 15.5479 15.4092C15.9463 15.4092 16.2715 15.3389 16.5234 15.1982C16.7812 15.0518 16.9717 14.8496 17.0947 14.5918C17.2178 14.334 17.2793 14.0352 17.2793 13.6953ZM25.4355 11.2344H22.8252L22.8164 9.59961H25.1279C25.4854 9.59961 25.79 9.5293 26.042 9.38867C26.2939 9.24805 26.4844 9.04297 26.6133 8.77344C26.748 8.50391 26.8154 8.17871 26.8154 7.79785C26.8154 7.37598 26.7568 7.0332 26.6396 6.76953C26.5225 6.5 26.3379 6.30371 26.0859 6.18066C25.8398 6.05762 25.5234 5.99609 25.1367 5.99609H23.458V17H21.3223V4.20312H25.1367C25.7344 4.20312 26.2676 4.27344 26.7363 4.41406C27.2109 4.54883 27.6123 4.75684 27.9404 5.03809C28.2686 5.31934 28.5176 5.67969 28.6875 6.11914C28.8633 6.55273 28.9512 7.06836 28.9512 7.66602C28.9512 8.1875 28.8398 8.66797 28.6172 9.10742C28.3945 9.54102 28.0635 9.89844 27.624 10.1797C27.1904 10.4551 26.6514 10.6191 26.0068 10.6719L25.4355 11.2344ZM25.3564 17H22.1221L23.1064 15.2158H25.3564C25.7373 15.2158 26.0508 15.1338 26.2969 14.9697C26.543 14.8057 26.7275 14.5771 26.8506 14.2842C26.9736 13.9912 27.0352 13.6484 27.0352 13.2559C27.0352 12.8457 26.9824 12.4883 26.877 12.1836C26.7715 11.8789 26.6016 11.6445 26.3672 11.4805C26.1328 11.3164 25.8223 11.2344 25.4355 11.2344H23.2822L23.2998 9.59961H26.0508L26.543 10.2236C27.1582 10.2354 27.6592 10.3877 28.0459 10.6807C28.4326 10.9678 28.7168 11.3398 28.8984 11.7969C29.0801 12.2539 29.1709 12.7432 29.1709 13.2646C29.1709 14.0791 29.0186 14.7646 28.7139 15.3213C28.4092 15.8721 27.9727 16.291 27.4043 16.5781C26.8418 16.8594 26.1592 17 25.3564 17ZM33.0732 4.20312L35.1738 8.76465L37.2217 4.20312H39.6211L36.4219 10.54L39.6914 17H37.2129L35.1035 12.3418L32.9854 17H30.5508L33.8467 10.5137L30.6211 4.20312H33.0732Z" fill="white"/>
<path fill-rule="evenodd" clip-rule="evenodd" d="M46.9996 6.23331C44.3671 6.23331 42.2329 8.36742 42.2329 11C42.2329 13.6325 44.3671 15.7666 46.9996 15.7666C49.6322 15.7666 51.7663 13.6325 51.7663 11C51.7663 8.36742 49.6322 6.23331 46.9996 6.23331ZM41.0996 11C41.0996 7.7415 43.7411 5.09998 46.9996 5.09998C50.2581 5.09998 52.8996 7.7415 52.8996 11C52.8996 14.2585 50.2581 16.9 46.9996 16.9C43.7411 16.9 41.0996 14.2585 41.0996 11Z" fill="#BC2649"/>
<path d="M49.6673 11C49.6673 12.4728 48.4734 13.6667 47.0007 13.6667C45.5279 13.6667 44.334 12.4728 44.334 11C44.334 9.52728 45.5279 8.33337 47.0007 8.33337C48.4734 8.33337 49.6673 9.52728 49.6673 11Z" fill="#BC2649"/>
<path d="M64.8789 9.55566V11.7354C64.8789 12.6377 64.7734 13.4287 64.5625 14.1084C64.3574 14.7881 64.0586 15.3564 63.666 15.8135C63.2793 16.2646 62.8105 16.6045 62.2598 16.833C61.7148 17.0615 61.1055 17.1758 60.4316 17.1758C59.7637 17.1758 59.1543 17.0615 58.6035 16.833C58.0586 16.6045 57.5869 16.2646 57.1885 15.8135C56.7959 15.3564 56.4912 14.7881 56.2744 14.1084C56.0635 13.4287 55.958 12.6377 55.958 11.7354V9.55566C55.958 8.6416 56.0635 7.8418 56.2744 7.15625C56.4854 6.46484 56.7871 5.8877 57.1797 5.4248C57.5781 4.96191 58.0498 4.61328 58.5947 4.37891C59.1455 4.14453 59.752 4.02734 60.4141 4.02734C61.0879 4.02734 61.6973 4.14453 62.2422 4.37891C62.793 4.61328 63.2646 4.96191 63.6572 5.4248C64.0498 5.8877 64.3516 6.46484 64.5625 7.15625C64.7734 7.8418 64.8789 8.6416 64.8789 9.55566ZM62.7607 11.7354V9.53809C62.7607 8.8877 62.708 8.33105 62.6025 7.86816C62.5029 7.39941 62.3535 7.01855 62.1543 6.72559C61.9551 6.42676 61.709 6.20703 61.416 6.06641C61.1289 5.91992 60.7949 5.84668 60.4141 5.84668C60.0449 5.84668 59.7139 5.91992 59.4209 6.06641C59.1338 6.20703 58.8877 6.42676 58.6826 6.72559C58.4834 7.01855 58.3311 7.39941 58.2256 7.86816C58.126 8.33105 58.0762 8.8877 58.0762 9.53809V11.7354C58.0762 12.374 58.1289 12.9248 58.2344 13.3877C58.3398 13.8447 58.4922 14.2197 58.6914 14.5127C58.8965 14.7998 59.1455 15.0137 59.4385 15.1543C59.7314 15.2949 60.0625 15.3652 60.4316 15.3652C60.8066 15.3652 61.1406 15.2949 61.4336 15.1543C61.7266 15.0137 61.9697 14.7998 62.1631 14.5127C62.3623 14.2197 62.5117 13.8447 62.6113 13.3877C62.7109 12.9248 62.7607 12.374 62.7607 11.7354ZM67.0498 4.20312H70.917C71.7607 4.20312 72.4756 4.34961 73.0615 4.64258C73.6475 4.93555 74.0928 5.36914 74.3975 5.94336C74.708 6.51172 74.8633 7.21777 74.8633 8.06152C74.8633 8.7002 74.7666 9.2627 74.5732 9.74902C74.3857 10.2354 74.1133 10.6455 73.7559 10.9795C73.3984 11.3076 72.9678 11.5625 72.4639 11.7441L71.8398 12.0869H68.5703L68.5615 10.2939H70.8643C71.2803 10.2939 71.626 10.2031 71.9014 10.0215C72.1768 9.83984 72.3818 9.58789 72.5166 9.26562C72.6572 8.94336 72.7275 8.57715 72.7275 8.16699C72.7275 7.72754 72.666 7.34668 72.543 7.02441C72.4199 6.69629 72.2266 6.44434 71.9629 6.26855C71.6992 6.08691 71.3506 5.99609 70.917 5.99609H69.1855V17H67.0498V4.20312ZM73.0088 17L70.5742 11.252L72.7979 11.2432L75.2939 16.8857V17H73.0088ZM85.1904 10.4346V15.4795C85.0322 15.6729 84.792 15.9043 84.4697 16.1738C84.1533 16.4375 83.7256 16.6719 83.1865 16.877C82.6533 17.0762 81.9795 17.1758 81.165 17.1758C80.4795 17.1758 79.8525 17.0645 79.2842 16.8418C78.7217 16.6191 78.2383 16.2822 77.834 15.8311C77.4297 15.3799 77.1191 14.8174 76.9023 14.1436C76.6855 13.4639 76.5771 12.6611 76.5771 11.7354V9.45898C76.5771 8.54492 76.6738 7.74805 76.8672 7.06836C77.0664 6.38867 77.3564 5.82324 77.7373 5.37207C78.1182 4.91504 78.5811 4.57813 79.126 4.36133C79.6709 4.13867 80.2979 4.02734 81.0068 4.02734C81.9033 4.02734 82.6504 4.18555 83.248 4.50195C83.8516 4.8125 84.3115 5.27539 84.6279 5.89062C84.9502 6.5 85.1377 7.24414 85.1904 8.12305H83.1074C83.0605 7.58398 82.958 7.14746 82.7998 6.81348C82.6475 6.47363 82.4277 6.22168 82.1406 6.05762C81.8535 5.89355 81.4844 5.81152 81.0332 5.81152C80.623 5.81152 80.2715 5.88184 79.9785 6.02246C79.6855 6.16309 79.4453 6.38281 79.2578 6.68164C79.0703 6.97461 78.9326 7.34961 78.8447 7.80664C78.7568 8.26367 78.7129 8.80859 78.7129 9.44141V11.7354C78.7129 12.3799 78.7686 12.9336 78.8799 13.3965C78.9912 13.8594 79.1523 14.2402 79.3633 14.5391C79.5801 14.832 79.8467 15.0488 80.1631 15.1895C80.4795 15.3242 80.8398 15.3916 81.2441 15.3916C81.6426 15.3916 81.959 15.3506 82.1934 15.2686C82.4277 15.1865 82.6094 15.0957 82.7383 14.9961C82.873 14.8906 82.9814 14.8086 83.0635 14.75V12.1133H80.998V10.4346H85.1904Z" fill="white"/>
</svg>
