<?xml version="1.0" encoding="UTF-8"?>
<svg id="Layer_2" data-name="Layer 2" xmlns="http://www.w3.org/2000/svg" viewBox="0 0 184.89 184.89">
  <defs>
    <style>
      .cls-1 {
        fill: #bc2649;
      }

      .cls-1, .cls-2, .cls-3 {
        stroke-width: 0px;
      }

      .cls-2 {
        fill: #fff;
      }

      .cls-3 {
        fill: #036;
      }
    </style>
  </defs>
  <g id="Layer_1-2" data-name="Layer 1">
    <ellipse class="cls-1" cx="92.44" cy="92.44" rx="89.81" ry="91.8"/>
    <circle class="cls-3" cx="92.44" cy="92.44" r="63.98"/>
    <g>
      <g>
        <path class="cls-2" d="m92.44,147.5c-30.36,0-55.05-24.7-55.05-55.05s24.7-55.05,55.05-55.05,55.05,24.7,55.05,55.05-24.7,55.05-55.05,55.05Zm0-107.11c-28.7,0-52.05,23.35-52.05,52.05s23.35,52.05,52.05,52.05,52.05-23.35,52.05-52.05-23.35-52.05-52.05-52.05Z"/>
        <g>
          <path class="cls-2" d="m92.44,147.49c-.83,0-1.5-.67-1.5-1.5V38.89c0-.83.67-1.5,1.5-1.5s1.5.67,1.5,1.5v107.1c0,.83-.67,1.5-1.5,1.5Z"/>
          <path class="cls-2" d="m146,93.94H38.89c-.83,0-1.5-.67-1.5-1.5s.67-1.5,1.5-1.5h107.11c.83,0,1.5.67,1.5,1.5s-.67,1.5-1.5,1.5Z"/>
        </g>
      </g>
      <g>
        <path class="cls-2" d="m70.23,78.99c-.83,0-1.5-.67-1.5-1.5v-17.97c0-.83.67-1.5,1.5-1.5s1.5.67,1.5,1.5v17.97c0,.83-.67,1.5-1.5,1.5Z"/>
        <path class="cls-2" d="m79.21,70h-17.97c-.83,0-1.5-.67-1.5-1.5s.67-1.5,1.5-1.5h17.97c.83,0,1.5.67,1.5,1.5s-.67,1.5-1.5,1.5Z"/>
      </g>
      <g>
        <path class="cls-2" d="m125.36,65.56h-17.97c-.83,0-1.5-.67-1.5-1.5s.67-1.5,1.5-1.5h17.97c.83,0,1.5.67,1.5,1.5s-.67,1.5-1.5,1.5Z"/>
        <path class="cls-2" d="m125.36,74.45h-17.97c-.83,0-1.5-.67-1.5-1.5s.67-1.5,1.5-1.5h17.97c.83,0,1.5.67,1.5,1.5s-.67,1.5-1.5,1.5Z"/>
      </g>
      <path class="cls-2" d="m79.21,115.49h-17.97c-.83,0-1.5-.67-1.5-1.5s.67-1.5,1.5-1.5h17.97c.83,0,1.5.67,1.5,1.5s-.67,1.5-1.5,1.5Z"/>
      <g>
        <path class="cls-2" d="m122.73,121.84c-.38,0-.77-.15-1.06-.44l-12.71-12.71c-.59-.59-.59-1.54,0-2.12.59-.59,1.54-.59,2.12,0l12.71,12.71c.59.59.59,1.54,0,2.12-.29.29-.68.44-1.06.44Z"/>
        <path class="cls-2" d="m110.02,121.84c-.38,0-.77-.15-1.06-.44-.59-.59-.59-1.54,0-2.12l12.71-12.71c.59-.59,1.54-.59,2.12,0,.59.59.59,1.54,0,2.12l-12.71,12.71c-.29.29-.68.44-1.06.44Z"/>
      </g>
    </g>
    <path class="cls-2" d="m92.44,157.42c-35.83,0-64.98-29.15-64.98-64.98S56.62,27.47,92.44,27.47s64.98,29.15,64.98,64.98-29.15,64.98-64.98,64.98Zm0-127.95c-34.73,0-62.98,28.25-62.98,62.98s28.25,62.98,62.98,62.98,62.98-28.25,62.98-62.98-28.25-62.98-62.98-62.98Z"/>
    <path class="cls-2" d="m92.44,184.89C41.47,184.89,0,143.42,0,92.44S41.47,0,92.44,0s92.44,41.47,92.44,92.44-41.47,92.44-92.44,92.44Zm0-181.89C43.12,3,3,43.12,3,92.44s40.12,89.44,89.44,89.44,89.44-40.12,89.44-89.44S141.76,3,92.44,3Z"/>
    <g>
      <path class="cls-2" d="m19.38,102.59l.56,3.44,2.67.25.43,2.67-13.13-1.88-.37-2.31,11.86-5.96.44,2.7-2.45,1.08Zm-1.63,3.23l-.38-2.33-4.27,1.89,4.65.44Z"/>
      <path class="cls-2" d="m17.96,92.76c-.52.01-.9.16-1.16.42-.26.27-.52.76-.79,1.46-.45,1.28-.99,2.21-1.62,2.78-.63.57-1.39.87-2.27.89-1.07.03-1.93-.33-2.6-1.07-.66-.74-1.01-1.69-1.04-2.86-.02-.78.13-1.47.44-2.09.31-.62.76-1.1,1.35-1.44.59-.34,1.26-.52,2.02-.54l.06,2.55c-.59.01-1.04.15-1.34.41-.3.26-.45.63-.44,1.1.01.45.15.79.42,1.03.27.24.63.36,1.07.35.35,0,.66-.16.93-.44.27-.29.55-.79.84-1.5.42-1.25.94-2.16,1.57-2.73.64-.58,1.45-.88,2.46-.9,1.1-.03,1.97.3,2.61.99.64.69.97,1.63,1,2.84.02.82-.13,1.57-.45,2.25-.32.68-.79,1.22-1.4,1.61-.62.4-1.35.6-2.2.62l-.06-2.56c.73-.02,1.26-.17,1.58-.47.32-.29.48-.76.46-1.4-.02-.89-.51-1.33-1.45-1.3Z"/>
      <path class="cls-2" d="m21.28,88.78l-12.59-1.35.42-3.89c.14-1.31.54-2.28,1.2-2.9.66-.62,1.55-.87,2.68-.75.64.07,1.18.27,1.61.6.43.33.73.75.89,1.27.22-.55.59-.95,1.11-1.2.52-.25,1.14-.34,1.85-.27,1.22.13,2.11.57,2.66,1.3s.76,1.74.62,3.02l-.44,4.17Zm-7.05-3.33l.14-1.32c.11-1-.36-1.55-1.39-1.66-.57-.06-.99.01-1.26.21-.27.2-.44.57-.49,1.08l-.15,1.35,3.15.34Zm1.85.2l3.36.36.17-1.63c.05-.46-.06-.82-.31-1.08-.26-.27-.65-.43-1.16-.48-1.13-.12-1.75.23-1.87,1.04l-.19,1.79Z"/>
      <path class="cls-2" d="m18.62,71.62l-.92,3.88,3.27.77,1.08-4.59,2.06.49-1.68,7.08-12.32-2.92,1.67-7.06,2.07.49-1.08,4.57,2.91.69.92-3.88,2.01.48Z"/>
      <path class="cls-2" d="m23.2,64.93c-.48-.18-.9-.19-1.24-.04-.34.16-.76.51-1.27,1.06-.89,1.02-1.74,1.68-2.54,1.98-.8.3-1.61.29-2.44-.02-1-.37-1.67-1.03-2.01-1.96-.34-.93-.31-1.95.1-3.04.27-.73.67-1.32,1.19-1.78s1.12-.73,1.79-.83c.67-.1,1.37-.01,2.08.25l-.89,2.39c-.55-.21-1.02-.25-1.4-.12-.38.13-.65.42-.82.86-.16.42-.15.79,0,1.12.16.33.45.57.87.72.33.12.67.1,1.03-.06.36-.16.81-.52,1.34-1.08.85-1,1.68-1.65,2.48-1.95.8-.3,1.68-.27,2.61.08,1.03.39,1.72,1.01,2.05,1.89.34.87.29,1.88-.13,3.01-.29.77-.7,1.41-1.25,1.92-.55.51-1.18.84-1.9.97-.72.14-1.48.06-2.28-.24l.9-2.4c.68.25,1.23.31,1.64.16.41-.15.73-.53.95-1.13.31-.84.03-1.42-.86-1.75Z"/>
      <path class="cls-2" d="m22.31,50.32l-1.47,2.76,9.3,4.94-1.2,2.27-9.3-4.94-1.44,2.72-1.88-1,4.11-7.75,1.88,1Z"/>
      <path class="cls-2" d="m33.05,44.27c1.38.99,2.22,2.09,2.51,3.29.29,1.2.02,2.38-.81,3.54-.83,1.15-1.86,1.79-3.09,1.91-1.23.12-2.53-.31-3.9-1.28l-1.76-1.26c-1.41-1.01-2.28-2.13-2.6-3.36-.32-1.22-.07-2.42.77-3.58.82-1.14,1.86-1.77,3.11-1.86,1.25-.1,2.59.35,4,1.35l1.76,1.26Zm-3.22.85c-.93-.67-1.71-1.03-2.35-1.09-.64-.06-1.16.19-1.56.74-.4.55-.47,1.11-.23,1.69.25.58.81,1.19,1.69,1.84l1.83,1.31c.9.65,1.66.99,2.28,1.03.62.04,1.13-.22,1.53-.78.39-.54.47-1.09.24-1.66-.23-.56-.78-1.16-1.65-1.8l-1.79-1.28Z"/>
      <path class="cls-2" d="m39.49,40.07c-.37-.36-.75-.53-1.12-.52-.37,0-.9.16-1.59.47-1.23.58-2.27.85-3.12.8-.85-.05-1.59-.37-2.23-.98-.77-.74-1.13-1.6-1.07-2.6.06-.99.49-1.91,1.3-2.75.54-.56,1.14-.95,1.79-1.16.66-.21,1.32-.23,1.97-.05.66.18,1.26.53,1.81,1.05l-1.76,1.84c-.43-.41-.84-.63-1.24-.66-.4-.03-.76.12-1.09.46-.31.32-.46.66-.44,1.03.02.36.19.7.51,1.01.25.24.58.36.97.35.4,0,.95-.16,1.65-.46,1.18-.58,2.19-.85,3.05-.8.86.05,1.65.42,2.37,1.11.79.76,1.17,1.61,1.13,2.55-.04.94-.48,1.84-1.31,2.71-.57.59-1.2,1.01-1.91,1.26-.71.25-1.42.3-2.13.14-.71-.16-1.38-.53-1.99-1.12l1.78-1.85c.53.51,1.01.77,1.44.79.44.02.88-.2,1.32-.66.62-.64.59-1.29-.09-1.95Z"/>
      <path class="cls-2" d="m63.23,22.8c.58,1.32.7,2.48.35,3.48-.34,1-1.13,1.79-2.35,2.4-1.29.63-2.48.69-3.58.18-1.1-.51-2.03-1.55-2.8-3.11l-.94-1.91c-.77-1.56-1.01-2.94-.71-4.13.29-1.19,1.07-2.1,2.33-2.72,1.24-.61,2.35-.72,3.33-.35.98.38,1.84,1.19,2.56,2.44l-2.3,1.13c-.42-.79-.81-1.28-1.19-1.48-.38-.19-.87-.14-1.47.16-.61.3-.94.73-.99,1.28-.04.55.17,1.33.64,2.32l1.06,2.15c.55,1.13,1.06,1.84,1.52,2.14.46.3,1,.29,1.61,0,.6-.3.95-.65,1.03-1.05.08-.41-.05-1-.39-1.79l2.29-1.13Z"/>
      <path class="cls-2" d="m67.98,23.36l4.25-1.45.69,2.01-6.66,2.28-4.1-11.98,2.42-.83,3.42,9.97Z"/>
      <path class="cls-2" d="m79.51,19.82l-3.42.69-.15,2.67-2.65.54,1.37-13.19,2.29-.46,6.41,11.62-2.68.54-1.18-2.41Zm-3.29-1.51l2.32-.47-2.05-4.19-.27,4.66Z"/>
      <path class="cls-2" d="m86.93,21.5l-2.55.24-1.2-12.6,2.54-.24,1.21,12.6Z"/>
      <path class="cls-2" d="m92.4,8.6l2.14,9.22,2.64-9.09,3.34.09-.35,12.66-2.56-.07.09-3.42.38-5.27-2.77,8.63-1.74-.05-2.29-8.77.09,5.28-.1,3.42-2.55-.07.35-12.66,3.34.09Z"/>
      <path class="cls-2" d="m107.6,19.51c.09-.51.04-.92-.18-1.22-.21-.31-.63-.66-1.27-1.07-1.16-.7-1.96-1.42-2.39-2.16-.43-.74-.56-1.54-.4-2.41.19-1.05.72-1.82,1.58-2.32.86-.5,1.86-.64,3.01-.43.76.14,1.42.43,1.95.86.54.43.92.97,1.13,1.62.21.65.25,1.34.11,2.09l-2.51-.46c.11-.58.06-1.05-.13-1.4-.19-.35-.52-.57-.99-.66-.44-.08-.8-.01-1.1.2-.29.21-.48.54-.56.98-.06.34.02.68.24,1,.22.33.65.7,1.29,1.13,1.13.66,1.92,1.37,2.35,2.11.43.74.56,1.6.37,2.59-.2,1.08-.7,1.87-1.5,2.35-.8.48-1.8.61-2.98.39-.8-.15-1.51-.45-2.11-.9-.6-.45-1.03-1.02-1.29-1.71s-.31-1.45-.16-2.28l2.52.47c-.13.72-.09,1.27.13,1.64.22.38.65.62,1.28.74.88.16,1.4-.22,1.57-1.15Z"/>
      <path class="cls-2" d="m135,30.07c-.8,1.21-1.71,1.93-2.73,2.19-1.02.25-2.12.03-3.29-.67-1.23-.74-1.93-1.7-2.1-2.9-.17-1.2.19-2.55,1.09-4.04l1.09-1.83c.89-1.49,1.92-2.44,3.08-2.84,1.16-.4,2.34-.24,3.55.48,1.18.71,1.88,1.58,2.1,2.61.22,1.03,0,2.19-.66,3.48l-2.2-1.32c.44-.78.64-1.38.59-1.8-.04-.42-.35-.8-.93-1.15-.59-.35-1.13-.4-1.62-.13-.49.26-1.02.86-1.6,1.79l-1.23,2.05c-.65,1.08-.97,1.89-.97,2.44,0,.55.29,1,.88,1.35.58.34,1.06.44,1.45.29.39-.15.82-.58,1.29-1.3l2.19,1.31Z"/>
      <path class="cls-2" d="m140.1,36.15l-2.71-2.19-2.16,1.59-2.1-1.7,11.04-7.36,1.82,1.47-4.86,12.35-2.12-1.72,1.1-2.44Zm-.94-3.5l1.84,1.49,1.92-4.25-3.76,2.77Z"/>
      <path class="cls-2" d="m144.94,41.33l3.1,3.24-1.53,1.47-4.87-5.09,9.15-8.76,1.77,1.85-7.61,7.29Z"/>
      <path class="cls-2" d="m155.74,51.25c-1.2.81-2.32,1.13-3.36.97-1.04-.16-1.97-.79-2.78-1.88-.85-1.15-1.13-2.31-.82-3.49.3-1.17,1.15-2.28,2.56-3.32l1.71-1.27c1.4-1.04,2.71-1.52,3.94-1.45s2.26.67,3.09,1.8c.82,1.11,1.13,2.18.94,3.21-.19,1.03-.84,2.02-1.94,2.96l-1.53-2.06c.7-.55,1.12-1.03,1.24-1.43.12-.4-.02-.88-.42-1.42-.41-.55-.89-.8-1.44-.74s-1.28.4-2.17,1.04l-1.92,1.42c-1.01.75-1.62,1.38-1.83,1.88-.21.5-.11,1.03.3,1.58.4.54.81.82,1.22.83.41,0,.98-.23,1.69-.71l1.52,2.05Z"/>
      <path class="cls-2" d="m168.01,55.91l-7.69,4.2c-1.16.62-2.22.79-3.17.5-.96-.29-1.75-1.02-2.39-2.19-.65-1.19-.84-2.27-.56-3.24.28-.97,1-1.77,2.18-2.41l7.64-4.17,1.23,2.26-7.65,4.18c-.63.34-1.03.69-1.18,1.04-.16.35-.09.79.2,1.33.29.53.63.83,1,.88.38.05.87-.09,1.48-.41l7.68-4.2,1.23,2.24Z"/>
      <path class="cls-2" d="m160.42,65.04l1.64,4.18-1.98.77-2.57-6.56,11.79-4.62.93,2.38-9.81,3.84Z"/>
      <path class="cls-2" d="m164.45,76.44l-.83-3.39-2.68-.04-.65-2.63,13.24.81.56,2.27-11.34,6.9-.65-2.65,2.35-1.28Zm1.37-3.36l.56,2.3,4.1-2.23-4.66-.07Z"/>
      <path class="cls-2" d="m174.06,87.06l-.37-3.11-10.46,1.25-.31-2.55,10.46-1.25-.37-3.06,2.12-.25,1.04,8.71-2.12.25Z"/>
      <path class="cls-2" d="m168.71,98.15c-1.7-.03-3.01-.45-3.94-1.26-.93-.82-1.38-1.94-1.36-3.36.02-1.42.5-2.53,1.44-3.33.94-.8,2.25-1.19,3.93-1.18l2.16.03c1.74.02,3.09.45,4.06,1.27.97.82,1.44,1.95,1.42,3.38-.02,1.41-.52,2.51-1.49,3.31-.97.8-2.32,1.19-4.06,1.18l-2.17-.03Zm2.16-2.53c1.14.02,1.99-.13,2.56-.45.56-.32.85-.82.86-1.5.01-.68-.25-1.18-.78-1.52-.53-.33-1.34-.51-2.44-.54l-2.25-.03c-1.11-.02-1.93.14-2.46.46-.53.32-.8.83-.81,1.52,0,.67.24,1.17.75,1.5s1.3.51,2.38.53l2.2.03Z"/>
      <path class="cls-2" d="m167.34,103.98l.19-1.25-4.57-.71.39-2.53,12.51,1.93-.62,4.03c-.2,1.27-.67,2.19-1.44,2.78-.76.59-1.75.79-2.96.6-1.66-.26-2.73-1.04-3.21-2.35l-5.46,1.4-.12-.02.42-2.72,4.86-1.18Zm2.3-.93l-.22,1.44c-.08.5.03.91.33,1.21s.73.5,1.29.59c1.25.19,1.96-.2,2.11-1.18l.23-1.48-3.73-.58Z"/>
    </g>
    <g>
      <path class="cls-2" d="m39.4,156.93l4.43-3.12-1.08-5.31,4.33,3.25,4.71-2.66-1.75,5.13,3.99,3.66-5.41-.08-2.25,4.93-1.6-5.17-5.38-.62Z"/>
      <path class="cls-2" d="m61.46,171.32l3.09-4.44-2.83-4.62,5.18,1.57,3.52-4.12.11,5.41,5,2.07-5.12,1.78-.43,5.4-3.27-4.32-5.27,1.26Z"/>
      <path class="cls-2" d="m87.11,177.3l1.39-5.23-4.24-3.37,5.41-.3,1.9-5.07,1.95,5.05,5.41.24-4.2,3.42,1.45,5.22-4.55-2.94-4.52,2.99Z"/>
      <path class="cls-2" d="m113.26,174.14l-.49-5.39-5.13-1.72,4.98-2.13.05-5.42,3.56,4.08,5.17-1.63-2.78,4.65,3.14,4.41-5.28-1.2-3.22,4.35Z"/>
      <path class="cls-2" d="m136.76,162.22l-2.3-4.9-5.41.14,3.95-3.7-1.81-5.11,4.74,2.61,4.3-3.29-1.02,5.32,4.46,3.07-5.37.68-1.54,5.19Z"/>
    </g>
  </g>
</svg>