<svg width="14" height="14" viewBox="0 0 14 14" fill="none" xmlns="http://www.w3.org/2000/svg">
<path d="M1.0821 2.76172C1.10032 3.02604 1.18234 3.38151 1.32815 3.82813C1.47396 4.27474 1.68357 4.77148 1.95696 5.31836C2.23947 5.86523 2.58577 6.4349 2.99586 7.02734C3.40595 7.61979 3.88439 8.18945 4.43118 8.73633C4.96886 9.2832 5.52021 9.79818 6.08522 10.2812C6.64112 10.7643 7.16057 11.1882 7.64357 11.5527C8.13568 11.9173 8.56856 12.209 8.9422 12.4277C9.31583 12.6465 9.58467 12.7695 9.74871 12.7969C10.0768 12.8333 10.2955 12.847 10.4049 12.8379C10.5233 12.8288 10.5826 12.8242 10.5826 12.8242C10.6281 12.8333 10.7648 12.7878 10.9927 12.6875C11.2114 12.5872 11.4529 12.4551 11.7172 12.291C11.9814 12.1178 12.232 11.9173 12.469 11.6895C12.7059 11.4616 12.8609 11.2246 12.9338 10.9785C12.6421 10.8418 12.2093 10.623 11.6351 10.3223C11.0701 10.0215 10.6418 9.80274 10.3502 9.66602L8.81917 10.8418L7.28816 9.76172C7.13323 9.67969 6.81427 9.42448 6.33128 8.99609C5.85739 8.56771 5.42452 8.13477 5.03265 7.69727C4.63167 7.25977 4.25803 6.80859 3.91173 6.34375C3.57455 5.87891 3.36494 5.56901 3.28292 5.41406L2.98219 4.8125L3.85705 3.70508L2.7088 1.20313C2.28959 1.35807 1.90684 1.57682 1.56054 1.85938C1.22335 2.14193 1.06387 2.44271 1.0821 2.76172ZM10.0221 14C9.66669 14 9.23837 13.8724 8.73715 13.6172C8.24504 13.3529 7.71192 13.0111 7.13779 12.5918C6.56366 12.1634 5.97131 11.6803 5.36072 11.1426C4.75926 10.6048 4.1669 10.0579 3.58366 9.50195C3.00953 8.95508 2.50375 8.36719 2.06632 7.73828C1.62889 7.11849 1.2598 6.50781 0.959069 5.90625C0.667448 5.30469 0.439619 4.73503 0.275582 4.19727C0.120658 3.66862 0.0295266 3.22201 0.00218716 2.85742C-0.0160392 2.5293 0.079649 2.20573 0.289252 1.88672C0.489741 1.55859 0.749466 1.26693 1.06843 1.01172C1.3965 0.747396 1.75191 0.524089 2.13467 0.341797C2.51742 0.159505 2.88195 0.0455729 3.22825 0L5.15568 3.91016L4.18513 5.03125C4.28537 5.19531 4.55877 5.55078 5.00531 6.09766C5.45186 6.64453 5.8984 7.14583 6.34495 7.60156C6.79149 8.04818 7.25626 8.47656 7.73926 8.88672C8.23137 9.28776 8.55944 9.53386 8.72348 9.625L10.1041 8.59961C10.1041 8.59961 10.2499 8.66341 10.5416 8.79102C10.8332 8.91862 11.1749 9.06901 11.5668 9.24219C11.9587 9.40625 12.3505 9.57943 12.7424 9.76172C13.1342 9.94401 13.4304 10.0853 13.6309 10.1855C13.6309 10.1855 13.6674 10.2174 13.7403 10.2812C13.8132 10.3451 13.877 10.459 13.9317 10.623C13.9772 10.7871 14 10.9056 14 10.9785C14 11.0423 14 11.0742 14 11.0742C13.836 11.776 13.4942 12.3229 12.9748 12.7148C12.4644 13.1068 11.904 13.4395 11.2934 13.7129C11.2934 13.7129 11.2342 13.7357 11.1157 13.7813C10.9972 13.8268 10.8423 13.8724 10.6509 13.918C10.4504 13.9727 10.2955 14 10.1861 14C10.0768 14 10.0221 14 10.0221 14Z" fill="#BC2649"/>
</svg>
