<svg width="14" height="14" viewBox="0 0 14 14" fill="none" xmlns="http://www.w3.org/2000/svg">
<path fill-rule="evenodd" clip-rule="evenodd" d="M9.99435 11.9121C8.99585 12.4994 7.82052 12.8381 6.5625 12.8381C2.93813 12.8381 0 10.0267 0 6.55861C0 3.09054 2.93813 0.279114 6.5625 0.279114C10.1869 0.279114 13.125 3.09054 13.125 6.55861C13.125 7.59483 12.8627 8.57243 12.3982 9.43392L14 13.3963L9.99435 11.9121ZM1.1413 6.55861C1.1413 3.69368 3.56846 1.3712 6.5625 1.3712C9.55654 1.3712 11.9837 3.69368 11.9837 6.55861C11.9837 7.59214 11.6678 8.55507 11.1234 9.36384L11.6013 10.582L11.928 11.4137L11.0832 11.1105L9.86831 10.6703C8.95333 11.3448 7.80688 11.746 6.5625 11.746C3.56846 11.746 1.1413 9.42354 1.1413 6.55861Z" fill="#FF4043"/>
</svg>
