<svg width="22" height="24" viewBox="0 0 22 24" fill="none" xmlns="http://www.w3.org/2000/svg">
<path fill-rule="evenodd" clip-rule="evenodd" d="M9.70493 0H12.0625C14.1142 0 15.7395 0 17.011 0.170791C18.3193 0.347163 19.3786 0.717767 20.2147 1.55274C21.0497 2.38884 21.4203 3.44819 21.5967 4.75647C21.7674 6.02902 21.7674 7.65321 21.7674 9.70493V14.2951C21.7674 16.3468 21.7674 17.9721 21.5967 19.2435C21.4203 20.5518 21.0497 21.6112 20.2147 22.4473C19.3786 23.2822 18.3193 23.6528 17.011 23.8292C15.7384 24 14.1142 24 12.0625 24H9.70493C7.65321 24 6.02791 24 4.75647 23.8292C3.44819 23.6528 2.38884 23.2822 1.55274 22.4473C0.717767 21.6112 0.347163 20.5518 0.170791 19.2435C1.33071e-07 17.971 0 16.3468 0 14.2951V9.70493C0 7.65321 1.33071e-07 6.02791 0.170791 4.75647C0.347163 3.44819 0.717767 2.38884 1.55274 1.55274C2.38884 0.717767 3.44819 0.347163 4.75647 0.170791C6.02902 0 7.65321 0 9.70493 0ZM4.9786 1.8307C3.85563 1.9814 3.20819 2.26493 2.73488 2.73712C2.26381 3.2093 1.98028 3.85674 1.82958 4.97972C1.67553 6.12726 1.6733 7.6387 1.6733 9.76744V14.2326C1.6733 16.3613 1.67553 17.8739 1.82958 19.0214C1.98028 20.1433 2.26381 20.7907 2.736 21.2629C3.20819 21.7351 3.85563 22.0186 4.9786 22.1693C6.12614 22.3234 7.63758 22.3256 9.76633 22.3256H11.9989C14.1276 22.3256 15.6402 22.3234 16.7877 22.1693C17.9096 22.0186 18.557 21.7351 19.0292 21.2629C19.5014 20.7907 19.7849 20.1433 19.9356 19.0203C20.0897 17.8739 20.0919 16.3613 20.0919 14.2326V9.76744C20.0919 7.6387 20.0897 6.12726 19.9356 4.9786C19.7849 3.85674 19.5014 3.2093 19.0292 2.73712C18.557 2.26493 17.9096 1.9814 16.7866 1.8307C15.6402 1.67665 14.1276 1.67442 11.9989 1.67442H9.76633C7.63758 1.67442 6.12726 1.67665 4.9786 1.8307ZM5.5814 9.76744C5.5814 9.5454 5.6696 9.33245 5.82661 9.17545C5.98362 9.01844 6.19656 8.93023 6.4186 8.93023H15.3488C15.5709 8.93023 15.7838 9.01844 15.9408 9.17545C16.0978 9.33245 16.186 9.5454 16.186 9.76744C16.186 9.98948 16.0978 10.2024 15.9408 10.3594C15.7838 10.5164 15.5709 10.6047 15.3488 10.6047H6.4186C6.19656 10.6047 5.98362 10.5164 5.82661 10.3594C5.6696 10.2024 5.5814 9.98948 5.5814 9.76744ZM5.5814 14.2326C5.5814 14.0105 5.6696 13.7976 5.82661 13.6406C5.98362 13.4836 6.19656 13.3953 6.4186 13.3953H12C12.222 13.3953 12.435 13.4836 12.592 13.6406C12.749 13.7976 12.8372 14.0105 12.8372 14.2326C12.8372 14.4546 12.749 14.6675 12.592 14.8246C12.435 14.9816 12.222 15.0698 12 15.0698H6.4186C6.19656 15.0698 5.98362 14.9816 5.82661 14.8246C5.6696 14.6675 5.5814 14.4546 5.5814 14.2326Z" fill="white"/>
</svg>
