<svg width="18" height="18" viewBox="0 0 18 18" fill="none" xmlns="http://www.w3.org/2000/svg">
<path d="M17.0429 11.7761L12.9832 9.95684C12.7993 9.87803 12.5986 9.84634 12.3993 9.86464C12.2 9.88295 12.0085 9.95067 11.842 10.0617C11.8251 10.0725 11.809 10.0846 11.7938 10.0978L9.67204 11.9025C9.65003 11.9145 9.62552 11.9212 9.60046 11.9221C9.5754 11.923 9.55048 11.918 9.52767 11.9076C8.16384 11.2493 6.75103 9.84512 6.09017 8.5002C6.07916 8.47773 6.07344 8.45303 6.07344 8.42801C6.07344 8.40299 6.07916 8.3783 6.09017 8.35582L7.90087 6.20739C7.91386 6.19149 7.92591 6.17485 7.93696 6.15754C8.04644 5.9904 8.11256 5.79862 8.12937 5.59952C8.14617 5.40043 8.11312 5.20028 8.03321 5.01715L6.22681 0.964339C6.12422 0.725097 5.94681 0.525578 5.7212 0.395729C5.49559 0.26588 5.23395 0.212704 4.97556 0.244182C3.85255 0.39182 2.82172 0.943317 2.0757 1.79561C1.32969 2.64791 0.919531 3.74268 0.921885 4.87535C0.921885 11.6043 6.3961 17.0785 13.125 17.0785C14.2576 17.0806 15.3523 16.6704 16.2046 15.9244C17.0568 15.1785 17.6084 14.1477 17.7562 13.0248C17.7876 12.7676 17.7351 12.5072 17.6066 12.2822C17.4781 12.0572 17.2804 11.8797 17.0429 11.7761ZM13.125 16.0472C6.96501 16.0472 1.95314 11.0354 1.95314 4.87535C1.95026 3.99357 2.26853 3.14091 2.84847 2.47668C3.42841 1.81244 4.23035 1.38207 5.10446 1.26598H5.12423C5.15886 1.26663 5.19249 1.27772 5.22071 1.29781C5.24892 1.3179 5.27041 1.34604 5.28235 1.37856L7.09563 5.42707C7.10598 5.44958 7.11133 5.47406 7.11133 5.49883C7.11133 5.5236 7.10598 5.54808 7.09563 5.57059L5.28149 7.72418C5.26796 7.73956 5.25561 7.75593 5.24454 7.77317C5.13102 7.94647 5.06418 8.14614 5.05047 8.35286C5.03677 8.55957 5.07668 8.76632 5.16634 8.95309C5.9286 10.5137 7.50126 12.0743 9.07907 12.8366C9.26693 12.9258 9.47469 12.9647 9.68208 12.9496C9.88948 12.9346 10.0894 12.866 10.2624 12.7507C10.2788 12.7395 10.2951 12.7275 10.3106 12.7146L12.4315 10.9099C12.4524 10.8986 12.4756 10.892 12.4993 10.8906C12.523 10.8891 12.5468 10.8927 12.569 10.9013L16.6295 12.7206C16.6627 12.7347 16.6906 12.7589 16.7093 12.7898C16.7279 12.8206 16.7364 12.8565 16.7335 12.8925C16.618 13.767 16.1881 14.5695 15.524 15.1501C14.8599 15.7307 14.0071 16.0496 13.125 16.0472Z" fill="white"/>
</svg>
