<svg width="114" height="31" viewBox="0 0 114 31" fill="none" xmlns="http://www.w3.org/2000/svg">
<mask id="mask0_1293_3058" style="mask-type:luminance" maskUnits="userSpaceOnUse" x="0" y="0" width="114" height="31">
<path d="M113.675 0.854492H0V30.3091H113.675V0.854492Z" fill="white"/>
</mask>
<g mask="url(#mask0_1293_3058)">
<path d="M30.7695 6.86914H36.7596C40.5618 6.86914 43.0114 10.6652 43.0114 15.8655C43.0114 18.7243 42.2353 21.2397 40.7427 22.7903C39.6861 23.8744 38.3148 24.4919 36.5227 24.4919H30.7695V6.86914ZM36.3233 21.4133C39.0317 21.4133 40.088 19.3687 40.088 15.8655C40.088 12.3626 38.854 9.92463 36.4044 9.92463H33.6585V21.4095H36.3233V21.4133Z" fill="black"/>
<path d="M43.4414 18.1799C43.4414 14.4068 45.6107 11.502 48.7771 11.502C51.9436 11.502 54.1128 14.4107 54.1128 18.1799C54.1128 21.9488 51.9436 24.8579 48.7771 24.8579C45.6107 24.8579 43.4414 21.9488 43.4414 18.1799ZM51.367 18.1799C51.367 15.7147 50.432 14.0404 48.7771 14.0404C47.1222 14.0404 46.1873 15.7147 46.1873 18.1799C46.1873 20.6451 47.1033 22.2961 48.7771 22.2961C50.4506 22.2961 51.367 20.6451 51.367 18.1799Z" fill="black"/>
<path d="M54.6719 18.1799C54.6719 14.4068 56.6634 11.502 59.7707 11.502C62.4199 11.502 64.0529 13.3998 64.4112 16.1352H61.7622C61.5814 15.024 60.8864 14.1871 59.889 14.1871C58.2561 14.1871 57.4208 15.7416 57.4208 18.1799C57.4208 20.6179 58.1969 22.1727 59.8487 22.1727C60.9425 22.1727 61.7216 21.4589 61.8994 20.0279H64.5078C64.3303 22.7128 62.6349 24.8579 59.9079 24.8579C56.6823 24.8579 54.6719 21.9488 54.6719 18.1799Z" fill="black"/>
<path d="M71.6701 24.4917V23.014H71.6107C70.9127 24.1713 70.118 24.8387 68.6842 24.8387C66.4155 24.8387 65.1406 23.0412 65.1406 20.2789V11.8457H67.8304V19.7078C67.8304 21.1855 68.3696 21.9993 69.5225 21.9993C70.7974 21.9993 71.5735 20.8152 71.5735 19.1408V11.8457H74.2816V24.4917H71.6732H71.6701Z" fill="black"/>
<path d="M87.4688 6.94629H90.1769V10.0792H87.4688V6.94629ZM87.4688 11.8498H90.1769V24.4919H87.4688V11.8459V11.8498Z" fill="black"/>
<path d="M91.304 24.8616H93.9938C94.2118 25.6486 94.7915 26.2658 96.0445 26.2658C97.5777 26.2658 98.3132 25.3554 98.3132 23.627V22.2458H98.254C97.6557 23.083 96.8797 23.7235 95.5862 23.7235C93.3175 23.7235 91.0859 21.5052 91.0859 17.6861C91.0859 13.8667 92.9183 11.498 95.5053 11.498C96.78 11.498 97.7149 12.1152 98.3321 13.1724H98.3726V11.8415H100.981V23.523C100.981 25.2975 100.523 26.505 99.7656 27.3693C98.9087 28.3568 97.5966 28.8004 96.0817 28.8004C93.2955 28.8004 91.5814 27.323 91.304 24.8578V24.8616ZM98.4535 17.6167C98.4535 15.7687 97.6557 14.1909 96.0256 14.1909C94.6512 14.1909 93.7349 15.5218 93.7349 17.6397C93.7349 19.7576 94.6513 21.0422 96.0445 21.0422C97.7554 21.0422 98.4535 19.4877 98.4535 17.6167Z" fill="black"/>
<path d="M104.79 13.5696H104.849C105.547 12.2156 106.482 11.498 107.875 11.498C109.985 11.498 111.4 13.4695 111.4 16.2317V24.4875H108.692V16.7216C108.692 15.3674 108.056 14.4029 106.919 14.4029C105.725 14.4029 104.849 15.5874 104.849 17.312V24.4836H102.141V11.8453H104.79V13.5696Z" fill="black"/>
<path d="M81.2992 13.8669C79.1891 13.2999 78.1919 12.8794 78.1919 11.4519C78.1919 10.1942 79.208 9.3804 80.7598 9.3804C82.1781 9.3804 83.2595 10.2019 83.4837 11.8456H86.2609C85.9772 8.42362 83.9265 6.54492 80.7818 6.54492C77.637 6.54492 75.3247 8.34272 75.3247 11.8184C75.3247 15.4911 77.6559 16.3282 80.2021 17.042C82.3713 17.6592 83.7268 18.0026 83.7268 19.7272C83.7268 21.3552 82.4336 21.9954 80.9595 21.9954C78.9274 21.9954 77.952 21.1582 77.7525 19.0365H74.9258C75.0255 22.7593 77.2165 24.8772 81.0778 24.8772C84.2848 24.8772 86.613 22.8789 86.613 19.3067C86.613 15.5106 84.2226 14.6462 81.2961 13.8592L81.2992 13.8669Z" fill="black"/>
<path d="M112.5 14.1844C111.905 14.1844 111.422 13.5862 111.422 12.8491C111.422 12.1119 111.905 11.5137 112.5 11.5137C113.095 11.5137 113.578 12.1119 113.578 12.8491C113.578 13.5862 113.095 14.1844 112.5 14.1844ZM112.5 11.7261C111.998 11.7261 111.593 12.2316 111.593 12.8491C111.593 13.4665 112.002 13.9723 112.5 13.9723C112.999 13.9723 113.407 13.4665 113.407 12.8491C113.407 12.2316 112.999 11.7261 112.5 11.7261Z" fill="black"/>
<path d="M112.129 12.1611H112.481C112.627 12.1611 112.727 12.1611 112.824 12.2616C112.892 12.331 112.945 12.4391 112.945 12.5971C112.945 12.8598 112.789 12.9484 112.727 12.9714L112.973 13.5273H112.737L112.518 13.0216H112.335V13.5273H112.129V12.165V12.1611ZM112.335 12.3812V12.8095H112.406C112.478 12.8095 112.503 12.8095 112.543 12.8057C112.59 12.8057 112.737 12.7939 112.737 12.5933C112.737 12.5626 112.737 12.4621 112.649 12.4081C112.606 12.3812 112.553 12.3812 112.431 12.3812H112.335Z" fill="black"/>
<path d="M23.7952 0.854492H0V30.309H23.7952V0.854492Z" fill="#D5FF00"/>
<path d="M20.4898 23.3574H3.30469V26.2214H20.4898V23.3574Z" fill="black"/>
<path d="M11.8994 21.7182L13.5357 19.6965L18.5097 13.5357L16.8548 11.491L13.0557 16.1975V4.53516H10.74L10.7431 16.1975L6.94087 11.491L5.28906 13.5357L10.2631 19.6965L11.8994 21.7182Z" fill="black"/>
</g>
</svg>
