<svg width="300" height="120" viewBox="0 0 300 120" fill="none" xmlns="http://www.w3.org/2000/svg">
<rect width="300" height="120" rx="4" fill="white"/>
<path opacity="0.5" d="M47.2445 25.3012C46.2705 26.1313 45.7834 26.5463 45.2632 26.895C44.0708 27.6942 42.7317 28.2489 41.3234 28.5269C40.709 28.6482 40.0711 28.6991 38.7953 28.8009L38.7953 28.8009C35.5898 29.0567 33.987 29.1846 32.6498 29.6569C29.557 30.7493 27.1243 33.182 26.0319 36.2748C25.5596 37.612 25.4317 39.2148 25.1759 42.4203L25.1759 42.4203C25.0741 43.6961 25.0232 44.334 24.9019 44.9484C24.6239 46.3567 24.0692 47.6958 23.27 48.8882C22.9213 49.4084 22.5062 49.8955 21.6761 50.8696L21.6761 50.8696C19.5903 53.3171 18.5474 54.5409 17.9359 55.8204C16.5214 58.7798 16.5214 62.2202 17.9359 65.1796C18.5474 66.4591 19.5903 67.6828 21.6761 70.1304L21.6762 70.1305C22.5062 71.1045 22.9213 71.5916 23.27 72.1118C24.0692 73.3042 24.6239 74.6433 24.9019 76.0516C25.0232 76.666 25.0741 77.3039 25.1759 78.5797L25.1759 78.5797C25.4317 81.7852 25.5596 83.388 26.0319 84.7252C27.1243 87.818 29.557 90.2507 32.6498 91.3431C33.987 91.8154 35.5897 91.9433 38.795 92.1991L38.7953 92.1991C40.0711 92.3009 40.709 92.3518 41.3234 92.4731C42.7317 92.7511 44.0708 93.3058 45.2632 94.105C45.7834 94.4537 46.2705 94.8688 47.2446 95.6989C49.6922 97.7847 50.9159 98.8276 52.1954 99.4391C55.1548 100.854 58.5952 100.854 61.5546 99.4391C62.8341 98.8276 64.0578 97.7847 66.5054 95.6989C67.4795 94.8688 67.9666 94.4537 68.4868 94.105C69.6792 93.3058 71.0183 92.7511 72.4266 92.4731C73.041 92.3518 73.6789 92.3009 74.9547 92.1991L74.955 92.1991C78.1603 91.9433 79.763 91.8154 81.1002 91.3431C84.193 90.2507 86.6257 87.818 87.7181 84.7252C88.1904 83.388 88.3183 81.7853 88.5741 78.58L88.5741 78.5797C88.6759 77.3039 88.7268 76.666 88.8481 76.0516C89.1261 74.6433 89.6808 73.3042 90.48 72.1118C90.8287 71.5916 91.2438 71.1045 92.0739 70.1304C94.1597 67.6828 95.2026 66.4591 95.8141 65.1796C97.2286 62.2202 97.2286 58.7798 95.8141 55.8204C95.2026 54.5409 94.1597 53.3172 92.0739 50.8696C91.2438 49.8955 90.8287 49.4084 90.48 48.8882C89.6808 47.6958 89.1261 46.3567 88.8481 44.9484C88.7268 44.334 88.6759 43.6961 88.5741 42.4203L88.5741 42.42C88.3183 39.2147 88.1904 37.612 87.7181 36.2748C86.6257 33.182 84.193 30.7493 81.1002 29.6569C79.763 29.1846 78.1602 29.0567 74.9547 28.8009L74.9547 28.8009C73.6789 28.6991 73.041 28.6482 72.4266 28.5269C71.0183 28.2489 69.6792 27.6942 68.4868 26.895C67.9666 26.5463 67.4795 26.1312 66.5054 25.3011C64.0578 23.2153 62.8341 22.1724 61.5546 21.5609C58.5952 20.1464 55.1548 20.1464 52.1954 21.5609C50.9159 22.1724 49.6921 23.2153 47.2446 25.3011L47.2445 25.3012Z" fill="#048011"/>
<path d="M74.3692 51.948C75.6406 50.6767 75.6406 48.6154 74.3692 47.3441C73.0979 46.0728 71.0367 46.0728 69.7653 47.3441L50.3643 66.7451L43.9851 60.3659C42.7138 59.0946 40.6526 59.0946 39.3812 60.3659C38.1099 61.6372 38.1099 63.6984 39.3812 64.9698L48.0624 73.6509C49.3337 74.9223 51.395 74.9223 52.6663 73.6509L74.3692 51.948Z" fill="white"/>
<path d="M115.361 37.8203L112.305 49.5H109.287L113.73 35.2812H115.615L115.361 37.8203ZM117.773 49.5L114.697 37.8203L114.414 35.2812H116.328L120.811 49.5H117.773ZM117.881 44.1973V46.5703H111.465V44.1973H117.881ZM128.184 45.7598C128.184 45.5059 128.161 45.2747 128.115 45.0664C128.07 44.8581 127.972 44.666 127.822 44.4902C127.679 44.3145 127.467 44.1387 127.188 43.9629C126.914 43.7871 126.556 43.6048 126.113 43.416C125.586 43.1947 125.075 42.9603 124.58 42.7129C124.085 42.459 123.639 42.166 123.242 41.834C122.845 41.502 122.529 41.1113 122.295 40.6621C122.067 40.2064 121.953 39.6725 121.953 39.0605C121.953 38.4616 122.061 37.918 122.275 37.4297C122.497 36.9414 122.809 36.5247 123.213 36.1797C123.617 35.8281 124.089 35.5579 124.629 35.3691C125.176 35.1803 125.785 35.0859 126.455 35.0859C127.367 35.0859 128.154 35.2747 128.818 35.6523C129.489 36.0299 130.007 36.5475 130.371 37.2051C130.742 37.8626 130.928 38.6178 130.928 39.4707H128.076C128.076 39.0671 128.018 38.7122 127.9 38.4062C127.79 38.0938 127.611 37.8496 127.363 37.6738C127.116 37.498 126.797 37.4102 126.406 37.4102C126.042 37.4102 125.739 37.485 125.498 37.6348C125.264 37.778 125.088 37.9766 124.971 38.2305C124.86 38.4779 124.805 38.7578 124.805 39.0703C124.805 39.3047 124.86 39.5163 124.971 39.7051C125.088 39.8874 125.247 40.0534 125.449 40.2031C125.651 40.3464 125.889 40.4863 126.162 40.623C126.442 40.7598 126.748 40.8932 127.08 41.0234C127.725 41.2773 128.294 41.5573 128.789 41.8633C129.284 42.1628 129.697 42.5013 130.029 42.8789C130.361 43.25 130.612 43.6699 130.781 44.1387C130.951 44.6074 131.035 45.1413 131.035 45.7402C131.035 46.3327 130.931 46.873 130.723 47.3613C130.521 47.8431 130.225 48.2598 129.834 48.6113C129.443 48.9564 128.971 49.2233 128.418 49.4121C127.871 49.6009 127.259 49.6953 126.582 49.6953C125.924 49.6953 125.303 49.6042 124.717 49.4219C124.131 49.2331 123.613 48.9499 123.164 48.5723C122.721 48.1882 122.373 47.7031 122.119 47.1172C121.865 46.5247 121.738 45.8249 121.738 45.0176H124.6C124.6 45.4473 124.642 45.8151 124.727 46.1211C124.811 46.4206 124.941 46.6615 125.117 46.8438C125.293 47.0195 125.508 47.153 125.762 47.2441C126.022 47.3288 126.318 47.3711 126.65 47.3711C127.028 47.3711 127.327 47.2995 127.549 47.1562C127.777 47.013 127.939 46.821 128.037 46.5801C128.135 46.3392 128.184 46.0658 128.184 45.7598ZM137.764 43.2988H134.854L134.844 41.2285H137.324C137.715 41.2285 138.034 41.1634 138.281 41.0332C138.535 40.8965 138.721 40.6979 138.838 40.4375C138.962 40.1706 139.023 39.8483 139.023 39.4707C139.023 39.0345 138.968 38.6862 138.857 38.4258C138.747 38.1589 138.568 37.9635 138.32 37.8398C138.073 37.7161 137.751 37.6543 137.354 37.6543H135.83V49.5H132.969V35.2812H137.354C138.063 35.2812 138.698 35.3594 139.258 35.5156C139.818 35.6719 140.293 35.9095 140.684 36.2285C141.074 36.5475 141.37 36.9512 141.572 37.4395C141.781 37.9277 141.885 38.5039 141.885 39.168C141.885 39.7539 141.768 40.2943 141.533 40.7891C141.299 41.2839 140.931 41.6875 140.43 42C139.935 42.3125 139.287 42.4883 138.486 42.5273L137.764 43.2988ZM137.666 49.5H134.043L135.186 47.1367H137.666C138.044 47.1367 138.35 47.0553 138.584 46.8926C138.818 46.7298 138.988 46.5117 139.092 46.2383C139.196 45.9583 139.248 45.6393 139.248 45.2812C139.248 44.8776 139.199 44.526 139.102 44.2266C139.01 43.9271 138.857 43.6992 138.643 43.543C138.428 43.3802 138.138 43.2988 137.773 43.2988H135.312L135.332 41.2285H138.32L138.994 42.0488C139.756 42.0228 140.365 42.1693 140.82 42.4883C141.276 42.8008 141.602 43.2109 141.797 43.7188C141.999 44.2201 142.1 44.7539 142.1 45.3203C142.1 46.2318 141.927 47 141.582 47.625C141.243 48.2435 140.745 48.7122 140.088 49.0312C139.43 49.3438 138.623 49.5 137.666 49.5ZM146.719 35.2812L148.75 40.0273L150.684 35.2812H153.838L150.41 42.3223L153.906 49.5H150.625L148.604 44.6465L146.582 49.5H143.369L146.924 42.2637L143.447 35.2812H146.719ZM155.479 48.1035C155.479 47.6738 155.622 47.3158 155.908 47.0293C156.195 46.7363 156.582 46.5898 157.07 46.5898C157.559 46.5898 157.946 46.7363 158.232 47.0293C158.519 47.3158 158.662 47.6738 158.662 48.1035C158.662 48.5332 158.519 48.8913 158.232 49.1777C157.946 49.4642 157.559 49.6074 157.07 49.6074C156.582 49.6074 156.195 49.4642 155.908 49.1777C155.622 48.8913 155.479 48.5332 155.479 48.1035ZM171.201 41.2871V43.6602C171.201 44.6628 171.077 45.5417 170.83 46.2969C170.589 47.0456 170.244 47.6738 169.795 48.1816C169.352 48.6829 168.815 49.0605 168.184 49.3145C167.559 49.5684 166.865 49.6953 166.104 49.6953C165.342 49.6953 164.645 49.5684 164.014 49.3145C163.389 49.0605 162.848 48.6829 162.393 48.1816C161.943 47.6738 161.595 47.0456 161.348 46.2969C161.1 45.5417 160.977 44.6628 160.977 43.6602V41.2871C160.977 40.2585 161.097 39.36 161.338 38.5918C161.579 37.8171 161.927 37.1725 162.383 36.6582C162.839 36.1374 163.379 35.7467 164.004 35.4863C164.629 35.2194 165.322 35.0859 166.084 35.0859C166.846 35.0859 167.539 35.2194 168.164 35.4863C168.789 35.7467 169.329 36.1374 169.785 36.6582C170.241 37.1725 170.589 37.8171 170.83 38.5918C171.077 39.36 171.201 40.2585 171.201 41.2871ZM168.359 43.6602V41.2676C168.359 40.5905 168.311 40.0143 168.213 39.5391C168.115 39.0573 167.969 38.6634 167.773 38.3574C167.578 38.0514 167.34 37.8268 167.061 37.6836C166.781 37.5404 166.455 37.4688 166.084 37.4688C165.713 37.4688 165.384 37.5404 165.098 37.6836C164.818 37.8268 164.58 38.0514 164.385 38.3574C164.196 38.6634 164.053 39.0573 163.955 39.5391C163.864 40.0143 163.818 40.5905 163.818 41.2676V43.6602C163.818 44.3112 163.867 44.8678 163.965 45.3301C164.062 45.7923 164.209 46.1699 164.404 46.4629C164.6 46.7559 164.837 46.974 165.117 47.1172C165.404 47.2539 165.732 47.3223 166.104 47.3223C166.468 47.3223 166.79 47.2539 167.07 47.1172C167.357 46.974 167.594 46.7559 167.783 46.4629C167.972 46.1699 168.115 45.7923 168.213 45.3301C168.311 44.8678 168.359 44.3112 168.359 43.6602ZM173.291 35.2812H177.852C178.802 35.2812 179.613 35.444 180.283 35.7695C180.954 36.0951 181.468 36.5768 181.826 37.2148C182.184 37.8529 182.363 38.6406 182.363 39.5781C182.363 40.3464 182.259 41.0039 182.051 41.5508C181.842 42.0911 181.546 42.5436 181.162 42.9082C180.778 43.2663 180.319 43.5527 179.785 43.7676L178.916 44.2852H175.215L175.205 41.9121H177.773C178.164 41.9121 178.486 41.8275 178.74 41.6582C179.001 41.4824 179.193 41.2383 179.316 40.9258C179.447 40.6068 179.512 40.2357 179.512 39.8125C179.512 39.3633 179.453 38.9792 179.336 38.6602C179.225 38.3346 179.046 38.0872 178.799 37.918C178.558 37.7422 178.242 37.6543 177.852 37.6543H176.152V49.5H173.291V35.2812ZM179.746 49.5L177.139 43.1621L180.137 43.1523L182.803 49.3633V49.5H179.746ZM194.014 42.0293V47.8887C193.812 48.1035 193.516 48.3542 193.125 48.6406C192.741 48.9206 192.236 49.168 191.611 49.3828C190.993 49.5911 190.238 49.6953 189.346 49.6953C188.558 49.6953 187.842 49.5716 187.197 49.3242C186.559 49.0768 186.009 48.7025 185.547 48.2012C185.091 47.6934 184.743 47.0618 184.502 46.3066C184.261 45.5449 184.141 44.6432 184.141 43.6016V41.1797C184.141 40.151 184.255 39.2559 184.482 38.4941C184.717 37.7259 185.055 37.0879 185.498 36.5801C185.941 36.0723 186.468 35.6947 187.08 35.4473C187.699 35.1999 188.395 35.0762 189.17 35.0762C190.238 35.0762 191.113 35.2552 191.797 35.6133C192.487 35.9714 193.008 36.502 193.359 37.2051C193.717 37.9082 193.932 38.7708 194.004 39.793H191.24C191.195 39.194 191.094 38.7253 190.938 38.3867C190.788 38.0482 190.576 37.8073 190.303 37.6641C190.029 37.5143 189.674 37.4395 189.238 37.4395C188.861 37.4395 188.532 37.5078 188.252 37.6445C187.972 37.7747 187.738 37.9896 187.549 38.2891C187.36 38.5885 187.22 38.9727 187.129 39.4414C187.038 39.9102 186.992 40.4831 186.992 41.1602V43.6016C186.992 44.2721 187.044 44.8451 187.148 45.3203C187.253 45.7956 187.406 46.1829 187.607 46.4824C187.816 46.7819 188.076 47 188.389 47.1367C188.708 47.2669 189.082 47.332 189.512 47.332C189.857 47.332 190.133 47.2962 190.342 47.2246C190.55 47.153 190.716 47.0781 190.84 47C190.97 46.9154 191.077 46.8503 191.162 46.8047V44.1875H189.121V42.0293H194.014Z" fill="#BC2649"/>
<path d="M113.469 66.3906L115.891 57.125H117.945L114.547 68.5H113.141L113.469 66.3906ZM111.352 57.125L113.758 66.3906L114.109 68.5H112.703L109.305 57.125H111.352ZM125.586 66.9141V68.5H120.648V66.9141H125.586ZM121.148 57.125V68.5H119.25V57.125H121.148ZM124.922 61.8594V63.4219H120.648V61.8594H124.922ZM125.539 57.125V58.7188H120.648V57.125H125.539ZM127.164 57.125H130.602C131.352 57.125 131.987 57.2552 132.508 57.5156C133.029 57.776 133.424 58.1615 133.695 58.6719C133.971 59.1771 134.109 59.8047 134.109 60.5547C134.109 61.1224 134.023 61.6224 133.852 62.0547C133.685 62.487 133.443 62.8516 133.125 63.1484C132.807 63.4401 132.424 63.6667 131.977 63.8281L131.422 64.1328H128.516L128.508 62.5391H130.555C130.924 62.5391 131.232 62.4583 131.477 62.2969C131.721 62.1354 131.904 61.9115 132.023 61.625C132.148 61.3385 132.211 61.013 132.211 60.6484C132.211 60.2578 132.156 59.9193 132.047 59.6328C131.938 59.3411 131.766 59.1172 131.531 58.9609C131.297 58.7995 130.987 58.7188 130.602 58.7188H129.062V68.5H127.164V57.125ZM132.461 68.5L130.297 63.3906L132.273 63.3828L134.492 68.3984V68.5H132.461ZM137.82 57.125V68.5H135.922V57.125H137.82ZM141.914 57.125V68.5H140.016V57.125H141.914ZM145.602 62.0859V63.6797H141.477V62.0859H145.602ZM146.133 57.125V58.7188H141.477V57.125H146.133ZM149.648 57.125V68.5H147.75V57.125H149.648ZM158.18 66.9141V68.5H153.242V66.9141H158.18ZM153.742 57.125V68.5H151.844V57.125H153.742ZM157.516 61.8594V63.4219H153.242V61.8594H157.516ZM158.133 57.125V58.7188H153.242V57.125H158.133ZM162.539 68.5H160.562L160.578 66.9141H162.539C163.148 66.9141 163.635 66.8021 164 66.5781C164.365 66.349 164.628 66 164.789 65.5312C164.951 65.0625 165.031 64.4635 165.031 63.7344V61.8828C165.031 61.3203 164.984 60.8411 164.891 60.4453C164.802 60.0443 164.661 59.7188 164.469 59.4688C164.281 59.2135 164.034 59.026 163.727 58.9062C163.419 58.7812 163.049 58.7188 162.617 58.7188H160.523V57.125H162.617C163.268 57.125 163.857 57.2292 164.383 57.4375C164.909 57.6458 165.359 57.9531 165.734 58.3594C166.115 58.7604 166.406 59.2578 166.609 59.8516C166.812 60.4453 166.914 61.1276 166.914 61.8984V63.7344C166.914 64.5052 166.812 65.1875 166.609 65.7812C166.406 66.3698 166.115 66.8672 165.734 67.2734C165.354 67.6745 164.896 67.9792 164.359 68.1875C163.823 68.3958 163.216 68.5 162.539 68.5ZM161.648 57.125V68.5H159.75V57.125H161.648ZM173.18 57.125H174.906L177.523 65.5859L180.133 57.125H181.734L178.234 68.5H176.805L173.18 57.125ZM172.531 57.125H174.125L174.383 64.3672V68.5H172.531V57.125ZM180.906 57.125H182.508V68.5H180.656V64.3672L180.906 57.125ZM190.977 66.9141V68.5H186.039V66.9141H190.977ZM186.539 57.125V68.5H184.641V57.125H186.539ZM190.312 61.8594V63.4219H186.039V61.8594H190.312ZM190.93 57.125V58.7188H186.039V57.125H190.93ZM197.438 65.5625C197.438 65.3281 197.411 65.1198 197.359 64.9375C197.312 64.75 197.221 64.5807 197.086 64.4297C196.951 64.2786 196.758 64.1302 196.508 63.9844C196.263 63.8385 195.945 63.6901 195.555 63.5391C195.107 63.3672 194.688 63.1797 194.297 62.9766C193.911 62.7682 193.57 62.5339 193.273 62.2734C192.982 62.0078 192.753 61.6979 192.586 61.3438C192.419 60.9896 192.336 60.5781 192.336 60.1094C192.336 59.6458 192.417 59.224 192.578 58.8438C192.745 58.4583 192.979 58.1276 193.281 57.8516C193.589 57.5703 193.953 57.3542 194.375 57.2031C194.797 57.0469 195.263 56.9688 195.773 56.9688C196.508 56.9688 197.135 57.125 197.656 57.4375C198.182 57.75 198.583 58.1693 198.859 58.6953C199.141 59.2214 199.281 59.8047 199.281 60.4453H197.391C197.391 60.0755 197.333 59.7474 197.219 59.4609C197.104 59.1745 196.927 58.9505 196.688 58.7891C196.448 58.6276 196.138 58.5469 195.758 58.5469C195.409 58.5469 195.12 58.6146 194.891 58.75C194.667 58.8854 194.5 59.0703 194.391 59.3047C194.286 59.5391 194.234 59.8073 194.234 60.1094C194.234 60.3177 194.279 60.5078 194.367 60.6797C194.456 60.8464 194.583 61 194.75 61.1406C194.917 61.2812 195.12 61.4141 195.359 61.5391C195.599 61.6641 195.875 61.7839 196.188 61.8984C196.719 62.0911 197.182 62.3047 197.578 62.5391C197.974 62.7734 198.299 63.0365 198.555 63.3281C198.815 63.6146 199.008 63.9401 199.133 64.3047C199.263 64.6693 199.328 65.0833 199.328 65.5469C199.328 66.0156 199.247 66.4427 199.086 66.8281C198.93 67.2083 198.701 67.5339 198.398 67.8047C198.096 68.0755 197.732 68.2865 197.305 68.4375C196.878 68.5833 196.398 68.6562 195.867 68.6562C195.378 68.6562 194.906 68.5833 194.453 68.4375C194.005 68.2917 193.604 68.0703 193.25 67.7734C192.896 67.4714 192.615 67.0938 192.406 66.6406C192.203 66.1875 192.102 65.6562 192.102 65.0469H194C194 65.4115 194.044 65.724 194.133 65.9844C194.221 66.2396 194.349 66.4505 194.516 66.6172C194.688 66.7786 194.888 66.8984 195.117 66.9766C195.352 67.0495 195.612 67.0859 195.898 67.0859C196.253 67.0859 196.542 67.0234 196.766 66.8984C196.995 66.7682 197.164 66.5885 197.273 66.3594C197.383 66.1302 197.438 65.8646 197.438 65.5625ZM208.75 61.8828V63.8203C208.75 64.6224 208.656 65.3255 208.469 65.9297C208.286 66.5339 208.021 67.0391 207.672 67.4453C207.328 67.8464 206.911 68.1484 206.422 68.3516C205.938 68.5547 205.396 68.6562 204.797 68.6562C204.203 68.6562 203.661 68.5547 203.172 68.3516C202.688 68.1484 202.268 67.8464 201.914 67.4453C201.565 67.0391 201.294 66.5339 201.102 65.9297C200.914 65.3255 200.82 64.6224 200.82 63.8203V61.8828C200.82 61.0703 200.914 60.3594 201.102 59.75C201.289 59.1354 201.557 58.6224 201.906 58.2109C202.26 57.7995 202.68 57.4896 203.164 57.2812C203.654 57.0729 204.193 56.9688 204.781 56.9688C205.38 56.9688 205.922 57.0729 206.406 57.2812C206.896 57.4896 207.315 57.7995 207.664 58.2109C208.013 58.6224 208.281 59.1354 208.469 59.75C208.656 60.3594 208.75 61.0703 208.75 61.8828ZM206.867 63.8203V61.8672C206.867 61.2891 206.82 60.7943 206.727 60.3828C206.638 59.9661 206.505 59.6276 206.328 59.3672C206.151 59.1016 205.932 58.9062 205.672 58.7812C205.417 58.651 205.12 58.5859 204.781 58.5859C204.453 58.5859 204.159 58.651 203.898 58.7812C203.643 58.9062 203.424 59.1016 203.242 59.3672C203.065 59.6276 202.93 59.9661 202.836 60.3828C202.747 60.7943 202.703 61.2891 202.703 61.8672V63.8203C202.703 64.388 202.75 64.8776 202.844 65.2891C202.938 65.6953 203.073 66.0286 203.25 66.2891C203.432 66.5443 203.654 66.7344 203.914 66.8594C204.174 66.9844 204.469 67.0469 204.797 67.0469C205.13 67.0469 205.427 66.9844 205.688 66.8594C205.948 66.7344 206.164 66.5443 206.336 66.2891C206.513 66.0286 206.646 65.6953 206.734 65.2891C206.823 64.8776 206.867 64.388 206.867 63.8203ZM214.352 57.125V68.5H212.461V57.125H214.352ZM217.25 57.125V58.7188H209.594V57.125H217.25ZM224.992 61.8594V63.4531H220.203V61.8594H224.992ZM220.648 57.125V68.5H218.75V57.125H220.648ZM226.477 57.125V68.5H224.586V57.125H226.477ZM234.961 66.9141V68.5H230.023V66.9141H234.961ZM230.523 57.125V68.5H228.625V57.125H230.523ZM234.297 61.8594V63.4219H230.023V61.8594H234.297ZM234.914 57.125V58.7188H230.023V57.125H234.914ZM242.656 66.9141V68.5H237.93V66.9141H242.656ZM238.43 57.125V68.5H236.531V57.125H238.43ZM246.148 57.125V68.5H244.25V57.125H246.148ZM256.062 61.8828V63.8203C256.062 64.6224 255.969 65.3255 255.781 65.9297C255.599 66.5339 255.333 67.0391 254.984 67.4453C254.641 67.8464 254.224 68.1484 253.734 68.3516C253.25 68.5547 252.708 68.6562 252.109 68.6562C251.516 68.6562 250.974 68.5547 250.484 68.3516C250 68.1484 249.581 67.8464 249.227 67.4453C248.878 67.0391 248.607 66.5339 248.414 65.9297C248.227 65.3255 248.133 64.6224 248.133 63.8203V61.8828C248.133 61.0703 248.227 60.3594 248.414 59.75C248.602 59.1354 248.87 58.6224 249.219 58.2109C249.573 57.7995 249.992 57.4896 250.477 57.2812C250.966 57.0729 251.505 56.9688 252.094 56.9688C252.693 56.9688 253.234 57.0729 253.719 57.2812C254.208 57.4896 254.628 57.7995 254.977 58.2109C255.326 58.6224 255.594 59.1354 255.781 59.75C255.969 60.3594 256.062 61.0703 256.062 61.8828ZM254.18 63.8203V61.8672C254.18 61.2891 254.133 60.7943 254.039 60.3828C253.951 59.9661 253.818 59.6276 253.641 59.3672C253.464 59.1016 253.245 58.9062 252.984 58.7812C252.729 58.651 252.432 58.5859 252.094 58.5859C251.766 58.5859 251.471 58.651 251.211 58.7812C250.956 58.9062 250.737 59.1016 250.555 59.3672C250.378 59.6276 250.242 59.9661 250.148 60.3828C250.06 60.7943 250.016 61.2891 250.016 61.8672V63.8203C250.016 64.388 250.062 64.8776 250.156 65.2891C250.25 65.6953 250.385 66.0286 250.562 66.2891C250.745 66.5443 250.966 66.7344 251.227 66.8594C251.487 66.9844 251.781 67.0469 252.109 67.0469C252.443 67.0469 252.74 66.9844 253 66.8594C253.26 66.7344 253.477 66.5443 253.648 66.2891C253.826 66.0286 253.958 65.6953 254.047 65.2891C254.135 64.8776 254.18 64.388 254.18 63.8203ZM258.633 57.125H260.359L262.977 65.5859L265.586 57.125H267.188L263.688 68.5H262.258L258.633 57.125ZM257.984 57.125H259.578L259.836 64.3672V68.5H257.984V57.125ZM266.359 57.125H267.961V68.5H266.109V64.3672L266.359 57.125ZM274.156 58.6875L271.406 68.5H269.422L273.031 57.125H274.266L274.156 58.6875ZM276.352 68.5L273.594 58.6875L273.461 57.125H274.719L278.344 68.5H276.352ZM276.398 64.2734V65.8672H271.102V64.2734H276.398ZM115.672 83.7891H117.562C117.526 84.612 117.359 85.3125 117.062 85.8906C116.766 86.4635 116.339 86.901 115.781 87.2031C115.229 87.5052 114.555 87.6562 113.758 87.6562C113.154 87.6562 112.612 87.5469 112.133 87.3281C111.659 87.1094 111.255 86.7943 110.922 86.3828C110.589 85.9661 110.333 85.4583 110.156 84.8594C109.984 84.2604 109.898 83.5807 109.898 82.8203V80.8047C109.898 80.0443 109.987 79.3646 110.164 78.7656C110.346 78.1667 110.607 77.6589 110.945 77.2422C111.284 76.8255 111.695 76.5104 112.18 76.2969C112.669 76.0781 113.221 75.9688 113.836 75.9688C114.622 75.9688 115.284 76.1198 115.82 76.4219C116.357 76.724 116.771 77.1667 117.062 77.75C117.354 78.3333 117.523 79.0443 117.57 79.8828H115.68C115.654 79.3151 115.576 78.862 115.445 78.5234C115.32 78.1797 115.128 77.9323 114.867 77.7812C114.612 77.6302 114.268 77.5547 113.836 77.5547C113.477 77.5547 113.167 77.6224 112.906 77.7578C112.651 77.8932 112.44 78.0964 112.273 78.3672C112.112 78.6328 111.99 78.9688 111.906 79.375C111.828 79.776 111.789 80.2474 111.789 80.7891V82.8203C111.789 83.3411 111.823 83.8021 111.891 84.2031C111.958 84.6042 112.068 84.9453 112.219 85.2266C112.37 85.5026 112.57 85.7135 112.82 85.8594C113.07 86 113.383 86.0703 113.758 86.0703C114.206 86.0703 114.562 86 114.828 85.8594C115.099 85.7188 115.299 85.4818 115.43 85.1484C115.56 84.8151 115.641 84.362 115.672 83.7891ZM126.953 80.8828V82.8203C126.953 83.6224 126.859 84.3255 126.672 84.9297C126.49 85.5339 126.224 86.0391 125.875 86.4453C125.531 86.8464 125.115 87.1484 124.625 87.3516C124.141 87.5547 123.599 87.6562 123 87.6562C122.406 87.6562 121.865 87.5547 121.375 87.3516C120.891 87.1484 120.471 86.8464 120.117 86.4453C119.768 86.0391 119.497 85.5339 119.305 84.9297C119.117 84.3255 119.023 83.6224 119.023 82.8203V80.8828C119.023 80.0703 119.117 79.3594 119.305 78.75C119.492 78.1354 119.76 77.6224 120.109 77.2109C120.464 76.7995 120.883 76.4896 121.367 76.2812C121.857 76.0729 122.396 75.9688 122.984 75.9688C123.583 75.9688 124.125 76.0729 124.609 76.2812C125.099 76.4896 125.518 76.7995 125.867 77.2109C126.216 77.6224 126.484 78.1354 126.672 78.75C126.859 79.3594 126.953 80.0703 126.953 80.8828ZM125.07 82.8203V80.8672C125.07 80.2891 125.023 79.7943 124.93 79.3828C124.841 78.9661 124.708 78.6276 124.531 78.3672C124.354 78.1016 124.135 77.9062 123.875 77.7812C123.62 77.651 123.323 77.5859 122.984 77.5859C122.656 77.5859 122.362 77.651 122.102 77.7812C121.846 77.9062 121.628 78.1016 121.445 78.3672C121.268 78.6276 121.133 78.9661 121.039 79.3828C120.951 79.7943 120.906 80.2891 120.906 80.8672V82.8203C120.906 83.388 120.953 83.8776 121.047 84.2891C121.141 84.6953 121.276 85.0286 121.453 85.2891C121.635 85.5443 121.857 85.7344 122.117 85.8594C122.378 85.9844 122.672 86.0469 123 86.0469C123.333 86.0469 123.63 85.9844 123.891 85.8594C124.151 85.7344 124.367 85.5443 124.539 85.2891C124.716 85.0286 124.849 84.6953 124.938 84.2891C125.026 83.8776 125.07 83.388 125.07 82.8203ZM129.523 76.125H131.25L133.867 84.5859L136.477 76.125H138.078L134.578 87.5H133.148L129.523 76.125ZM128.875 76.125H130.469L130.727 83.3672V87.5H128.875V76.125ZM137.25 76.125H138.852V87.5H137V83.3672L137.25 76.125ZM144.742 83.2812H142.344V81.6953H144.742C145.133 81.6953 145.448 81.612 145.688 81.4453C145.932 81.2786 146.109 81.0495 146.219 80.7578C146.333 80.4661 146.391 80.1354 146.391 79.7656C146.391 79.4115 146.333 79.0781 146.219 78.7656C146.109 78.4531 145.935 78.2005 145.695 78.0078C145.456 77.8151 145.138 77.7188 144.742 77.7188H142.875V87.5H140.984V76.125H144.742C145.492 76.125 146.133 76.2812 146.664 76.5938C147.195 76.9062 147.602 77.3359 147.883 77.8828C148.164 78.4245 148.305 79.0469 148.305 79.75C148.305 80.4844 148.164 81.1146 147.883 81.6406C147.602 82.1667 147.195 82.5729 146.664 82.8594C146.133 83.1406 145.492 83.2812 144.742 83.2812ZM156.32 85.9141V87.5H151.383V85.9141H156.32ZM151.883 76.125V87.5H149.984V76.125H151.883ZM155.656 80.8594V82.4219H151.383V80.8594H155.656ZM156.273 76.125V77.7188H151.383V76.125H156.273ZM165.602 76.125V87.5H163.742L159.727 79.625V87.5H157.891V76.125H159.727L163.773 84.0547V76.125H165.602ZM172.641 84.5625C172.641 84.3281 172.615 84.1198 172.562 83.9375C172.516 83.75 172.424 83.5807 172.289 83.4297C172.154 83.2786 171.961 83.1302 171.711 82.9844C171.466 82.8385 171.148 82.6901 170.758 82.5391C170.31 82.3672 169.891 82.1797 169.5 81.9766C169.115 81.7682 168.773 81.5339 168.477 81.2734C168.185 81.0078 167.956 80.6979 167.789 80.3438C167.622 79.9896 167.539 79.5781 167.539 79.1094C167.539 78.6458 167.62 78.224 167.781 77.8438C167.948 77.4583 168.182 77.1276 168.484 76.8516C168.792 76.5703 169.156 76.3542 169.578 76.2031C170 76.0469 170.466 75.9688 170.977 75.9688C171.711 75.9688 172.339 76.125 172.859 76.4375C173.385 76.75 173.786 77.1693 174.062 77.6953C174.344 78.2214 174.484 78.8047 174.484 79.4453H172.594C172.594 79.0755 172.536 78.7474 172.422 78.4609C172.307 78.1745 172.13 77.9505 171.891 77.7891C171.651 77.6276 171.341 77.5469 170.961 77.5469C170.612 77.5469 170.323 77.6146 170.094 77.75C169.87 77.8854 169.703 78.0703 169.594 78.3047C169.49 78.5391 169.438 78.8073 169.438 79.1094C169.438 79.3177 169.482 79.5078 169.57 79.6797C169.659 79.8464 169.786 80 169.953 80.1406C170.12 80.2812 170.323 80.4141 170.562 80.5391C170.802 80.6641 171.078 80.7839 171.391 80.8984C171.922 81.0911 172.385 81.3047 172.781 81.5391C173.177 81.7734 173.503 82.0365 173.758 82.3281C174.018 82.6146 174.211 82.9401 174.336 83.3047C174.466 83.6693 174.531 84.0833 174.531 84.5469C174.531 85.0156 174.451 85.4427 174.289 85.8281C174.133 86.2083 173.904 86.5339 173.602 86.8047C173.299 87.0755 172.935 87.2865 172.508 87.4375C172.081 87.5833 171.602 87.6562 171.07 87.6562C170.581 87.6562 170.109 87.5833 169.656 87.4375C169.208 87.2917 168.807 87.0703 168.453 86.7734C168.099 86.4714 167.818 86.0938 167.609 85.6406C167.406 85.1875 167.305 84.6562 167.305 84.0469H169.203C169.203 84.4115 169.247 84.724 169.336 84.9844C169.424 85.2396 169.552 85.4505 169.719 85.6172C169.891 85.7786 170.091 85.8984 170.32 85.9766C170.555 86.0495 170.815 86.0859 171.102 86.0859C171.456 86.0859 171.745 86.0234 171.969 85.8984C172.198 85.7682 172.367 85.5885 172.477 85.3594C172.586 85.1302 172.641 84.8646 172.641 84.5625ZM180.156 77.6875L177.406 87.5H175.422L179.031 76.125H180.266L180.156 77.6875ZM182.352 87.5L179.594 77.6875L179.461 76.125H180.719L184.344 87.5H182.352ZM182.398 83.2734V84.8672H177.102V83.2734H182.398ZM188.805 76.125V87.5H186.914V76.125H188.805ZM191.703 76.125V77.7188H184.047V76.125H191.703ZM195.18 76.125V87.5H193.281V76.125H195.18ZM205.094 80.8828V82.8203C205.094 83.6224 205 84.3255 204.812 84.9297C204.63 85.5339 204.365 86.0391 204.016 86.4453C203.672 86.8464 203.255 87.1484 202.766 87.3516C202.281 87.5547 201.74 87.6562 201.141 87.6562C200.547 87.6562 200.005 87.5547 199.516 87.3516C199.031 87.1484 198.612 86.8464 198.258 86.4453C197.909 86.0391 197.638 85.5339 197.445 84.9297C197.258 84.3255 197.164 83.6224 197.164 82.8203V80.8828C197.164 80.0703 197.258 79.3594 197.445 78.75C197.633 78.1354 197.901 77.6224 198.25 77.2109C198.604 76.7995 199.023 76.4896 199.508 76.2812C199.997 76.0729 200.536 75.9688 201.125 75.9688C201.724 75.9688 202.266 76.0729 202.75 76.2812C203.24 76.4896 203.659 76.7995 204.008 77.2109C204.357 77.6224 204.625 78.1354 204.812 78.75C205 79.3594 205.094 80.0703 205.094 80.8828ZM203.211 82.8203V80.8672C203.211 80.2891 203.164 79.7943 203.07 79.3828C202.982 78.9661 202.849 78.6276 202.672 78.3672C202.495 78.1016 202.276 77.9062 202.016 77.7812C201.76 77.651 201.464 77.5859 201.125 77.5859C200.797 77.5859 200.503 77.651 200.242 77.7812C199.987 77.9062 199.768 78.1016 199.586 78.3672C199.409 78.6276 199.273 78.9661 199.18 79.3828C199.091 79.7943 199.047 80.2891 199.047 80.8672V82.8203C199.047 83.388 199.094 83.8776 199.188 84.2891C199.281 84.6953 199.417 85.0286 199.594 85.2891C199.776 85.5443 199.997 85.7344 200.258 85.8594C200.518 85.9844 200.812 86.0469 201.141 86.0469C201.474 86.0469 201.771 85.9844 202.031 85.8594C202.292 85.7344 202.508 85.5443 202.68 85.2891C202.857 85.0286 202.99 84.6953 203.078 84.2891C203.167 83.8776 203.211 83.388 203.211 82.8203ZM214.727 76.125V87.5H212.867L208.852 79.625V87.5H207.016V76.125H208.852L212.898 84.0547V76.125H214.727ZM225.453 84.5625C225.453 84.3281 225.427 84.1198 225.375 83.9375C225.328 83.75 225.237 83.5807 225.102 83.4297C224.966 83.2786 224.773 83.1302 224.523 82.9844C224.279 82.8385 223.961 82.6901 223.57 82.5391C223.122 82.3672 222.703 82.1797 222.312 81.9766C221.927 81.7682 221.586 81.5339 221.289 81.2734C220.997 81.0078 220.768 80.6979 220.602 80.3438C220.435 79.9896 220.352 79.5781 220.352 79.1094C220.352 78.6458 220.432 78.224 220.594 77.8438C220.76 77.4583 220.995 77.1276 221.297 76.8516C221.604 76.5703 221.969 76.3542 222.391 76.2031C222.812 76.0469 223.279 75.9688 223.789 75.9688C224.523 75.9688 225.151 76.125 225.672 76.4375C226.198 76.75 226.599 77.1693 226.875 77.6953C227.156 78.2214 227.297 78.8047 227.297 79.4453H225.406C225.406 79.0755 225.349 78.7474 225.234 78.4609C225.12 78.1745 224.943 77.9505 224.703 77.7891C224.464 77.6276 224.154 77.5469 223.773 77.5469C223.424 77.5469 223.135 77.6146 222.906 77.75C222.682 77.8854 222.516 78.0703 222.406 78.3047C222.302 78.5391 222.25 78.8073 222.25 79.1094C222.25 79.3177 222.294 79.5078 222.383 79.6797C222.471 79.8464 222.599 80 222.766 80.1406C222.932 80.2812 223.135 80.4141 223.375 80.5391C223.615 80.6641 223.891 80.7839 224.203 80.8984C224.734 81.0911 225.198 81.3047 225.594 81.5391C225.99 81.7734 226.315 82.0365 226.57 82.3281C226.831 82.6146 227.023 82.9401 227.148 83.3047C227.279 83.6693 227.344 84.0833 227.344 84.5469C227.344 85.0156 227.263 85.4427 227.102 85.8281C226.945 86.2083 226.716 86.5339 226.414 86.8047C226.112 87.0755 225.747 87.2865 225.32 87.4375C224.893 87.5833 224.414 87.6562 223.883 87.6562C223.393 87.6562 222.922 87.5833 222.469 87.4375C222.021 87.2917 221.62 87.0703 221.266 86.7734C220.911 86.4714 220.63 86.0938 220.422 85.6406C220.219 85.1875 220.117 84.6562 220.117 84.0469H222.016C222.016 84.4115 222.06 84.724 222.148 84.9844C222.237 85.2396 222.365 85.4505 222.531 85.6172C222.703 85.7786 222.904 85.8984 223.133 85.9766C223.367 86.0495 223.628 86.0859 223.914 86.0859C224.268 86.0859 224.557 86.0234 224.781 85.8984C225.01 85.7682 225.18 85.5885 225.289 85.3594C225.398 85.1302 225.453 84.8646 225.453 84.5625ZM236.766 80.8828V82.8203C236.766 83.6224 236.672 84.3255 236.484 84.9297C236.302 85.5339 236.036 86.0391 235.688 86.4453C235.344 86.8464 234.927 87.1484 234.438 87.3516C233.953 87.5547 233.411 87.6562 232.812 87.6562C232.219 87.6562 231.677 87.5547 231.188 87.3516C230.703 87.1484 230.284 86.8464 229.93 86.4453C229.581 86.0391 229.31 85.5339 229.117 84.9297C228.93 84.3255 228.836 83.6224 228.836 82.8203V80.8828C228.836 80.0703 228.93 79.3594 229.117 78.75C229.305 78.1354 229.573 77.6224 229.922 77.2109C230.276 76.7995 230.695 76.4896 231.18 76.2812C231.669 76.0729 232.208 75.9688 232.797 75.9688C233.396 75.9688 233.938 76.0729 234.422 76.2812C234.911 76.4896 235.331 76.7995 235.68 77.2109C236.029 77.6224 236.297 78.1354 236.484 78.75C236.672 79.3594 236.766 80.0703 236.766 80.8828ZM234.883 82.8203V80.8672C234.883 80.2891 234.836 79.7943 234.742 79.3828C234.654 78.9661 234.521 78.6276 234.344 78.3672C234.167 78.1016 233.948 77.9062 233.688 77.7812C233.432 77.651 233.135 77.5859 232.797 77.5859C232.469 77.5859 232.174 77.651 231.914 77.7812C231.659 77.9062 231.44 78.1016 231.258 78.3672C231.081 78.6276 230.945 78.9661 230.852 79.3828C230.763 79.7943 230.719 80.2891 230.719 80.8672V82.8203C230.719 83.388 230.766 83.8776 230.859 84.2891C230.953 84.6953 231.089 85.0286 231.266 85.2891C231.448 85.5443 231.669 85.7344 231.93 85.8594C232.19 85.9844 232.484 86.0469 232.812 86.0469C233.146 86.0469 233.443 85.9844 233.703 85.8594C233.964 85.7344 234.18 85.5443 234.352 85.2891C234.529 85.0286 234.661 84.6953 234.75 84.2891C234.839 83.8776 234.883 83.388 234.883 82.8203ZM243.906 76.125H245.805V84.0234C245.805 84.8932 245.641 85.5938 245.312 86.125C244.99 86.6562 244.552 87.0443 244 87.2891C243.453 87.5339 242.844 87.6562 242.172 87.6562C241.474 87.6562 240.852 87.5339 240.305 87.2891C239.758 87.0443 239.328 86.6562 239.016 86.125C238.703 85.5938 238.547 84.8932 238.547 84.0234V76.125H240.438V84.0234C240.438 84.5651 240.505 84.9844 240.641 85.2812C240.781 85.5781 240.979 85.7839 241.234 85.8984C241.495 86.013 241.807 86.0703 242.172 86.0703C242.536 86.0703 242.846 86.013 243.102 85.8984C243.362 85.7839 243.56 85.5781 243.695 85.2812C243.836 84.9844 243.906 84.5651 243.906 84.0234V76.125ZM247.773 76.125H251.211C251.961 76.125 252.596 76.2552 253.117 76.5156C253.638 76.776 254.034 77.1615 254.305 77.6719C254.581 78.1771 254.719 78.8047 254.719 79.5547C254.719 80.1224 254.633 80.6224 254.461 81.0547C254.294 81.487 254.052 81.8516 253.734 82.1484C253.417 82.4401 253.034 82.6667 252.586 82.8281L252.031 83.1328H249.125L249.117 81.5391H251.164C251.534 81.5391 251.841 81.4583 252.086 81.2969C252.331 81.1354 252.513 80.9115 252.633 80.625C252.758 80.3385 252.82 80.013 252.82 79.6484C252.82 79.2578 252.766 78.9193 252.656 78.6328C252.547 78.3411 252.375 78.1172 252.141 77.9609C251.906 77.7995 251.596 77.7188 251.211 77.7188H249.672V87.5H247.773V76.125ZM253.07 87.5L250.906 82.3906L252.883 82.3828L255.102 87.3984V87.5H253.07ZM262 83.7891H263.891C263.854 84.612 263.688 85.3125 263.391 85.8906C263.094 86.4635 262.667 86.901 262.109 87.2031C261.557 87.5052 260.883 87.6562 260.086 87.6562C259.482 87.6562 258.94 87.5469 258.461 87.3281C257.987 87.1094 257.583 86.7943 257.25 86.3828C256.917 85.9661 256.661 85.4583 256.484 84.8594C256.312 84.2604 256.227 83.5807 256.227 82.8203V80.8047C256.227 80.0443 256.315 79.3646 256.492 78.7656C256.674 78.1667 256.935 77.6589 257.273 77.2422C257.612 76.8255 258.023 76.5104 258.508 76.2969C258.997 76.0781 259.549 75.9688 260.164 75.9688C260.951 75.9688 261.612 76.1198 262.148 76.4219C262.685 76.724 263.099 77.1667 263.391 77.75C263.682 78.3333 263.852 79.0443 263.898 79.8828H262.008C261.982 79.3151 261.904 78.862 261.773 78.5234C261.648 78.1797 261.456 77.9323 261.195 77.7812C260.94 77.6302 260.596 77.5547 260.164 77.5547C259.805 77.5547 259.495 77.6224 259.234 77.7578C258.979 77.8932 258.768 78.0964 258.602 78.3672C258.44 78.6328 258.318 78.9688 258.234 79.375C258.156 79.776 258.117 80.2474 258.117 80.7891V82.8203C258.117 83.3411 258.151 83.8021 258.219 84.2031C258.286 84.6042 258.396 84.9453 258.547 85.2266C258.698 85.5026 258.898 85.7135 259.148 85.8594C259.398 86 259.711 86.0703 260.086 86.0703C260.534 86.0703 260.891 86 261.156 85.8594C261.427 85.7188 261.628 85.4818 261.758 85.1484C261.888 84.8151 261.969 84.362 262 83.7891ZM271.898 85.9141V87.5H266.961V85.9141H271.898ZM267.461 76.125V87.5H265.562V76.125H267.461ZM271.234 80.8594V82.4219H266.961V80.8594H271.234ZM271.852 76.125V77.7188H266.961V76.125H271.852Z" fill="#576885"/>
</svg>
