<svg width="31" height="31" viewBox="0 0 31 31" fill="none" xmlns="http://www.w3.org/2000/svg">
<path opacity="0.5" d="M11.7681 1.86049C11.3907 2.18212 11.202 2.34295 11.0004 2.47804C10.5384 2.78774 10.0195 3.00268 9.47375 3.11042C9.23569 3.15742 8.9885 3.17715 8.49412 3.2166L8.49411 3.2166C7.25197 3.31572 6.6309 3.36529 6.11274 3.5483C4.91429 3.97161 3.97161 4.91429 3.5483 6.11274C3.36529 6.6309 3.31572 7.25197 3.2166 8.49411L3.2166 8.49412C3.17715 8.9885 3.15742 9.23569 3.11042 9.47375C3.00268 10.0195 2.78774 10.5384 2.47804 11.0004C2.34294 11.202 2.1821 11.3908 1.86042 11.7682C1.05219 12.7166 0.648062 13.1909 0.411084 13.6867C-0.137028 14.8334 -0.137028 16.1666 0.411084 17.3133C0.648061 17.8091 1.05218 18.2833 1.8604 19.2318L1.86042 19.2318L1.86047 19.2318C2.18208 19.6092 2.34296 19.798 2.47804 19.9996C2.78774 20.4616 3.00268 20.9805 3.11042 21.5262C3.15742 21.7643 3.17715 22.0115 3.2166 22.5059L3.2166 22.5059C3.31572 23.748 3.36528 24.3691 3.5483 24.8873C3.97161 26.0857 4.91429 27.0284 6.11274 27.4517C6.6309 27.6347 7.25196 27.6843 8.49407 27.7834L8.49412 27.7834C8.9885 27.8229 9.23569 27.8426 9.47375 27.8896C10.0195 27.9973 10.5384 28.2123 11.0004 28.522C11.202 28.6571 11.3908 28.8179 11.7682 29.1396C12.7166 29.9478 13.1909 30.3519 13.6867 30.5889C14.8334 31.137 16.1666 31.137 17.3133 30.5889C17.8091 30.3519 18.2834 29.9478 19.2318 29.1396C19.6092 28.8179 19.798 28.6571 19.9996 28.522C20.4616 28.2123 20.9805 27.9973 21.5262 27.8896C21.7643 27.8426 22.0115 27.8229 22.5059 27.7834L22.5059 27.7834C23.748 27.6843 24.3691 27.6347 24.8873 27.4517C26.0857 27.0284 27.0284 26.0857 27.4517 24.8873C27.6347 24.3691 27.6843 23.748 27.7834 22.5059L27.7834 22.5059C27.8229 22.0115 27.8426 21.7643 27.8896 21.5262C27.9973 20.9805 28.2123 20.4616 28.522 19.9996C28.6571 19.798 28.8179 19.6092 29.1396 19.2318C29.9478 18.2834 30.3519 17.8091 30.5889 17.3133C31.137 16.1666 31.137 14.8334 30.5889 13.6867C30.3519 13.1909 29.9478 12.7166 29.1396 11.7682C28.8179 11.3908 28.6571 11.202 28.522 11.0004C28.2123 10.5384 27.9973 10.0195 27.8896 9.47375C27.8426 9.23569 27.8229 8.9885 27.7834 8.49412L27.7834 8.49407C27.6843 7.25196 27.6347 6.6309 27.4517 6.11274C27.0284 4.91429 26.0857 3.97161 24.8873 3.5483C24.3691 3.36528 23.748 3.31572 22.5059 3.2166L22.5059 3.2166C22.0115 3.17715 21.7643 3.15742 21.5262 3.11042C20.9805 3.00268 20.4616 2.78774 19.9996 2.47804C19.798 2.34294 19.6092 2.1821 19.2318 1.86042L19.2317 1.8604C18.2833 1.05218 17.8091 0.648061 17.3133 0.411084C16.1666 -0.137028 14.8334 -0.137028 13.6867 0.411084C13.1909 0.648062 12.7166 1.05219 11.7682 1.86042L11.7681 1.86049Z" fill="#048011"/>
<path d="M22.2789 12.1861C22.7715 11.6934 22.7715 10.8947 22.2789 10.4021C21.7862 9.90943 20.9875 9.90943 20.4949 10.4021L12.977 17.92L10.505 15.448C10.0124 14.9554 9.21368 14.9554 8.72104 15.448C8.2284 15.9406 8.2284 16.7394 8.72104 17.232L12.085 20.596C12.5776 21.0886 13.3764 21.0886 13.869 20.596L22.2789 12.1861Z" fill="white"/>
</svg>
