<svg width="316" height="124" viewBox="0 0 316 124" fill="none" xmlns="http://www.w3.org/2000/svg">
<path d="M50.0523 1.2501L57.4139 4.15013C60.0399 5.18397 62.9601 5.18397 65.5861 4.15013L72.9477 1.2501C77.2814 -0.454343 82.1074 -0.410871 86.4097 1.37136C90.7121 3.1536 94.1551 6.53556 96.014 10.8053L99.1669 18.0554C100.293 20.6428 102.357 22.7074 104.945 23.8331L112.195 26.986C116.466 28.8449 119.85 32.2892 121.632 36.5932C123.414 40.8973 123.457 45.7251 121.75 50.0598L118.85 57.4214C117.818 60.0451 117.818 62.9623 118.85 65.5861L121.75 72.9477C123.454 77.2814 123.411 82.1074 121.629 86.4097C119.846 90.7121 116.464 94.1551 112.195 96.014L104.945 99.1669C102.357 100.292 100.292 102.357 99.1669 104.945L96.014 112.195C94.1551 116.466 90.7108 119.85 86.4068 121.632C82.1027 123.414 77.2749 123.457 72.9402 121.75L65.5786 118.85C62.9549 117.818 60.0377 117.818 57.4139 118.85L50.0523 121.75C45.7186 123.454 40.8926 123.411 36.5903 121.629C32.2879 119.846 28.8449 116.464 26.986 112.195L23.8331 104.945C22.7074 102.357 20.6428 100.293 18.0554 99.1669L10.8053 96.014C6.53377 94.1551 3.15046 90.7108 1.36808 86.4068C-0.414295 82.1027 -0.456592 77.2749 1.2501 72.9402L4.15013 65.5786C5.18202 62.9549 5.18202 60.0377 4.15013 57.4139L1.2501 50.0523C-0.454343 45.7186 -0.410871 40.8926 1.37136 36.5903C3.1536 32.2879 6.53556 28.8449 10.8053 26.986L18.0554 23.8331C20.6428 22.7074 22.7074 20.6428 23.8331 18.0554L26.986 10.8053C28.8449 6.53377 32.2892 3.15046 36.5932 1.36808C40.8973 -0.414295 45.7251 -0.456592 50.0598 1.2501H50.0523ZM81.0306 44.1556L53.9042 74.6728L41.8207 62.5894C41.1195 61.9121 40.1803 61.5374 39.2055 61.5458C38.2306 61.5543 37.2981 61.9453 36.6088 62.6347C35.9194 63.324 35.5284 64.2565 35.52 65.2314C35.5115 66.2062 35.8862 67.1454 36.5635 67.8466L51.4354 82.7185C51.7935 83.0766 52.2209 83.3578 52.6915 83.5449C53.1621 83.7319 53.6659 83.8208 54.1721 83.8062C54.6783 83.7916 55.1761 83.6737 55.6351 83.4598C56.0941 83.246 56.5046 82.9405 56.8414 82.5624L86.5852 49.1005C87.241 48.3639 87.5772 47.397 87.5201 46.4125C87.4629 45.428 87.0169 44.5065 86.2803 43.8507C85.5438 43.195 84.5768 42.8587 83.5923 42.9159C82.6078 42.9731 81.6863 43.419 81.0306 44.1556Z" fill="#0FA958"/>
<path d="M155.459 83.6484H157.941L161.704 95.811L165.455 83.6484H167.757L162.726 100H160.67L155.459 83.6484ZM154.527 83.6484H156.818L157.189 94.0591V100H154.527V83.6484ZM166.566 83.6484H168.869V100H166.207V94.0591L166.566 83.6484ZM181.272 97.7202V100H174.175V97.7202H181.272ZM174.894 83.6484V100H172.165V83.6484H174.894ZM180.318 90.4541V92.7002H174.175V90.4541H180.318ZM181.205 83.6484V85.9395H174.175V83.6484H181.205ZM190.79 95.7773C190.79 95.4404 190.753 95.141 190.678 94.8789C190.61 94.6094 190.479 94.366 190.285 94.1489C190.09 93.9318 189.813 93.7184 189.454 93.5088C189.102 93.2992 188.645 93.0858 188.084 92.8687C187.44 92.6216 186.837 92.3521 186.275 92.0601C185.721 91.7606 185.231 91.4237 184.804 91.0493C184.385 90.6675 184.056 90.222 183.816 89.7129C183.576 89.2038 183.457 88.6123 183.457 87.9385C183.457 87.2721 183.573 86.6657 183.805 86.1191C184.044 85.5651 184.381 85.0897 184.815 84.6929C185.257 84.2886 185.781 83.9779 186.388 83.7607C186.994 83.5361 187.664 83.4238 188.398 83.4238C189.454 83.4238 190.356 83.6484 191.105 84.0977C191.861 84.5469 192.437 85.1496 192.834 85.9058C193.238 86.6619 193.44 87.5005 193.44 88.4214H190.723C190.723 87.8898 190.64 87.4181 190.476 87.0063C190.311 86.5946 190.056 86.2726 189.712 86.0405C189.368 85.8084 188.922 85.6924 188.376 85.6924C187.874 85.6924 187.458 85.7897 187.129 85.9844C186.807 86.179 186.567 86.4448 186.41 86.7817C186.26 87.1187 186.186 87.5042 186.186 87.9385C186.186 88.238 186.249 88.5112 186.377 88.7583C186.504 88.9979 186.687 89.2188 186.927 89.4209C187.166 89.623 187.458 89.814 187.803 89.9937C188.147 90.1733 188.544 90.3455 188.993 90.5103C189.757 90.7873 190.423 91.0942 190.992 91.4312C191.561 91.7681 192.029 92.1462 192.396 92.5654C192.77 92.9772 193.047 93.4451 193.227 93.9692C193.414 94.4933 193.508 95.0885 193.508 95.7549C193.508 96.4287 193.392 97.0426 193.16 97.5967C192.935 98.1432 192.606 98.6112 192.171 99.0005C191.737 99.3898 191.213 99.693 190.599 99.9102C189.985 100.12 189.296 100.225 188.533 100.225C187.829 100.225 187.151 100.12 186.5 99.9102C185.856 99.7005 185.28 99.3823 184.771 98.9556C184.261 98.5213 183.857 97.9785 183.558 97.3271C183.266 96.6758 183.12 95.9121 183.12 95.0361H185.849C185.849 95.5602 185.912 96.0094 186.04 96.3838C186.167 96.7507 186.35 97.0539 186.59 97.2935C186.837 97.5256 187.125 97.6978 187.455 97.8101C187.792 97.9149 188.166 97.9673 188.578 97.9673C189.087 97.9673 189.502 97.8774 189.824 97.6978C190.154 97.5106 190.397 97.2523 190.554 96.9229C190.711 96.5934 190.79 96.2116 190.79 95.7773ZM207.282 90.4878V93.2729C207.282 94.4259 207.147 95.4367 206.877 96.3052C206.615 97.1737 206.234 97.8999 205.732 98.4839C205.238 99.0604 204.639 99.4946 203.935 99.7866C203.239 100.079 202.46 100.225 201.599 100.225C200.746 100.225 199.967 100.079 199.263 99.7866C198.567 99.4946 197.964 99.0604 197.455 98.4839C196.954 97.8999 196.564 97.1737 196.287 96.3052C196.018 95.4367 195.883 94.4259 195.883 93.2729V90.4878C195.883 89.3198 196.018 88.2979 196.287 87.4219C196.557 86.5384 196.942 85.8009 197.444 85.2095C197.953 84.618 198.556 84.1725 199.252 83.873C199.956 83.5736 200.731 83.4238 201.577 83.4238C202.438 83.4238 203.216 83.5736 203.913 83.873C204.616 84.1725 205.219 84.618 205.721 85.2095C206.222 85.8009 206.608 86.5384 206.877 87.4219C207.147 88.2979 207.282 89.3198 207.282 90.4878ZM204.575 93.2729V90.4653C204.575 89.6343 204.508 88.923 204.373 88.3315C204.246 87.7326 204.055 87.2459 203.8 86.8716C203.546 86.4897 203.231 86.209 202.857 86.0293C202.49 85.8421 202.063 85.7485 201.577 85.7485C201.105 85.7485 200.682 85.8421 200.308 86.0293C199.941 86.209 199.626 86.4897 199.364 86.8716C199.11 87.2459 198.915 87.7326 198.78 88.3315C198.653 88.923 198.589 89.6343 198.589 90.4653V93.2729C198.589 94.089 198.657 94.7928 198.792 95.3843C198.926 95.9683 199.121 96.4474 199.376 96.8218C199.638 97.1886 199.956 97.4619 200.33 97.6416C200.704 97.8213 201.127 97.9111 201.599 97.9111C202.078 97.9111 202.505 97.8213 202.879 97.6416C203.254 97.4619 203.565 97.1886 203.812 96.8218C204.066 96.4474 204.257 95.9683 204.384 95.3843C204.512 94.7928 204.575 94.089 204.575 93.2729ZM215.564 83.6484V100H212.846V83.6484H215.564ZM219.731 83.6484V85.9395H208.725V83.6484H219.731ZM231.09 90.4541V92.7451H224.206V90.4541H231.09ZM224.846 83.6484V100H222.117V83.6484H224.846ZM233.224 83.6484V100H230.506V83.6484H233.224ZM245.65 97.7202V100H238.552V97.7202H245.65ZM239.271 83.6484V100H236.542V83.6484H239.271ZM244.695 90.4541V92.7002H238.552V90.4541H244.695ZM245.583 83.6484V85.9395H238.552V83.6484H245.583ZM256.942 97.7202V100H250.148V97.7202H256.942ZM250.866 83.6484V100H248.137V83.6484H250.866ZM262.192 83.6484V100H259.463V83.6484H262.192ZM276.674 90.4878V93.2729C276.674 94.4259 276.539 95.4367 276.269 96.3052C276.007 97.1737 275.625 97.8999 275.124 98.4839C274.63 99.0604 274.031 99.4946 273.327 99.7866C272.631 100.079 271.852 100.225 270.991 100.225C270.137 100.225 269.359 100.079 268.655 99.7866C267.959 99.4946 267.356 99.0604 266.847 98.4839C266.345 97.8999 265.956 97.1737 265.679 96.3052C265.409 95.4367 265.275 94.4259 265.275 93.2729V90.4878C265.275 89.3198 265.409 88.2979 265.679 87.4219C265.948 86.5384 266.334 85.8009 266.836 85.2095C267.345 84.618 267.947 84.1725 268.644 83.873C269.348 83.5736 270.122 83.4238 270.968 83.4238C271.829 83.4238 272.608 83.5736 273.304 83.873C274.008 84.1725 274.611 84.618 275.112 85.2095C275.614 85.8009 276 86.5384 276.269 87.4219C276.539 88.2979 276.674 89.3198 276.674 90.4878ZM273.967 93.2729V90.4653C273.967 89.6343 273.9 88.923 273.765 88.3315C273.638 87.7326 273.447 87.2459 273.192 86.8716C272.938 86.4897 272.623 86.209 272.249 86.0293C271.882 85.8421 271.455 85.7485 270.968 85.7485C270.497 85.7485 270.074 85.8421 269.699 86.0293C269.333 86.209 269.018 86.4897 268.756 86.8716C268.501 87.2459 268.307 87.7326 268.172 88.3315C268.045 88.923 267.981 89.6343 267.981 90.4653V93.2729C267.981 94.089 268.049 94.7928 268.183 95.3843C268.318 95.9683 268.513 96.4474 268.767 96.8218C269.029 97.1886 269.348 97.4619 269.722 97.6416C270.096 97.8213 270.519 97.9111 270.991 97.9111C271.47 97.9111 271.897 97.8213 272.271 97.6416C272.646 97.4619 272.956 97.1886 273.203 96.8218C273.458 96.4474 273.649 95.9683 273.776 95.3843C273.903 94.7928 273.967 94.089 273.967 93.2729ZM280.598 83.6484H283.08L286.842 95.811L290.593 83.6484H292.896L287.864 100H285.809L280.598 83.6484ZM279.666 83.6484H281.957L282.328 94.0591V100H279.666V83.6484ZM291.705 83.6484H294.008V100H291.346V94.0591L291.705 83.6484ZM303.143 85.8945L299.19 100H296.338L301.526 83.6484H303.301L303.143 85.8945ZM306.299 100L302.335 85.8945L302.144 83.6484H303.952L309.163 100H306.299ZM306.366 93.9243V96.2153H298.752V93.9243H306.366Z" fill="#324A74"/>
<path d="M159.196 116.521H160.969C160.935 117.292 160.778 117.949 160.5 118.491C160.222 119.028 159.821 119.438 159.299 119.722C158.781 120.005 158.149 120.146 157.402 120.146C156.835 120.146 156.328 120.044 155.878 119.839C155.434 119.634 155.056 119.338 154.743 118.953C154.431 118.562 154.191 118.086 154.025 117.524C153.864 116.963 153.784 116.326 153.784 115.613V113.723C153.784 113.01 153.867 112.373 154.033 111.812C154.204 111.25 154.448 110.774 154.765 110.383C155.083 109.993 155.468 109.697 155.922 109.497C156.381 109.292 156.899 109.189 157.475 109.189C158.212 109.189 158.833 109.331 159.335 109.614C159.838 109.897 160.227 110.312 160.5 110.859C160.773 111.406 160.932 112.073 160.976 112.859H159.204C159.179 112.327 159.106 111.902 158.984 111.584C158.867 111.262 158.686 111.03 158.442 110.889C158.203 110.747 157.88 110.676 157.475 110.676C157.138 110.676 156.848 110.74 156.604 110.867C156.364 110.994 156.167 111.184 156.01 111.438C155.859 111.687 155.744 112.002 155.666 112.383C155.593 112.759 155.556 113.201 155.556 113.708V115.613C155.556 116.101 155.588 116.533 155.651 116.909C155.715 117.285 155.817 117.605 155.959 117.869C156.101 118.127 156.289 118.325 156.523 118.462C156.757 118.594 157.05 118.66 157.402 118.66C157.822 118.66 158.156 118.594 158.405 118.462C158.659 118.33 158.847 118.108 158.969 117.795C159.091 117.483 159.167 117.058 159.196 116.521ZM169.922 113.796V115.613C169.922 116.365 169.835 117.024 169.659 117.59C169.488 118.157 169.239 118.63 168.912 119.011C168.589 119.387 168.199 119.67 167.74 119.861C167.286 120.051 166.778 120.146 166.216 120.146C165.66 120.146 165.152 120.051 164.693 119.861C164.239 119.67 163.846 119.387 163.514 119.011C163.187 118.63 162.933 118.157 162.752 117.59C162.576 117.024 162.488 116.365 162.488 115.613V113.796C162.488 113.035 162.576 112.368 162.752 111.797C162.928 111.221 163.179 110.74 163.506 110.354C163.838 109.968 164.232 109.678 164.686 109.482C165.145 109.287 165.65 109.189 166.202 109.189C166.763 109.189 167.271 109.287 167.725 109.482C168.184 109.678 168.577 109.968 168.904 110.354C169.232 110.74 169.483 111.221 169.659 111.797C169.835 112.368 169.922 113.035 169.922 113.796ZM168.157 115.613V113.782C168.157 113.24 168.113 112.776 168.025 112.39C167.942 112 167.818 111.682 167.652 111.438C167.486 111.189 167.281 111.006 167.037 110.889C166.797 110.767 166.519 110.706 166.202 110.706C165.894 110.706 165.618 110.767 165.374 110.889C165.135 111.006 164.93 111.189 164.759 111.438C164.593 111.682 164.466 112 164.378 112.39C164.295 112.776 164.254 113.24 164.254 113.782V115.613C164.254 116.145 164.297 116.604 164.385 116.99C164.473 117.371 164.6 117.683 164.766 117.927C164.937 118.167 165.145 118.345 165.389 118.462C165.633 118.579 165.909 118.638 166.216 118.638C166.529 118.638 166.807 118.579 167.051 118.462C167.296 118.345 167.498 118.167 167.659 117.927C167.825 117.683 167.95 117.371 168.033 116.99C168.116 116.604 168.157 116.145 168.157 115.613ZM172.482 109.336H174.101L176.554 117.268L179.001 109.336H180.502L177.221 120H175.881L172.482 109.336ZM171.874 109.336H173.368L173.61 116.125V120H171.874V109.336ZM179.726 109.336H181.227V120H179.491V116.125L179.726 109.336ZM186.9 116.045H184.651V114.558H186.9C187.266 114.558 187.561 114.48 187.786 114.324C188.015 114.167 188.181 113.953 188.284 113.679C188.391 113.406 188.445 113.096 188.445 112.749C188.445 112.417 188.391 112.104 188.284 111.812C188.181 111.519 188.018 111.282 187.793 111.101C187.569 110.92 187.271 110.83 186.9 110.83H185.149V120H183.377V109.336H186.9C187.603 109.336 188.203 109.482 188.701 109.775C189.2 110.068 189.58 110.471 189.844 110.984C190.108 111.492 190.24 112.075 190.24 112.734C190.24 113.423 190.108 114.014 189.844 114.507C189.58 115 189.2 115.381 188.701 115.649C188.203 115.913 187.603 116.045 186.9 116.045ZM197.904 118.513V120H193.275V118.513H197.904ZM193.744 109.336V120H191.964V109.336H193.744ZM197.282 113.774V115.239H193.275V113.774H197.282ZM197.86 109.336V110.83H193.275V109.336H197.86ZM206.755 109.336V120H205.012L201.248 112.617V120H199.526V109.336H201.248L205.042 116.77V109.336H206.755ZM213.504 117.246C213.504 117.026 213.48 116.831 213.431 116.66C213.387 116.484 213.302 116.326 213.175 116.184C213.048 116.042 212.867 115.903 212.633 115.767C212.403 115.63 212.106 115.491 211.739 115.349C211.319 115.188 210.926 115.012 210.56 114.822C210.199 114.626 209.879 114.407 209.601 114.163C209.327 113.914 209.112 113.623 208.956 113.291C208.8 112.959 208.722 112.573 208.722 112.134C208.722 111.699 208.797 111.304 208.949 110.947C209.105 110.586 209.325 110.276 209.608 110.017C209.896 109.753 210.238 109.551 210.633 109.409C211.029 109.263 211.466 109.189 211.944 109.189C212.633 109.189 213.221 109.336 213.71 109.629C214.203 109.922 214.579 110.315 214.838 110.808C215.101 111.301 215.233 111.848 215.233 112.449H213.461C213.461 112.102 213.407 111.794 213.299 111.526C213.192 111.257 213.026 111.047 212.801 110.896C212.577 110.745 212.286 110.669 211.93 110.669C211.603 110.669 211.332 110.732 211.117 110.859C210.907 110.986 210.751 111.16 210.648 111.379C210.55 111.599 210.502 111.851 210.502 112.134C210.502 112.329 210.543 112.507 210.626 112.668C210.709 112.825 210.829 112.969 210.985 113.101C211.141 113.232 211.332 113.357 211.556 113.474C211.781 113.591 212.04 113.704 212.333 113.811C212.831 113.992 213.265 114.192 213.636 114.412C214.007 114.631 214.313 114.878 214.552 115.151C214.796 115.42 214.977 115.725 215.094 116.067C215.216 116.409 215.277 116.797 215.277 117.231C215.277 117.671 215.201 118.071 215.05 118.433C214.903 118.789 214.689 119.094 214.405 119.348C214.122 119.602 213.78 119.8 213.38 119.941C212.98 120.078 212.53 120.146 212.032 120.146C211.573 120.146 211.131 120.078 210.707 119.941C210.287 119.805 209.911 119.597 209.579 119.319C209.247 119.036 208.983 118.682 208.788 118.257C208.597 117.832 208.502 117.334 208.502 116.763H210.282C210.282 117.104 210.323 117.397 210.406 117.642C210.489 117.881 210.609 118.079 210.765 118.235C210.926 118.386 211.114 118.499 211.329 118.572C211.549 118.64 211.793 118.674 212.062 118.674C212.394 118.674 212.665 118.616 212.875 118.499C213.089 118.376 213.248 118.208 213.351 117.993C213.453 117.778 213.504 117.529 213.504 117.246ZM220.7 110.801L218.122 120H216.262L219.646 109.336H220.803L220.7 110.801ZM222.758 120L220.173 110.801L220.049 109.336H221.228L224.626 120H222.758ZM222.802 116.038V117.532H217.837V116.038H222.802ZM228.958 109.336V120H227.186V109.336H228.958ZM231.676 109.336V110.83H224.498V109.336H231.676ZM235.085 109.336V120H233.305V109.336H235.085ZM244.529 113.796V115.613C244.529 116.365 244.441 117.024 244.266 117.59C244.095 118.157 243.846 118.63 243.519 119.011C243.196 119.387 242.806 119.67 242.347 119.861C241.893 120.051 241.385 120.146 240.823 120.146C240.267 120.146 239.759 120.051 239.3 119.861C238.846 119.67 238.453 119.387 238.121 119.011C237.793 118.63 237.54 118.157 237.359 117.59C237.183 117.024 237.095 116.365 237.095 115.613V113.796C237.095 113.035 237.183 112.368 237.359 111.797C237.535 111.221 237.786 110.74 238.113 110.354C238.445 109.968 238.838 109.678 239.292 109.482C239.751 109.287 240.257 109.189 240.809 109.189C241.37 109.189 241.878 109.287 242.332 109.482C242.791 109.678 243.184 109.968 243.511 110.354C243.838 110.74 244.09 111.221 244.266 111.797C244.441 112.368 244.529 113.035 244.529 113.796ZM242.764 115.613V113.782C242.764 113.24 242.72 112.776 242.632 112.39C242.549 112 242.425 111.682 242.259 111.438C242.093 111.189 241.888 111.006 241.644 110.889C241.404 110.767 241.126 110.706 240.809 110.706C240.501 110.706 240.225 110.767 239.981 110.889C239.742 111.006 239.537 111.189 239.366 111.438C239.2 111.682 239.073 112 238.985 112.39C238.902 112.776 238.86 113.24 238.86 113.782V115.613C238.86 116.145 238.904 116.604 238.992 116.99C239.08 117.371 239.207 117.683 239.373 117.927C239.544 118.167 239.751 118.345 239.996 118.462C240.24 118.579 240.516 118.638 240.823 118.638C241.136 118.638 241.414 118.579 241.658 118.462C241.902 118.345 242.105 118.167 242.266 117.927C242.432 117.683 242.557 117.371 242.64 116.99C242.723 116.604 242.764 116.145 242.764 115.613ZM253.71 109.336V120H251.967L248.202 112.617V120H246.481V109.336H248.202L251.996 116.77V109.336H253.71ZM264.066 117.246C264.066 117.026 264.042 116.831 263.993 116.66C263.949 116.484 263.864 116.326 263.737 116.184C263.61 116.042 263.429 115.903 263.195 115.767C262.965 115.63 262.667 115.491 262.301 115.349C261.881 115.188 261.488 115.012 261.122 114.822C260.761 114.626 260.441 114.407 260.162 114.163C259.889 113.914 259.674 113.623 259.518 113.291C259.362 112.959 259.283 112.573 259.283 112.134C259.283 111.699 259.359 111.304 259.511 110.947C259.667 110.586 259.887 110.276 260.17 110.017C260.458 109.753 260.8 109.551 261.195 109.409C261.591 109.263 262.028 109.189 262.506 109.189C263.195 109.189 263.783 109.336 264.271 109.629C264.764 109.922 265.14 110.315 265.399 110.808C265.663 111.301 265.795 111.848 265.795 112.449H264.022C264.022 112.102 263.969 111.794 263.861 111.526C263.754 111.257 263.588 111.047 263.363 110.896C263.138 110.745 262.848 110.669 262.492 110.669C262.164 110.669 261.893 110.732 261.679 110.859C261.469 110.986 261.312 111.16 261.21 111.379C261.112 111.599 261.063 111.851 261.063 112.134C261.063 112.329 261.105 112.507 261.188 112.668C261.271 112.825 261.39 112.969 261.547 113.101C261.703 113.232 261.893 113.357 262.118 113.474C262.343 113.591 262.601 113.704 262.894 113.811C263.392 113.992 263.827 114.192 264.198 114.412C264.569 114.631 264.874 114.878 265.114 115.151C265.358 115.42 265.538 115.725 265.656 116.067C265.778 116.409 265.839 116.797 265.839 117.231C265.839 117.671 265.763 118.071 265.612 118.433C265.465 118.789 265.25 119.094 264.967 119.348C264.684 119.602 264.342 119.8 263.942 119.941C263.541 120.078 263.092 120.146 262.594 120.146C262.135 120.146 261.693 120.078 261.268 119.941C260.848 119.805 260.472 119.597 260.14 119.319C259.808 119.036 259.545 118.682 259.349 118.257C259.159 117.832 259.064 117.334 259.064 116.763H260.844C260.844 117.104 260.885 117.397 260.968 117.642C261.051 117.881 261.171 118.079 261.327 118.235C261.488 118.386 261.676 118.499 261.891 118.572C262.111 118.64 262.355 118.674 262.623 118.674C262.955 118.674 263.226 118.616 263.436 118.499C263.651 118.376 263.81 118.208 263.912 117.993C264.015 117.778 264.066 117.529 264.066 117.246ZM274.822 113.796V115.613C274.822 116.365 274.734 117.024 274.558 117.59C274.387 118.157 274.138 118.63 273.811 119.011C273.489 119.387 273.098 119.67 272.639 119.861C272.185 120.051 271.677 120.146 271.116 120.146C270.559 120.146 270.051 120.051 269.592 119.861C269.138 119.67 268.745 119.387 268.413 119.011C268.086 118.63 267.832 118.157 267.651 117.59C267.475 117.024 267.388 116.365 267.388 115.613V113.796C267.388 113.035 267.475 112.368 267.651 111.797C267.827 111.221 268.079 110.74 268.406 110.354C268.738 109.968 269.131 109.678 269.585 109.482C270.044 109.287 270.549 109.189 271.101 109.189C271.662 109.189 272.17 109.287 272.624 109.482C273.083 109.678 273.476 109.968 273.804 110.354C274.131 110.74 274.382 111.221 274.558 111.797C274.734 112.368 274.822 113.035 274.822 113.796ZM273.057 115.613V113.782C273.057 113.24 273.013 112.776 272.925 112.39C272.842 112 272.717 111.682 272.551 111.438C272.385 111.189 272.18 111.006 271.936 110.889C271.697 110.767 271.418 110.706 271.101 110.706C270.793 110.706 270.517 110.767 270.273 110.889C270.034 111.006 269.829 111.189 269.658 111.438C269.492 111.682 269.365 112 269.277 112.39C269.194 112.776 269.153 113.24 269.153 113.782V115.613C269.153 116.145 269.197 116.604 269.285 116.99C269.372 117.371 269.499 117.683 269.665 117.927C269.836 118.167 270.044 118.345 270.288 118.462C270.532 118.579 270.808 118.638 271.116 118.638C271.428 118.638 271.706 118.579 271.951 118.462C272.195 118.345 272.397 118.167 272.558 117.927C272.725 117.683 272.849 117.371 272.932 116.99C273.015 116.604 273.057 116.145 273.057 115.613ZM281.666 109.336H283.446V116.741C283.446 117.556 283.292 118.213 282.984 118.711C282.682 119.209 282.271 119.573 281.754 119.802C281.241 120.032 280.67 120.146 280.04 120.146C279.386 120.146 278.802 120.032 278.29 119.802C277.777 119.573 277.374 119.209 277.081 118.711C276.788 118.213 276.642 117.556 276.642 116.741V109.336H278.414V116.741C278.414 117.249 278.478 117.642 278.604 117.92C278.736 118.198 278.922 118.391 279.161 118.499C279.405 118.606 279.698 118.66 280.04 118.66C280.382 118.66 280.672 118.606 280.912 118.499C281.156 118.391 281.341 118.198 281.468 117.92C281.6 117.642 281.666 117.249 281.666 116.741V109.336ZM285.441 109.336H288.664C289.367 109.336 289.963 109.458 290.451 109.702C290.94 109.946 291.311 110.308 291.565 110.786C291.823 111.26 291.953 111.848 291.953 112.551C291.953 113.083 291.872 113.552 291.711 113.958C291.555 114.363 291.328 114.705 291.03 114.983C290.732 115.256 290.373 115.469 289.953 115.62L289.433 115.906H286.709L286.701 114.412H288.62C288.967 114.412 289.255 114.336 289.484 114.185C289.714 114.033 289.885 113.823 289.997 113.555C290.114 113.286 290.173 112.981 290.173 112.639C290.173 112.273 290.122 111.956 290.019 111.687C289.917 111.414 289.755 111.204 289.536 111.057C289.316 110.906 289.025 110.83 288.664 110.83H287.221V120H285.441V109.336ZM290.407 120L288.379 115.21L290.232 115.203L292.312 119.905V120H290.407ZM298.929 116.521H300.701C300.667 117.292 300.511 117.949 300.233 118.491C299.954 119.028 299.554 119.438 299.031 119.722C298.514 120.005 297.882 120.146 297.134 120.146C296.568 120.146 296.06 120.044 295.611 119.839C295.167 119.634 294.788 119.338 294.476 118.953C294.163 118.562 293.924 118.086 293.758 117.524C293.597 116.963 293.516 116.326 293.516 115.613V113.723C293.516 113.01 293.599 112.373 293.765 111.812C293.936 111.25 294.18 110.774 294.498 110.383C294.815 109.993 295.201 109.697 295.655 109.497C296.114 109.292 296.632 109.189 297.208 109.189C297.945 109.189 298.565 109.331 299.068 109.614C299.571 109.897 299.959 110.312 300.233 110.859C300.506 111.406 300.665 112.073 300.709 112.859H298.936C298.912 112.327 298.839 111.902 298.717 111.584C298.599 111.262 298.419 111.03 298.175 110.889C297.935 110.747 297.613 110.676 297.208 110.676C296.871 110.676 296.58 110.74 296.336 110.867C296.097 110.994 295.899 111.184 295.743 111.438C295.592 111.687 295.477 112.002 295.399 112.383C295.325 112.759 295.289 113.201 295.289 113.708V115.613C295.289 116.101 295.321 116.533 295.384 116.909C295.447 117.285 295.55 117.605 295.692 117.869C295.833 118.127 296.021 118.325 296.256 118.462C296.49 118.594 296.783 118.66 297.134 118.66C297.554 118.66 297.889 118.594 298.138 118.462C298.392 118.33 298.58 118.108 298.702 117.795C298.824 117.483 298.9 117.058 298.929 116.521ZM308.359 118.513V120H303.73V118.513H308.359ZM304.199 109.336V120H302.419V109.336H304.199ZM307.736 113.774V115.239H303.73V113.774H307.736ZM308.315 109.336V110.83H303.73V109.336H308.315Z" fill="#324A74"/>
<path d="M162.914 61.2539L168.363 40.4062H172.986L165.34 66H162.176L162.914 61.2539ZM158.15 40.4062L163.564 61.2539L164.355 66H161.191L153.545 40.4062H158.15ZM193.238 62.4316V66H182.128V62.4316H193.238ZM183.253 40.4062V66H178.982V40.4062H183.253ZM191.744 51.0586V54.5742H182.128V51.0586H191.744ZM193.132 40.4062V43.9922H182.128V40.4062H193.132ZM199.849 40.4062H207.583C209.27 40.4062 210.7 40.6992 211.872 41.2852C213.044 41.8711 213.934 42.7383 214.544 43.8867C215.165 45.0234 215.475 46.4355 215.475 48.123C215.475 49.4004 215.282 50.5254 214.895 51.498C214.52 52.4707 213.975 53.291 213.261 53.959C212.546 54.6152 211.684 55.125 210.677 55.4883L209.429 56.1738H202.89L202.872 52.5879H207.477C208.309 52.5879 209.001 52.4062 209.552 52.043C210.102 51.6797 210.513 51.1758 210.782 50.5312C211.063 49.8867 211.204 49.1543 211.204 48.334C211.204 47.4551 211.081 46.6934 210.835 46.0488C210.589 45.3926 210.202 44.8887 209.675 44.5371C209.147 44.1738 208.45 43.9922 207.583 43.9922H204.12V66H199.849V40.4062ZM211.766 66L206.897 54.5039L211.345 54.4863L216.337 65.7715V66H211.766ZM226.885 40.4062V66H222.614V40.4062H226.885ZM239.156 40.4062V66H234.885V40.4062H239.156ZM247.453 51.5684V55.1543H238.172V51.5684H247.453ZM248.648 40.4062V43.9922H238.172V40.4062H248.648ZM259.618 40.4062V66H255.347V40.4062H259.618ZM281.874 62.4316V66H270.764V62.4316H281.874ZM271.889 40.4062V66H267.618V40.4062H271.889ZM280.38 51.0586V54.5742H270.764V51.0586H280.38ZM281.768 40.4062V43.9922H270.764V40.4062H281.768ZM294.742 66H290.295L290.33 62.4316H294.742C296.113 62.4316 297.209 62.1797 298.029 61.6758C298.85 61.1602 299.441 60.375 299.805 59.3203C300.168 58.2656 300.35 56.918 300.35 55.2773V51.1113C300.35 49.8457 300.244 48.7676 300.033 47.877C299.834 46.9746 299.518 46.2422 299.084 45.6797C298.662 45.1055 298.106 44.6836 297.414 44.4141C296.723 44.1328 295.891 43.9922 294.918 43.9922H290.207V40.4062H294.918C296.383 40.4062 297.707 40.6406 298.891 41.1094C300.074 41.5781 301.088 42.2695 301.932 43.1836C302.787 44.0859 303.443 45.2051 303.9 46.541C304.357 47.877 304.586 49.4121 304.586 51.1465V55.2773C304.586 57.0117 304.357 58.5469 303.9 59.8828C303.443 61.207 302.787 62.3262 301.932 63.2402C301.076 64.1426 300.045 64.8281 298.838 65.2969C297.631 65.7656 296.266 66 294.742 66ZM292.738 40.4062V66H288.467V40.4062H292.738Z" fill="#324A74"/>
<path d="M164.215 10.9219L158.027 33H153.562L161.684 7.40625H164.461L164.215 10.9219ZM169.154 33L162.949 10.9219L162.65 7.40625H165.48L173.637 33H169.154ZM169.26 23.4902V27.0762H157.342V23.4902H169.26ZM187.559 26.3906C187.559 25.8633 187.5 25.3945 187.383 24.9844C187.277 24.5625 187.072 24.1816 186.768 23.8418C186.463 23.502 186.029 23.168 185.467 22.8398C184.916 22.5117 184.201 22.1777 183.322 21.8379C182.314 21.4512 181.371 21.0293 180.492 20.5723C179.625 20.1035 178.857 19.5762 178.189 18.9902C177.533 18.3926 177.018 17.6953 176.643 16.8984C176.268 16.1016 176.08 15.1758 176.08 14.1211C176.08 13.0781 176.262 12.1289 176.625 11.2734C177 10.4063 177.527 9.66211 178.207 9.04102C178.898 8.4082 179.719 7.92187 180.668 7.58203C181.617 7.23047 182.666 7.05469 183.814 7.05469C185.467 7.05469 186.879 7.40625 188.051 8.10938C189.234 8.8125 190.137 9.75586 190.758 10.9395C191.391 12.123 191.707 13.4355 191.707 14.877H187.453C187.453 14.0449 187.324 13.3066 187.066 12.6621C186.809 12.0176 186.41 11.5137 185.871 11.1504C185.332 10.7871 184.635 10.6055 183.779 10.6055C182.994 10.6055 182.344 10.7578 181.828 11.0625C181.324 11.3672 180.949 11.7832 180.703 12.3105C180.469 12.8379 180.352 13.4414 180.352 14.1211C180.352 14.5898 180.451 15.0176 180.65 15.4043C180.85 15.7793 181.137 16.125 181.512 16.4414C181.887 16.7578 182.344 17.0566 182.883 17.3379C183.422 17.6191 184.043 17.8887 184.746 18.1465C185.941 18.5801 186.984 19.0605 187.875 19.5879C188.766 20.1152 189.498 20.707 190.072 21.3633C190.658 22.0078 191.092 22.7402 191.373 23.5605C191.666 24.3809 191.812 25.3125 191.812 26.3555C191.812 27.4102 191.631 28.3711 191.268 29.2383C190.916 30.0938 190.4 30.8262 189.721 31.4355C189.041 32.0449 188.221 32.5195 187.26 32.8594C186.299 33.1875 185.221 33.3516 184.025 33.3516C182.924 33.3516 181.863 33.1875 180.844 32.8594C179.836 32.5312 178.934 32.0332 178.137 31.3652C177.34 30.6855 176.707 29.8359 176.238 28.8164C175.781 27.7969 175.553 26.6016 175.553 25.2305H179.824C179.824 26.0508 179.924 26.7539 180.123 27.3398C180.322 27.9141 180.609 28.3887 180.984 28.7637C181.371 29.127 181.822 29.3965 182.338 29.5723C182.865 29.7363 183.451 29.8184 184.096 29.8184C184.893 29.8184 185.543 29.6777 186.047 29.3965C186.562 29.1035 186.943 28.6992 187.189 28.1836C187.436 27.668 187.559 27.0703 187.559 26.3906ZM203.871 21.4688H198.65L198.633 18.1992H203.256C203.971 18.1992 204.58 18.0586 205.084 17.7773C205.588 17.4961 205.969 17.0859 206.227 16.5469C206.496 16.0078 206.631 15.3574 206.631 14.5957C206.631 13.752 206.514 13.0664 206.279 12.5391C206.045 12 205.676 11.6074 205.172 11.3613C204.68 11.1152 204.047 10.9922 203.273 10.9922H199.916V33H195.645V7.40625H203.273C204.469 7.40625 205.535 7.54688 206.473 7.82812C207.422 8.09766 208.225 8.51367 208.881 9.07617C209.537 9.63867 210.035 10.3594 210.375 11.2383C210.727 12.1055 210.902 13.1367 210.902 14.332C210.902 15.375 210.68 16.3359 210.234 17.2148C209.789 18.082 209.127 18.7969 208.248 19.3594C207.381 19.9102 206.303 20.2383 205.014 20.3438L203.871 21.4688ZM203.713 33H197.244L199.213 29.4316H203.713C204.475 29.4316 205.102 29.2676 205.594 28.9395C206.086 28.6113 206.455 28.1543 206.701 27.5684C206.947 26.9824 207.07 26.2969 207.07 25.5117C207.07 24.6914 206.965 23.9766 206.754 23.3672C206.543 22.7578 206.203 22.2891 205.734 21.9609C205.266 21.6328 204.645 21.4688 203.871 21.4688H199.564L199.6 18.1992H205.102L206.086 19.4473C207.316 19.4707 208.318 19.7754 209.092 20.3613C209.865 20.9355 210.434 21.6797 210.797 22.5938C211.16 23.5078 211.342 24.4863 211.342 25.5293C211.342 27.1582 211.037 28.5293 210.428 29.6426C209.818 30.7441 208.945 31.582 207.809 32.1562C206.684 32.7188 205.318 33 203.713 33ZM219.146 7.40625L223.348 16.5293L227.443 7.40625H232.242L225.844 20.0801L232.383 33H227.426L223.207 23.6836L218.971 33H214.102L220.693 20.0273L214.242 7.40625H219.146ZM235.6 30.8555C235.6 30.1758 235.816 29.6074 236.25 29.1504C236.695 28.6934 237.305 28.4648 238.078 28.4648C238.852 28.4648 239.455 28.6934 239.889 29.1504C240.334 29.6074 240.557 30.1758 240.557 30.8555C240.557 31.5117 240.334 32.0684 239.889 32.5254C239.455 32.9824 238.852 33.2109 238.078 33.2109C237.305 33.2109 236.695 32.9824 236.25 32.5254C235.816 32.0684 235.6 31.5117 235.6 30.8555ZM263.004 18.1113V22.4707C263.004 24.2754 262.793 25.8574 262.371 27.2168C261.961 28.5762 261.363 29.7129 260.578 30.627C259.805 31.5293 258.867 32.209 257.766 32.666C256.676 33.123 255.457 33.3516 254.109 33.3516C252.773 33.3516 251.555 33.123 250.453 32.666C249.363 32.209 248.42 31.5293 247.623 30.627C246.838 29.7129 246.229 28.5762 245.795 27.2168C245.373 25.8574 245.162 24.2754 245.162 22.4707V18.1113C245.162 16.2832 245.373 14.6836 245.795 13.3125C246.217 11.9297 246.82 10.7754 247.605 9.84961C248.402 8.92383 249.346 8.22656 250.436 7.75781C251.537 7.28906 252.75 7.05469 254.074 7.05469C255.422 7.05469 256.641 7.28906 257.73 7.75781C258.832 8.22656 259.775 8.92383 260.561 9.84961C261.346 10.7754 261.949 11.9297 262.371 13.3125C262.793 14.6836 263.004 16.2832 263.004 18.1113ZM258.768 22.4707V18.0762C258.768 16.7754 258.662 15.6621 258.451 14.7363C258.252 13.7988 257.953 13.0371 257.555 12.4512C257.156 11.8535 256.664 11.4141 256.078 11.1328C255.504 10.8398 254.836 10.6934 254.074 10.6934C253.336 10.6934 252.674 10.8398 252.088 11.1328C251.514 11.4141 251.021 11.8535 250.611 12.4512C250.213 13.0371 249.908 13.7988 249.697 14.7363C249.498 15.6621 249.398 16.7754 249.398 18.0762V22.4707C249.398 23.748 249.504 24.8496 249.715 25.7754C249.926 26.6895 250.23 27.4395 250.629 28.0254C251.039 28.5996 251.537 29.0273 252.123 29.3086C252.709 29.5898 253.371 29.7305 254.109 29.7305C254.859 29.7305 255.527 29.5898 256.113 29.3086C256.699 29.0273 257.186 28.5996 257.572 28.0254C257.971 27.4395 258.27 26.6895 258.469 25.7754C258.668 24.8496 258.768 23.748 258.768 22.4707ZM267.346 7.40625H275.08C276.768 7.40625 278.197 7.69922 279.369 8.28516C280.541 8.87109 281.432 9.73828 282.041 10.8867C282.662 12.0234 282.973 13.4355 282.973 15.123C282.973 16.4004 282.779 17.5254 282.393 18.498C282.018 19.4707 281.473 20.291 280.758 20.959C280.043 21.6152 279.182 22.125 278.174 22.4883L276.926 23.1738H270.387L270.369 19.5879H274.975C275.807 19.5879 276.498 19.4062 277.049 19.043C277.6 18.6797 278.01 18.1758 278.279 17.5312C278.561 16.8867 278.701 16.1543 278.701 15.334C278.701 14.4551 278.578 13.6934 278.332 13.0488C278.086 12.3926 277.699 11.8887 277.172 11.5371C276.645 11.1738 275.947 10.9922 275.08 10.9922H271.617V33H267.346V7.40625ZM279.264 33L274.395 21.5039L278.842 21.4863L283.834 32.7715V33H279.264ZM303.627 19.8691V29.959C303.311 30.3457 302.83 30.8086 302.186 31.3477C301.553 31.875 300.697 32.3438 299.619 32.7539C298.553 33.1523 297.205 33.3516 295.576 33.3516C294.205 33.3516 292.951 33.1289 291.814 32.6836C290.689 32.2383 289.723 31.5645 288.914 30.6621C288.105 29.7598 287.484 28.6348 287.051 27.2871C286.617 25.9277 286.4 24.3223 286.4 22.4707V17.918C286.4 16.0898 286.594 14.4961 286.98 13.1367C287.379 11.7773 287.959 10.6465 288.721 9.74414C289.482 8.83008 290.408 8.15625 291.498 7.72266C292.588 7.27734 293.842 7.05469 295.26 7.05469C297.053 7.05469 298.547 7.37109 299.742 8.00391C300.949 8.625 301.869 9.55078 302.502 10.7812C303.146 12 303.521 13.4883 303.627 15.2461H299.461C299.367 14.168 299.162 13.2949 298.846 12.627C298.541 11.9473 298.102 11.4434 297.527 11.1152C296.953 10.7871 296.215 10.623 295.312 10.623C294.492 10.623 293.789 10.7637 293.203 11.0449C292.617 11.3262 292.137 11.7656 291.762 12.3633C291.387 12.9492 291.111 13.6992 290.936 14.6133C290.76 15.5273 290.672 16.6172 290.672 17.8828V22.4707C290.672 23.7598 290.783 24.8672 291.006 25.793C291.229 26.7188 291.551 27.4805 291.973 28.0781C292.406 28.6641 292.939 29.0977 293.572 29.3789C294.205 29.6484 294.926 29.7832 295.734 29.7832C296.531 29.7832 297.164 29.7012 297.633 29.5371C298.102 29.373 298.465 29.1914 298.723 28.9922C298.992 28.7812 299.209 28.6172 299.373 28.5V23.2266H295.242V19.8691H303.627Z" fill="#BC2649"/>
<line x1="153" y1="76.5" x2="313" y2="76.5" stroke="black"/>
</svg>
