<svg width="62" height="62" viewBox="0 0 62 62" fill="none" xmlns="http://www.w3.org/2000/svg">
<path d="M49.2198 29.4002C49.7885 29.3351 50.3051 29.7435 50.3397 30.3148C50.5742 34.191 49.6384 38.0573 47.6416 41.4065C45.4675 45.053 42.1558 47.8844 38.2158 49.4655C34.2758 51.0467 29.9255 51.2899 25.8338 50.1579C21.7421 49.0259 18.1354 46.5813 15.5683 43.1999C13.0012 39.8185 11.6158 35.6876 11.625 31.4421C11.6343 27.1967 13.0377 23.0718 15.6195 19.7017C18.2014 16.3315 21.8186 13.9027 25.9153 12.7885C29.6778 11.7652 33.6534 11.9029 37.324 13.1705C37.865 13.3573 38.1195 13.9647 37.904 14.495V14.495C37.6885 15.0252 37.0848 15.2772 36.5426 15.0939C33.2939 13.9953 29.7835 13.8845 26.4592 14.7886C22.8009 15.7836 19.5706 17.9526 17.265 20.9622C14.9593 23.9718 13.7061 27.6554 13.6978 31.4467C13.6895 35.2379 14.9267 38.9269 17.2192 41.9466C19.5117 44.9662 22.7325 47.1493 26.3865 48.1602C30.0405 49.1711 33.9254 48.9539 37.4439 47.5419C40.9624 46.1299 43.9197 43.6014 45.8613 40.345C47.6255 37.386 48.4622 33.975 48.277 30.5506C48.2461 29.979 48.6511 29.4652 49.2198 29.4002V29.4002Z" fill="white"/>
<path fill-rule="evenodd" clip-rule="evenodd" d="M46.625 16.5312C46.625 15.4267 45.7296 14.5312 44.625 14.5312C43.5204 14.5312 42.625 15.4267 42.625 16.5312V16.8281H40.2656C39.1611 16.8281 38.2656 17.7236 38.2656 18.8281C38.2656 19.9327 39.1611 20.8281 40.2656 20.8281H42.625V23.1875C42.625 24.2921 43.5204 25.1875 44.625 25.1875C45.7296 25.1875 46.625 24.2921 46.625 23.1875V20.8281H46.9219C48.0264 20.8281 48.9219 19.9327 48.9219 18.8281C48.9219 17.7236 48.0264 16.8281 46.9219 16.8281H46.625V16.5312Z" fill="white"/>
<path d="M30.9047 41.6563C30.5952 41.6563 30.342 41.5493 30.145 41.3354C29.9481 41.1357 29.8496 40.8861 29.8496 40.5867V39.132C28.9914 39.075 28.2247 38.9395 27.5494 38.7256C26.8882 38.4974 26.3184 38.2478 25.8401 37.9768C25.5165 37.7914 25.3125 37.5419 25.2281 37.2281C25.1577 36.9144 25.1788 36.6149 25.2914 36.3297C25.4039 36.0444 25.5939 35.8448 25.8612 35.7307C26.1285 35.6166 26.445 35.6665 26.8108 35.8804C27.2047 36.1086 27.7182 36.3297 28.3513 36.5436C28.9984 36.7432 29.7722 36.8431 30.6726 36.8431C31.7277 36.8431 32.4874 36.6577 32.9517 36.2869C33.4159 35.9018 33.6481 35.4241 33.6481 34.8536C33.6481 34.383 33.4863 33.9979 33.1627 33.6984C32.8391 33.399 32.2623 33.1565 31.4323 32.9711L29.1954 32.4791C26.649 31.9229 25.3758 30.5681 25.3758 28.4146C25.3758 27.2167 25.7768 26.2113 26.5787 25.3984C27.3946 24.5712 28.4849 24.0721 29.8496 23.9009V22.3821C29.8496 22.0826 29.9481 21.833 30.145 21.6334C30.342 21.4195 30.5952 21.3125 30.9047 21.3125C31.2002 21.3125 31.4464 21.4195 31.6433 21.6334C31.8543 21.833 31.9599 22.0826 31.9599 22.3821V23.8795C32.5226 23.9366 33.1135 24.0721 33.7325 24.286C34.3656 24.4999 34.9142 24.7923 35.3785 25.1631C35.6458 25.377 35.8006 25.6265 35.8428 25.9118C35.885 26.1827 35.8357 26.4394 35.695 26.6819C35.5684 26.9101 35.3644 27.0669 35.0831 27.1525C34.8158 27.2238 34.4992 27.1525 34.1334 26.9386C33.7255 26.6961 33.2682 26.5036 32.7618 26.361C32.2553 26.2041 31.6504 26.1257 30.9469 26.1257C30.0465 26.1257 29.3361 26.3325 28.8155 26.7461C28.3091 27.1454 28.0559 27.673 28.0559 28.3291C28.0559 28.8139 28.2106 29.2061 28.5201 29.5056C28.8296 29.7908 29.3572 30.019 30.1028 30.1902L32.403 30.7036C33.7536 31.0031 34.7454 31.4808 35.3785 32.1368C36.0116 32.7786 36.3281 33.6271 36.3281 34.6825C36.3281 35.8804 35.9201 36.8645 35.1042 37.6346C34.3023 38.3904 33.2542 38.8682 31.9599 39.0678V40.5867C31.9599 40.8861 31.8614 41.1357 31.6644 41.3354C31.4675 41.5493 31.2142 41.6563 30.9047 41.6563Z" fill="white"/>
</svg>
