<svg width="53" height="53" viewBox="0 0 53 53" fill="none" xmlns="http://www.w3.org/2000/svg">
<path d="M42.075 25.1324C42.5611 25.0768 43.0028 25.4259 43.0323 25.9143C43.2327 29.2278 42.4328 32.5329 40.7259 35.3958C38.8674 38.513 36.0364 40.9335 32.6684 42.2851C29.3003 43.6367 25.5815 43.8446 22.0837 42.8769C18.5859 41.9092 15.5028 39.8195 13.3084 36.9289C11.1139 34.0384 9.92963 30.5071 9.93754 26.878C9.94545 23.2488 11.1451 19.7227 13.3522 16.8418C15.5592 13.9608 18.6514 11.8845 22.1534 10.9321C25.3697 10.0573 28.7682 10.1751 31.906 11.2586C32.3685 11.4184 32.586 11.9376 32.4018 12.3909V12.3909C32.2176 12.8442 31.7015 13.0596 31.238 12.9028C28.4609 11.9637 25.46 11.869 22.6184 12.6419C19.4911 13.4924 16.7297 15.3466 14.7587 17.9193C12.7878 20.492 11.7165 23.6409 11.7094 26.8818C11.7023 30.1227 12.76 33.2762 14.7196 35.8575C16.6793 38.4388 19.4326 40.305 22.5562 41.1692C25.6798 42.0334 29.0007 41.8477 32.0085 40.6407C35.0162 39.4336 37.5443 37.2721 39.204 34.4885C40.7121 31.959 41.4273 29.0431 41.2691 26.1158C41.2427 25.6272 41.5889 25.188 42.075 25.1324V25.1324Z" fill="#FF4043"/>
<path fill-rule="evenodd" clip-rule="evenodd" d="M40.363 13.8792C40.1265 13.0383 39.354 12.4219 38.4375 12.4219C37.5483 12.4219 36.7946 13.0022 36.5345 13.8047H34.7109C33.6064 13.8047 32.7109 14.7001 32.7109 15.8047C32.7109 16.9093 33.6064 17.8047 34.7109 17.8047H36.4375V19.5312C36.4375 20.6358 37.3329 21.5312 38.4375 21.5312C39.5421 21.5312 40.4375 20.6358 40.4375 19.5312V17.7076C41.24 17.4475 41.8203 16.6939 41.8203 15.8047C41.8203 14.8882 41.2039 14.1157 40.363 13.8792Z" fill="white"/>
<path d="M26.4186 35.6094C26.154 35.6094 25.9375 35.5179 25.7691 35.3351C25.6008 35.1644 25.5166 34.9511 25.5166 34.695V33.4515C24.783 33.4028 24.1275 33.287 23.5503 33.1041C22.985 32.909 22.498 32.6957 22.0891 32.4641C21.8125 32.3056 21.6381 32.0922 21.5659 31.824C21.5058 31.5558 21.5238 31.2998 21.6201 31.056C21.7163 30.8122 21.8786 30.6415 22.1071 30.544C22.3356 30.4464 22.6062 30.4891 22.9189 30.672C23.2556 30.867 23.6946 31.056 24.2358 31.2389C24.789 31.4095 25.4504 31.4949 26.2201 31.4949C27.1221 31.4949 27.7715 31.3364 28.1684 31.0194C28.5652 30.6903 28.7637 30.2819 28.7637 29.7942C28.7637 29.3919 28.6254 29.0627 28.3488 28.8067C28.0722 28.5507 27.5791 28.3435 26.8695 28.185L24.9574 27.7644C22.7806 27.2889 21.6922 26.1308 21.6922 24.2899C21.6922 23.2659 22.035 22.4064 22.7205 21.7115C23.418 21.0044 24.35 20.5777 25.5166 20.4314V19.1331C25.5166 18.8771 25.6008 18.6637 25.7691 18.4931C25.9375 18.3102 26.154 18.2188 26.4186 18.2188C26.6711 18.2188 26.8816 18.3102 27.0499 18.4931C27.2303 18.6637 27.3205 18.8771 27.3205 19.1331V20.4132C27.8016 20.4619 28.3067 20.5777 28.8358 20.7606C29.377 20.9435 29.846 21.1934 30.2429 21.5104C30.4714 21.6932 30.6037 21.9066 30.6398 22.1504C30.6759 22.382 30.6338 22.6015 30.5135 22.8087C30.4053 23.0038 30.2309 23.1379 29.9904 23.211C29.7619 23.272 29.4913 23.211 29.1786 23.0281C28.8298 22.8209 28.439 22.6563 28.006 22.5344C27.5731 22.4003 27.0559 22.3333 26.4546 22.3333C25.6849 22.3333 25.0776 22.51 24.6326 22.8636C24.1997 23.2049 23.9832 23.656 23.9832 24.2168C23.9832 24.6313 24.1155 24.9665 24.3801 25.2225C24.6447 25.4664 25.0957 25.6614 25.7331 25.8077L27.6994 26.2466C28.8539 26.5026 29.7017 26.911 30.2429 27.4718C30.7841 28.0204 31.0547 28.7458 31.0547 29.6479C31.0547 30.672 30.7059 31.5132 30.0084 32.1715C29.3229 32.8176 28.4269 33.226 27.3205 33.3967V34.695C27.3205 34.9511 27.2363 35.1644 27.068 35.3351C26.8996 35.5179 26.6831 35.6094 26.4186 35.6094Z" fill="#FF4043"/>
</svg>
