<svg width="25" height="28" viewBox="0 0 25 28" fill="none" xmlns="http://www.w3.org/2000/svg">
<path d="M3.42778 18.7167L1 26L8.28333 23.5722C11.6098 25.2525 15.6792 25.0578 18.8472 23.0985C22.3253 20.9477 24 17.2048 24 13.2223C23.6997 7.77878 19.2212 3.30035 13.7778 3.00004H13.1389C11.4524 2.99564 9.78871 3.38967 8.28333 4.15004C6.47943 5.0516 4.96217 6.43758 3.90148 8.15274C2.84078 9.8679 2.27856 11.8445 2.27778 13.8611C2.27338 15.5476 2.66741 17.2113 3.42778 18.7167Z" stroke="white" stroke-width="2" stroke-linecap="round" stroke-linejoin="round"/>
<path d="M6.60547 11.3125V17H5.46094V11.3125H6.60547ZM8.38672 13.7305V14.6758H6.31641V13.7305H8.38672ZM8.60547 11.3125V12.2617H6.31641V11.3125H8.60547ZM9.27734 11.3125H11.1016C11.4818 11.3125 11.806 11.3776 12.0742 11.5078C12.3424 11.638 12.5482 11.8307 12.6914 12.0859C12.8346 12.3411 12.9062 12.6562 12.9062 13.0312C12.9062 13.3385 12.8646 13.6016 12.7812 13.8203C12.6979 14.0365 12.5794 14.2174 12.4258 14.3633C12.2721 14.5065 12.0885 14.6211 11.875 14.707L11.5273 14.9141H10.0469L10.043 13.9648H11.0703C11.2266 13.9648 11.3555 13.931 11.457 13.8633C11.5612 13.793 11.638 13.6953 11.6875 13.5703C11.7396 13.4427 11.7656 13.2943 11.7656 13.125C11.7656 12.9453 11.7422 12.7917 11.6953 12.6641C11.651 12.5339 11.5794 12.4349 11.4805 12.3672C11.3841 12.2969 11.2578 12.2617 11.1016 12.2617H10.4219V17H9.27734V11.3125ZM11.8594 17L10.8164 14.4648L12.0156 14.4609L13.082 16.9453V17H11.8594ZM16.9648 16.0547V17H14.4922V16.0547H16.9648ZM14.8477 11.3125V17H13.7031V11.3125H14.8477ZM16.6328 13.6172V14.5352H14.4922V13.6172H16.6328ZM16.957 11.3125V12.2617H14.4922V11.3125H16.957ZM20.8945 16.0547V17H18.4219V16.0547H20.8945ZM18.7773 11.3125V17H17.6328V11.3125H18.7773ZM20.5625 13.6172V14.5352H18.4219V13.6172H20.5625ZM20.8867 11.3125V12.2617H18.4219V11.3125H20.8867Z" fill="white"/>
</svg>
