<svg width="20" height="20" viewBox="0 0 20 20" fill="none" xmlns="http://www.w3.org/2000/svg">
<g clip-path="url(#clip0_2228_3805)">
<path d="M14.5834 5.39641H14.5917M5.83335 1.6604H14.1667C16.4679 1.6604 18.3334 3.51892 18.3334 5.81152V14.1138C18.3334 16.4064 16.4679 18.2649 14.1667 18.2649H5.83335C3.53217 18.2649 1.66669 16.4064 1.66669 14.1138V5.81152C1.66669 3.51892 3.53217 1.6604 5.83335 1.6604ZM13.3334 9.43959C13.4362 10.1305 13.3177 10.8362 12.9948 11.4562C12.6719 12.0762 12.161 12.579 11.5347 12.8931C10.9085 13.2071 10.1987 13.3164 9.50652 13.2054C8.8143 13.0945 8.17483 12.7689 7.67906 12.2749C7.1833 11.781 6.85647 11.1439 6.74509 10.4543C6.6337 9.76467 6.74342 9.0576 7.05864 8.43367C7.37385 7.80974 7.87852 7.30072 8.50085 6.97901C9.12318 6.6573 9.83149 6.53928 10.525 6.64174C11.2325 6.74625 11.8874 7.07467 12.3931 7.57849C12.8988 8.0823 13.2285 8.7348 13.3334 9.43959Z" stroke="#324A74" stroke-width="2" stroke-linecap="round" stroke-linejoin="round"/>
</g>
<defs>
<clipPath id="clip0_2228_3805">
<rect width="20" height="19.9254" fill="white"/>
</clipPath>
</defs>
</svg>
