<svg width="22" height="20" viewBox="0 0 22 20" fill="none" xmlns="http://www.w3.org/2000/svg">
<g clip-path="url(#clip0_1136_905)">
<path d="M16.2707 5.39616H16.2794M7.09033 1.66016H15.8335C18.2479 1.66016 20.2051 3.51868 20.2051 5.81128V14.1135C20.2051 16.4061 18.2479 18.2646 15.8335 18.2646H7.09033C4.67597 18.2646 2.71875 16.4061 2.71875 14.1135V5.81128C2.71875 3.51868 4.67597 1.66016 7.09033 1.66016ZM14.9592 9.43935C15.0671 10.1303 14.9428 10.836 14.604 11.456C14.2652 12.076 13.7292 12.5788 13.0721 12.8928C12.415 13.2069 11.6704 13.3162 10.9441 13.2052C10.2179 13.0942 9.54697 12.7686 9.02682 12.2747C8.50667 11.7808 8.16377 11.1437 8.04691 10.4541C7.93004 9.76443 8.04516 9.05736 8.37588 8.43343C8.7066 7.8095 9.23608 7.30048 9.88902 6.97877C10.542 6.65706 11.2851 6.53904 12.0127 6.6415C12.755 6.74601 13.4421 7.07443 13.9727 7.57824C14.5033 8.08206 14.8491 8.73455 14.9592 9.43935Z" stroke="white" stroke-width="2" stroke-linecap="round" stroke-linejoin="round"/>
</g>
<defs>
<clipPath id="clip0_1136_905">
<rect width="20.9836" height="19.9254" fill="white" transform="translate(0.96875)"/>
</clipPath>
</defs>
</svg>
