<svg width="78" height="78" viewBox="0 0 78 78" fill="none" xmlns="http://www.w3.org/2000/svg">
<g filter="url(#filter0_d_1611_2753)">
<circle cx="39" cy="35" r="35" fill="#BC2649"/>
<circle cx="39" cy="35" r="34.5" stroke="#324A74" stroke-opacity="0.31"/>
</g>
<path d="M43.3926 13.3438L42.4551 42.875H35.6289L34.6328 13.3438H43.3926ZM34.5156 51.9863C34.5156 50.7363 34.9258 49.6816 35.7461 48.8223C36.5664 47.9434 37.6504 47.5039 38.998 47.5039C40.3848 47.5039 41.4785 47.9434 42.2793 48.8223C43.0996 49.6816 43.5098 50.7363 43.5098 51.9863C43.5098 53.2559 43.0996 54.3301 42.2793 55.209C41.4785 56.0684 40.3848 56.498 38.998 56.498C37.6504 56.498 36.5664 56.0684 35.7461 55.209C34.9258 54.3301 34.5156 53.2559 34.5156 51.9863Z" fill="white"/>
<defs>
<filter id="filter0_d_1611_2753" x="0" y="0" width="78" height="78" filterUnits="userSpaceOnUse" color-interpolation-filters="sRGB">
<feFlood flood-opacity="0" result="BackgroundImageFix"/>
<feColorMatrix in="SourceAlpha" type="matrix" values="0 0 0 0 0 0 0 0 0 0 0 0 0 0 0 0 0 0 127 0" result="hardAlpha"/>
<feOffset dy="4"/>
<feGaussianBlur stdDeviation="2"/>
<feComposite in2="hardAlpha" operator="out"/>
<feColorMatrix type="matrix" values="0 0 0 0 0 0 0 0 0 0 0 0 0 0 0 0 0 0 0.25 0"/>
<feBlend mode="normal" in2="BackgroundImageFix" result="effect1_dropShadow_1611_2753"/>
<feBlend mode="normal" in="SourceGraphic" in2="effect1_dropShadow_1611_2753" result="shape"/>
</filter>
</defs>
</svg>
