<svg width="16" height="23" viewBox="0 0 16 23" fill="none" xmlns="http://www.w3.org/2000/svg">
<path d="M7.99922 22.4996L7.51922 21.9596C7.21922 21.6596 0.199219 13.3796 0.199219 8.39961C0.199219 4.07961 3.67922 0.599609 7.99922 0.599609C12.3192 0.599609 15.7992 4.07961 15.7992 8.39961C15.7992 13.3796 8.77922 21.6596 8.47922 22.0196L7.99922 22.4996ZM7.99922 1.79961C4.33922 1.79961 1.39922 4.73961 1.39922 8.39961C1.39922 12.2396 6.43922 18.7196 7.99922 20.6396C9.55922 18.7196 14.5992 12.2396 14.5992 8.39961C14.5992 4.73961 11.6592 1.79961 7.99922 1.79961Z" fill="#444444"/>
<path d="M8 11.4004C6.32 11.4004 5 10.0804 5 8.40039C5 6.72039 6.32 5.40039 8 5.40039C9.68 5.40039 11 6.72039 11 8.40039C11 10.0804 9.68 11.4004 8 11.4004ZM8 6.60039C6.98 6.60039 6.2 7.38039 6.2 8.40039C6.2 9.42039 6.98 10.2004 8 10.2004C9.02 10.2004 9.8 9.42039 9.8 8.40039C9.8 7.38039 9.02 6.60039 8 6.60039Z" fill="#444444"/>
</svg>
