<svg width="14" height="16" viewBox="0 0 14 16" fill="none" xmlns="http://www.w3.org/2000/svg">
<path d="M11.889 5.78948C11.889 7.78049 9.93222 10.4028 8.55285 12.004C7.84143 12.8298 6.60325 12.8298 5.89182 12.004C4.51245 10.4028 2.55566 7.78049 2.55566 5.78948C2.55566 2.71477 4.645 1 7.22234 1C9.79967 1 11.889 2.71477 11.889 5.78948Z" stroke="black" stroke-linejoin="round"/>
<circle cx="7.22255" cy="4.88893" r="1.55556" stroke="#FF4043"/>
<path d="M9.16668 11.2524H9.55557C11.8359 11.5409 13.4445 12.2395 13.4445 13.0555C13.4445 14.1294 10.6587 15 7.22223 15C3.78579 15 1 14.1294 1 13.0555C1 12.2395 2.60858 11.5409 4.88889 11.2524H5.27778" stroke="black"/>
</svg>
