<svg width="91" height="22" viewBox="0 0 91 22" fill="none" xmlns="http://www.w3.org/2000/svg">
<path d="M6.23047 5.73438L2.79297 18H0.3125L4.82422 3.78125H6.36719L6.23047 5.73438ZM8.97461 18L5.52734 5.73438L5.36133 3.78125H6.93359L11.4648 18H8.97461ZM9.0332 12.7168V14.709H2.41211V12.7168H9.0332ZM19.1992 14.3281C19.1992 14.0352 19.1667 13.7747 19.1016 13.5469C19.043 13.3125 18.929 13.1009 18.7598 12.9121C18.5905 12.7233 18.3496 12.5378 18.0371 12.3555C17.7311 12.1732 17.334 11.9876 16.8457 11.7988C16.2858 11.584 15.7617 11.3496 15.2734 11.0957C14.7917 10.8353 14.3652 10.5423 13.9941 10.2168C13.6296 9.88477 13.3431 9.4974 13.1348 9.05469C12.9264 8.61198 12.8223 8.09766 12.8223 7.51172C12.8223 6.93229 12.9232 6.40495 13.125 5.92969C13.3333 5.44792 13.6263 5.03451 14.0039 4.68945C14.388 4.33789 14.8438 4.06771 15.3711 3.87891C15.8984 3.68359 16.4811 3.58594 17.1191 3.58594C18.0371 3.58594 18.8216 3.78125 19.4727 4.17188C20.1302 4.5625 20.6315 5.08659 20.9766 5.74414C21.3281 6.40169 21.5039 7.13086 21.5039 7.93164H19.1406C19.1406 7.4694 19.069 7.05924 18.9258 6.70117C18.7826 6.3431 18.5612 6.06315 18.2617 5.86133C17.9622 5.65951 17.5749 5.55859 17.0996 5.55859C16.6634 5.55859 16.3021 5.64323 16.0156 5.8125C15.7357 5.98177 15.5273 6.21289 15.3906 6.50586C15.2604 6.79883 15.1953 7.13411 15.1953 7.51172C15.1953 7.77214 15.2507 8.00977 15.3613 8.22461C15.472 8.43294 15.6315 8.625 15.8398 8.80078C16.0482 8.97656 16.3021 9.14258 16.6016 9.29883C16.901 9.45508 17.2461 9.60482 17.6367 9.74805C18.3008 9.98893 18.8802 10.2559 19.375 10.5488C19.8698 10.8418 20.2767 11.1706 20.5957 11.5352C20.9212 11.8932 21.1621 12.3001 21.3184 12.7559C21.4811 13.2116 21.5625 13.7292 21.5625 14.3086C21.5625 14.8945 21.4616 15.4284 21.2598 15.9102C21.0645 16.3854 20.778 16.7923 20.4004 17.1309C20.0228 17.4694 19.5671 17.7331 19.0332 17.9219C18.4993 18.1042 17.9004 18.1953 17.2363 18.1953C16.6243 18.1953 16.0352 18.1042 15.4688 17.9219C14.9089 17.7396 14.4076 17.4629 13.9648 17.0918C13.5221 16.7142 13.1706 16.2422 12.9102 15.6758C12.6562 15.1094 12.5293 14.4453 12.5293 13.6836H14.9023C14.9023 14.1393 14.9577 14.5299 15.0684 14.8555C15.179 15.1745 15.3385 15.4382 15.5469 15.6465C15.7617 15.8483 16.0124 15.998 16.2988 16.0957C16.5918 16.1868 16.9173 16.2324 17.2754 16.2324C17.7181 16.2324 18.0794 16.1543 18.3594 15.998C18.6458 15.8353 18.8574 15.6107 18.9941 15.3242C19.1309 15.0378 19.1992 14.7057 19.1992 14.3281ZM28.2617 11.5938H25.3613L25.3516 9.77734H27.9199C28.3171 9.77734 28.6556 9.69922 28.9355 9.54297C29.2155 9.38672 29.4271 9.15885 29.5703 8.85938C29.7201 8.5599 29.7949 8.19857 29.7949 7.77539C29.7949 7.30664 29.7298 6.92578 29.5996 6.63281C29.4694 6.33333 29.2643 6.11523 28.9844 5.97852C28.7109 5.8418 28.3594 5.77344 27.9297 5.77344H26.0645V18H23.6914V3.78125H27.9297C28.5938 3.78125 29.1862 3.85938 29.707 4.01562C30.2344 4.16536 30.6803 4.39648 31.0449 4.70898C31.4095 5.02148 31.6862 5.42188 31.875 5.91016C32.0703 6.39193 32.168 6.96484 32.168 7.62891C32.168 8.20833 32.0443 8.74219 31.7969 9.23047C31.5495 9.71224 31.1816 10.1094 30.6934 10.4219C30.2116 10.7279 29.6126 10.9102 28.8965 10.9688L28.2617 11.5938ZM28.1738 18H24.5801L25.6738 16.0176H28.1738C28.597 16.0176 28.9453 15.9264 29.2188 15.7441C29.4922 15.5618 29.6973 15.3079 29.834 14.9824C29.9707 14.6569 30.0391 14.276 30.0391 13.8398C30.0391 13.3841 29.9805 12.987 29.8633 12.6484C29.7461 12.3099 29.5573 12.0495 29.2969 11.8672C29.0365 11.6849 28.6914 11.5938 28.2617 11.5938H25.8691L25.8887 9.77734H28.9453L29.4922 10.4707C30.1758 10.4837 30.7324 10.653 31.1621 10.9785C31.5918 11.2975 31.9076 11.7109 32.1094 12.2188C32.3112 12.7266 32.4121 13.2702 32.4121 13.8496C32.4121 14.7546 32.2428 15.5163 31.9043 16.1348C31.5658 16.7467 31.0807 17.2122 30.4492 17.5312C29.8242 17.8438 29.0658 18 28.1738 18ZM36.748 3.78125L39.082 8.84961L41.3574 3.78125H44.0234L40.4688 10.8223L44.1016 18H41.3477L39.0039 12.8242L36.6504 18H33.9453L37.6074 10.793L34.0234 3.78125H36.748Z" fill="#324A74"/>
<path d="M53.6654 10.9997C53.6654 13.0247 52.0237 14.6663 49.9987 14.6663C47.9737 14.6663 46.332 13.0247 46.332 10.9997C46.332 8.97463 47.9737 7.33301 49.9987 7.33301C52.0237 7.33301 53.6654 8.97463 53.6654 10.9997Z" fill="#BC2649"/>
<path d="M66.9766 9.72852V12.1504C66.9766 13.153 66.8594 14.0319 66.625 14.7871C66.3971 15.5423 66.0651 16.1738 65.6289 16.6816C65.1992 17.1829 64.6784 17.5605 64.0664 17.8145C63.4609 18.0684 62.7839 18.1953 62.0352 18.1953C61.293 18.1953 60.6159 18.0684 60.0039 17.8145C59.3984 17.5605 58.8743 17.1829 58.4316 16.6816C57.9954 16.1738 57.6569 15.5423 57.416 14.7871C57.1816 14.0319 57.0645 13.153 57.0645 12.1504V9.72852C57.0645 8.71289 57.1816 7.82422 57.416 7.0625C57.6504 6.29427 57.9857 5.65299 58.4219 5.13867C58.8646 4.62435 59.3887 4.23698 59.9941 3.97656C60.6061 3.71615 61.2799 3.58594 62.0156 3.58594C62.7643 3.58594 63.4414 3.71615 64.0469 3.97656C64.6589 4.23698 65.1829 4.62435 65.6191 5.13867C66.0553 5.65299 66.3906 6.29427 66.625 7.0625C66.8594 7.82422 66.9766 8.71289 66.9766 9.72852ZM64.623 12.1504V9.70898C64.623 8.98633 64.5645 8.36784 64.4473 7.85352C64.3366 7.33268 64.1706 6.90951 63.9492 6.58398C63.7279 6.25195 63.4544 6.00781 63.1289 5.85156C62.8099 5.6888 62.4388 5.60742 62.0156 5.60742C61.6055 5.60742 61.2376 5.6888 60.9121 5.85156C60.5931 6.00781 60.3197 6.25195 60.0918 6.58398C59.8704 6.90951 59.7012 7.33268 59.584 7.85352C59.4733 8.36784 59.418 8.98633 59.418 9.70898V12.1504C59.418 12.86 59.4766 13.472 59.5938 13.9863C59.7109 14.4941 59.8802 14.9108 60.1016 15.2363C60.3294 15.5553 60.6061 15.793 60.9316 15.9492C61.2572 16.1055 61.625 16.1836 62.0352 16.1836C62.4518 16.1836 62.8229 16.1055 63.1484 15.9492C63.474 15.793 63.7441 15.5553 63.959 15.2363C64.1803 14.9108 64.3464 14.4941 64.457 13.9863C64.5677 13.472 64.623 12.86 64.623 12.1504ZM69.3887 3.78125H73.6855C74.623 3.78125 75.4173 3.94401 76.0684 4.26953C76.7194 4.59505 77.2142 5.07682 77.5527 5.71484C77.8978 6.34635 78.0703 7.13086 78.0703 8.06836C78.0703 8.77799 77.9629 9.40299 77.748 9.94336C77.5397 10.4837 77.237 10.9395 76.8398 11.3105C76.4427 11.6751 75.9642 11.9583 75.4043 12.1602L74.7109 12.541H71.0781L71.0684 10.5488H73.627C74.0892 10.5488 74.4733 10.4479 74.7793 10.2461C75.0853 10.0443 75.3132 9.76432 75.4629 9.40625C75.6191 9.04818 75.6973 8.64128 75.6973 8.18555C75.6973 7.69727 75.6289 7.27409 75.4922 6.91602C75.3555 6.55143 75.1406 6.27148 74.8477 6.07617C74.5547 5.87435 74.1673 5.77344 73.6855 5.77344H71.7617V18H69.3887V3.78125ZM76.0098 18L73.3047 11.6133L75.7754 11.6035L78.5488 17.873V18H76.0098ZM89.5449 10.7051V16.3105C89.3691 16.5254 89.1022 16.7826 88.7441 17.082C88.3926 17.375 87.9173 17.6354 87.3184 17.8633C86.7259 18.0846 85.9772 18.1953 85.0723 18.1953C84.3105 18.1953 83.6139 18.0716 82.9824 17.8242C82.3574 17.5768 81.8203 17.2025 81.3711 16.7012C80.9219 16.1999 80.5768 15.5749 80.3359 14.8262C80.0951 14.071 79.9746 13.179 79.9746 12.1504V9.62109C79.9746 8.60547 80.082 7.72005 80.2969 6.96484C80.5182 6.20964 80.8405 5.58138 81.2637 5.08008C81.6868 4.57227 82.2012 4.19792 82.8066 3.95703C83.4121 3.70964 84.1087 3.58594 84.8965 3.58594C85.8926 3.58594 86.7227 3.76172 87.3867 4.11328C88.0573 4.45833 88.5684 4.97266 88.9199 5.65625C89.278 6.33333 89.4863 7.16016 89.5449 8.13672H87.2305C87.1784 7.53776 87.0645 7.05273 86.8887 6.68164C86.7194 6.30404 86.4753 6.02409 86.1562 5.8418C85.8372 5.65951 85.4271 5.56836 84.9258 5.56836C84.4701 5.56836 84.0794 5.64648 83.7539 5.80273C83.4284 5.95898 83.1615 6.20312 82.9531 6.53516C82.7448 6.86068 82.5918 7.27734 82.4941 7.78516C82.3965 8.29297 82.3477 8.89844 82.3477 9.60156V12.1504C82.3477 12.8665 82.4095 13.4818 82.5332 13.9961C82.6569 14.5104 82.8359 14.9336 83.0703 15.2656C83.3112 15.5911 83.6074 15.832 83.959 15.9883C84.3105 16.138 84.7109 16.2129 85.1602 16.2129C85.6029 16.2129 85.9544 16.1673 86.2148 16.0762C86.4753 15.985 86.6771 15.8841 86.8203 15.7734C86.9701 15.6562 87.0905 15.5651 87.1816 15.5V12.5703H84.8867V10.7051H89.5449Z" fill="#324A74"/>
</svg>
