<svg width="113" height="113" viewBox="0 0 113 113" fill="none" xmlns="http://www.w3.org/2000/svg">
<circle cx="56.5" cy="56.5" r="56.5" fill="white"/>
<g clip-path="url(#clip0_1844_2907)">
<path d="M56.2853 102.957C81.5029 102.957 101.946 82.0616 101.946 56.2854C101.946 30.5091 81.5029 9.61328 56.2853 9.61328C31.0678 9.61328 10.625 30.5091 10.625 56.2854C10.625 82.0616 31.0678 102.957 56.2853 102.957Z" fill="#BC2649"/>
<path d="M56.2859 88.814C74.2507 88.814 88.814 74.2507 88.814 56.2859C88.814 38.3211 74.2507 23.7578 56.2859 23.7578C38.3211 23.7578 23.7578 38.3211 23.7578 56.2859C23.7578 74.2507 38.3211 88.814 56.2859 88.814Z" fill="#003366"/>
<path d="M56.2849 84.2787C40.8495 84.2787 28.2969 71.721 28.2969 56.2907C28.2969 40.8605 40.8546 28.3027 56.2849 28.3027C71.7151 28.3027 84.2729 40.8605 84.2729 56.2907C84.2729 71.721 71.7151 84.2787 56.2849 84.2787ZM56.2849 29.8229C41.6935 29.8229 29.8221 41.6943 29.8221 56.2856C29.8221 70.877 41.6935 82.7484 56.2849 82.7484C70.8762 82.7484 82.7476 70.877 82.7476 56.2856C82.7476 41.6943 70.8762 29.8229 56.2849 29.8229Z" fill="white"/>
<path d="M56.2861 84.2738C55.8641 84.2738 55.5234 83.9332 55.5234 83.5112V29.0605C55.5234 28.6385 55.8641 28.2979 56.2861 28.2979C56.708 28.2979 57.0487 28.6385 57.0487 29.0605V83.5112C57.0487 83.9332 56.708 84.2738 56.2861 84.2738Z" fill="white"/>
<path d="M83.5153 57.0487H29.0595C28.6375 57.0487 28.2969 56.708 28.2969 56.2861C28.2969 55.8641 28.6375 55.5234 29.0595 55.5234H83.5153C83.9373 55.5234 84.2779 55.8641 84.2779 56.2861C84.2779 56.708 83.9373 57.0487 83.5153 57.0487Z" fill="white"/>
<path d="M44.9931 49.4475C44.5711 49.4475 44.2305 49.1069 44.2305 48.6849V39.5487C44.2305 39.1268 44.5711 38.7861 44.9931 38.7861C45.4151 38.7861 45.7557 39.1268 45.7557 39.5487V48.6849C45.7557 49.1069 45.4151 49.4475 44.9931 49.4475Z" fill="white"/>
<path d="M49.5589 44.8768H40.4228C40.0008 44.8768 39.6602 44.5362 39.6602 44.1142C39.6602 43.6922 40.0008 43.3516 40.4228 43.3516H49.5589C49.9809 43.3516 50.3215 43.6922 50.3215 44.1142C50.3215 44.5362 49.9809 44.8768 49.5589 44.8768Z" fill="white"/>
<path d="M73.0198 42.62H63.8837C63.4617 42.62 63.1211 42.2793 63.1211 41.8573C63.1211 41.4354 63.4617 41.0947 63.8837 41.0947H73.0198C73.4418 41.0947 73.7825 41.4354 73.7825 41.8573C73.7825 42.2793 73.4418 42.62 73.0198 42.62Z" fill="white"/>
<path d="M73.0198 47.1395H63.8837C63.4617 47.1395 63.1211 46.7989 63.1211 46.3769C63.1211 45.9549 63.4617 45.6143 63.8837 45.6143H73.0198C73.4418 45.6143 73.7825 45.9549 73.7825 46.3769C73.7825 46.7989 73.4418 47.1395 73.0198 47.1395Z" fill="white"/>
<path d="M49.5589 68.0047H40.4228C40.0008 68.0047 39.6602 67.6641 39.6602 67.2421C39.6602 66.8201 40.0008 66.4795 40.4228 66.4795H49.5589C49.9809 66.4795 50.3215 66.8201 50.3215 67.2421C50.3215 67.6641 49.9809 68.0047 49.5589 68.0047Z" fill="white"/>
<path d="M71.6828 71.2335C71.4896 71.2335 71.2913 71.1573 71.1439 71.0098L64.682 64.5479C64.382 64.248 64.382 63.765 64.682 63.4701C64.982 63.1701 65.465 63.1701 65.7598 63.4701L72.2217 69.932C72.5217 70.2319 72.5217 70.7149 72.2217 71.0098C72.0743 71.1573 71.876 71.2335 71.6828 71.2335Z" fill="white"/>
<path d="M65.2209 71.2335C65.0277 71.2335 64.8294 71.1573 64.682 71.0098C64.382 70.7099 64.382 70.2269 64.682 69.932L71.1439 63.4701C71.4439 63.1701 71.9269 63.1701 72.2217 63.4701C72.5217 63.7701 72.5217 64.253 72.2217 64.5479L65.7598 71.0098C65.6124 71.1573 65.4141 71.2335 65.2209 71.2335Z" fill="white"/>
<path d="M56.2865 89.3218C38.0702 89.3218 23.25 74.5017 23.25 56.2853C23.25 38.069 38.0752 23.2539 56.2865 23.2539C74.4978 23.2539 89.323 38.0741 89.323 56.2904C89.323 74.5068 74.5029 89.3269 56.2865 89.3269V89.3218ZM56.2865 24.2707C38.6294 24.2707 24.2668 38.6333 24.2668 56.2904C24.2668 73.9475 38.6294 88.3101 56.2865 88.3101C73.9436 88.3101 88.3062 73.9475 88.3062 56.2904C88.3062 38.6333 73.9436 24.2707 56.2865 24.2707Z" fill="white"/>
<path d="M56.2865 103.288C30.3728 103.288 9.28906 82.2043 9.28906 56.2855C9.28906 30.3668 30.3728 9.28809 56.2865 9.28809C82.2002 9.28809 103.284 30.3719 103.284 56.2855C103.284 82.1992 82.2002 103.283 56.2865 103.283V103.288ZM56.2865 10.8133C31.2117 10.8133 10.8143 31.2107 10.8143 56.2855C10.8143 81.3603 31.2117 101.758 56.2865 101.758C81.3613 101.758 101.759 81.3603 101.759 56.2855C101.759 31.2107 81.3613 10.8133 56.2865 10.8133Z" fill="white"/>
<path d="M19.1395 61.4454L19.4242 63.1944L20.7816 63.3215L21.0003 64.6789L14.3248 63.7231L14.1367 62.5487L20.1665 59.5186L20.3902 60.8913L19.1446 61.4403L19.1395 61.4454ZM18.3108 63.0876L18.1176 61.903L15.9467 62.8639L18.3108 63.0876Z" fill="white"/>
<path d="M18.4183 56.4484C18.1539 56.4535 17.9607 56.5297 17.8285 56.6619C17.6963 56.7992 17.5642 57.0483 17.4269 57.4042C17.1981 58.055 16.9236 58.5278 16.6033 58.8176C16.283 59.1074 15.8966 59.2599 15.4492 59.2701C14.9052 59.2853 14.4679 59.1023 14.1273 58.7261C13.7918 58.3498 13.6138 57.8669 13.5986 57.272C13.5884 56.8755 13.6646 56.5247 13.8223 56.2094C13.9799 55.8942 14.2086 55.6502 14.5086 55.4773C14.8086 55.3045 15.1492 55.213 15.5356 55.2028L15.5661 56.4992C15.2661 56.5043 15.0374 56.5755 14.8848 56.7077C14.7323 56.8399 14.656 57.028 14.6611 57.2669C14.6662 57.4957 14.7374 57.6686 14.8747 57.7906C15.0119 57.9126 15.195 57.9736 15.4187 57.9685C15.5966 57.9685 15.7542 57.8872 15.8915 57.7448C16.0288 57.5974 16.1711 57.3432 16.3186 56.9822C16.5321 56.3467 16.7965 55.8841 17.1168 55.5943C17.4421 55.2994 17.854 55.1469 18.3674 55.1367C18.9267 55.1214 19.369 55.2892 19.6944 55.64C20.0198 55.9908 20.1876 56.4687 20.2028 57.0839C20.213 57.5008 20.1367 57.8821 19.974 58.2278C19.8113 58.5736 19.5724 58.8481 19.2622 59.0464C18.947 59.2497 18.5759 59.3514 18.1437 59.3616L18.1132 58.0601C18.4844 58.0499 18.7538 57.9736 18.9165 57.8211C19.0792 57.6737 19.1606 57.4347 19.1504 57.1093C19.1402 56.6568 18.8911 56.4331 18.4132 56.4484H18.4183Z" fill="white"/>
<path d="M20.1079 54.4243L13.707 53.7379L13.9206 51.7602C13.9917 51.0942 14.1951 50.601 14.5307 50.2858C14.8662 49.9706 15.3187 49.8435 15.8932 49.9045C16.2186 49.9401 16.4931 50.0418 16.7117 50.2095C16.9304 50.3773 17.0829 50.5908 17.1642 50.8552C17.2761 50.5756 17.4642 50.3722 17.7286 50.2451C17.9929 50.118 18.3081 50.0723 18.6691 50.1079C19.2894 50.1739 19.7419 50.3976 20.0215 50.7688C20.3011 51.1399 20.4079 51.6534 20.3367 52.3042L20.113 54.4243H20.1079ZM16.5236 52.7312L16.5948 52.0601C16.6507 51.5517 16.4118 51.2721 15.8881 51.2162C15.5983 51.1857 15.3848 51.2213 15.2475 51.323C15.1102 51.4246 15.0238 51.6127 14.9984 51.872L14.9221 52.5584L16.5236 52.7312ZM17.4642 52.8329L19.1724 53.016L19.2589 52.1873C19.2843 51.9534 19.2284 51.7704 19.1013 51.6382C18.9691 51.5009 18.7708 51.4196 18.5115 51.3941C17.937 51.3331 17.6218 51.5111 17.5608 51.9229L17.4642 52.8329Z" fill="white"/>
<path d="M18.7524 45.7006L18.2846 47.6733L19.9471 48.0647L20.4962 45.7311L21.5435 45.9803L20.6894 49.5798L14.4258 48.0952L15.2748 44.5059L16.3272 44.755L15.7782 47.0784L17.2576 47.4292L17.7254 45.4566L18.7473 45.7006H18.7524Z" fill="white"/>
<path d="M21.0814 42.299C20.8373 42.2075 20.6238 42.2024 20.4509 42.2787C20.2781 42.36 20.0645 42.538 19.8052 42.8176C19.3528 43.3362 18.9206 43.6717 18.5139 43.8242C18.1072 43.9768 17.6953 43.9717 17.2734 43.8141C16.765 43.626 16.4243 43.2904 16.2515 42.8176C16.0786 42.3448 16.0938 41.8262 16.3023 41.272C16.4396 40.9009 16.6429 40.6009 16.9073 40.367C17.1717 40.1332 17.4767 39.9959 17.8174 39.9451C18.158 39.8942 18.5139 39.94 18.8749 40.0722L18.4224 41.2873C18.1427 41.1805 17.9038 41.1602 17.7106 41.2263C17.5174 41.2924 17.3801 41.4398 17.2937 41.6635C17.2124 41.877 17.2174 42.0651 17.2937 42.2329C17.375 42.4007 17.5225 42.5227 17.736 42.599C17.9038 42.66 18.0766 42.6498 18.2597 42.5685C18.4427 42.4871 18.6715 42.3041 18.9409 42.0194C19.3731 41.511 19.7951 41.1805 20.2018 41.028C20.6085 40.8755 21.0559 40.8907 21.5288 41.0686C22.0524 41.2669 22.4032 41.5821 22.571 42.0295C22.7439 42.4719 22.7184 42.9854 22.5049 43.5599C22.3575 43.9513 22.149 44.2767 21.8694 44.536C21.5898 44.7953 21.2695 44.9631 20.9034 45.0292C20.5374 45.1003 20.151 45.0597 19.7442 44.9071L20.2018 43.687C20.5475 43.8141 20.8272 43.8446 21.0356 43.7683C21.244 43.692 21.4067 43.4989 21.5186 43.1938C21.6762 42.7667 21.5338 42.4719 21.0814 42.3041V42.299Z" fill="white"/>
<path d="M20.6313 34.8707L19.884 36.2739L24.6122 38.7855L24.0021 39.9396L19.2739 37.428L18.5417 38.8109L17.5859 38.3025L19.6755 34.3623L20.6313 34.8707Z" fill="white"/>
<path d="M26.0916 31.7956C26.7932 32.2989 27.2203 32.8582 27.3677 33.4683C27.5152 34.0784 27.3779 34.6783 26.9559 35.268C26.5339 35.8527 26.0103 36.1781 25.3849 36.2391C24.7596 36.3001 24.0987 36.0815 23.4021 35.5883L22.5073 34.9477C21.7905 34.4342 21.3482 33.8648 21.1855 33.2395C21.0228 32.6192 21.1499 32.0091 21.5769 31.4194C21.9938 30.8398 22.5226 30.5195 23.1581 30.4737C23.7936 30.4229 24.4749 30.6517 25.1917 31.1601L26.0865 31.8007L26.0916 31.7956ZM24.4545 32.2277C23.9817 31.8871 23.5852 31.7041 23.2598 31.6736C22.9344 31.6431 22.67 31.7702 22.4667 32.0498C22.2633 32.3294 22.2277 32.6141 22.3497 32.909C22.4768 33.2039 22.7615 33.514 23.2089 33.8445L24.1393 34.5105C24.5969 34.841 24.9833 35.0138 25.2985 35.0342C25.6137 35.0545 25.873 34.9223 26.0764 34.6376C26.2747 34.3631 26.3153 34.0834 26.1984 33.7937C26.0815 33.5089 25.8018 33.2039 25.3595 32.8785L24.4495 32.2277H24.4545Z" fill="white"/>
<path d="M29.3638 29.6599C29.1757 29.4768 28.9825 29.3904 28.7944 29.3955C28.6063 29.3955 28.3368 29.4768 27.986 29.6344C27.3607 29.9293 26.8319 30.0666 26.3998 30.0412C25.9676 30.0157 25.5914 29.8531 25.266 29.5429C24.8745 29.1667 24.6915 28.7295 24.722 28.2211C24.7525 27.7177 24.9711 27.25 25.383 26.8229C25.6575 26.5382 25.9625 26.3399 26.293 26.2332C26.6286 26.1264 26.9641 26.1162 27.2946 26.2078C27.6301 26.2993 27.9352 26.4772 28.2148 26.7416L27.32 27.6771C27.1014 27.4686 26.8929 27.3568 26.6896 27.3415C26.4862 27.3263 26.3032 27.4025 26.1354 27.5754C25.9778 27.7381 25.9015 27.9109 25.9117 28.099C25.9219 28.2821 26.0083 28.4549 26.171 28.6125C26.2981 28.7345 26.4659 28.7956 26.6641 28.7905C26.8675 28.7905 27.1471 28.7091 27.503 28.5566C28.1029 28.2617 28.6164 28.1245 29.0537 28.1499C29.4909 28.1753 29.8926 28.3634 30.2586 28.7142C30.6603 29.1006 30.8534 29.5328 30.8331 30.0107C30.8128 30.4886 30.5891 30.9461 30.1671 31.3885C29.8773 31.6884 29.557 31.9019 29.196 32.0291C28.8351 32.1562 28.4741 32.1816 28.1131 32.1002C27.7521 32.0189 27.4115 31.8308 27.1014 31.5308L28.0064 30.5903C28.2758 30.8495 28.5198 30.9817 28.7385 30.9919C28.9622 31.0021 29.1859 30.8902 29.4096 30.6563C29.7248 30.331 29.7095 30.0005 29.3638 29.6649V29.6599Z" fill="white"/>
<path d="M41.4325 20.8796C41.7274 21.5507 41.7884 22.1405 41.6105 22.6489C41.4376 23.1573 41.036 23.559 40.4157 23.8691C39.7599 24.1894 39.1549 24.2199 38.5956 23.9606C38.0364 23.7013 37.5635 23.1726 37.1721 22.3794L36.6942 21.4084C36.3027 20.6153 36.1807 19.9137 36.3332 19.3086C36.4806 18.7036 36.8772 18.241 37.5178 17.9258C38.1482 17.6156 38.7126 17.5597 39.2108 17.7478C39.709 17.941 40.1463 18.3528 40.5123 18.9883L39.343 19.5629C39.1294 19.1612 38.9312 18.9121 38.738 18.8104C38.5448 18.7138 38.2957 18.7392 37.9906 18.8917C37.6805 19.0443 37.5127 19.2629 37.4873 19.5425C37.4669 19.8221 37.5737 20.2187 37.8127 20.722L38.3516 21.8151C38.6312 22.3896 38.8905 22.7506 39.1244 22.9031C39.3582 23.0556 39.6328 23.0505 39.9429 22.9031C40.248 22.7506 40.4259 22.5726 40.4666 22.3693C40.5072 22.1608 40.4411 21.8609 40.2683 21.4592L41.4325 20.8847V20.8796Z" fill="white"/>
<path d="M43.8496 21.1646L46.0103 20.4274L46.3611 21.4493L42.9751 22.6084L40.8906 16.5177L42.121 16.0957L43.8597 21.1646H43.8496Z" fill="white"/>
<path d="M49.7092 19.3642L47.9704 19.715L47.8942 21.0725L46.5469 21.347L47.2434 14.6411L48.4077 14.4072L51.6666 20.315L50.304 20.5895L49.7041 19.3642H49.7092ZM48.0365 18.5965L49.216 18.3576L48.1738 16.2273L48.0365 18.5965Z" fill="white"/>
<path d="M53.4847 20.2185L52.1882 20.3405L51.5781 13.9345L52.8695 13.8125L53.4847 20.2185Z" fill="white"/>
<path d="M56.2655 13.6602L57.3535 18.3478L58.6957 13.7263L60.3938 13.7721L60.2158 20.2085L58.9143 20.173L58.9601 18.4342L59.1533 15.7549L57.745 20.1424L56.8603 20.117L55.6961 15.6583L55.7418 18.3427L55.691 20.0814L54.3945 20.0459L54.5725 13.6094L56.2706 13.6551L56.2655 13.6602Z" fill="white"/>
<path d="M63.992 19.2072C64.0378 18.9479 64.0124 18.7394 63.9005 18.5869C63.7938 18.4293 63.5802 18.2514 63.2548 18.0429C62.6651 17.687 62.2584 17.321 62.0397 16.9447C61.8211 16.5685 61.755 16.1618 61.8364 15.7195C61.933 15.1856 62.2024 14.7942 62.6397 14.54C63.0769 14.2858 63.5853 14.2146 64.17 14.3213C64.5564 14.3925 64.8919 14.54 65.1614 14.7586C65.4359 14.9772 65.6291 15.2517 65.7359 15.5822C65.8427 15.9127 65.863 16.2635 65.7918 16.6448L64.5157 16.4109C64.5716 16.116 64.5462 15.8771 64.4496 15.6991C64.353 15.5212 64.1852 15.4093 63.9463 15.3636C63.7226 15.3229 63.5396 15.3585 63.387 15.4653C63.2396 15.572 63.143 15.7398 63.1023 15.9635C63.0718 16.1364 63.1125 16.3092 63.2243 16.4719C63.3362 16.6397 63.5548 16.8278 63.8802 17.0464C64.4547 17.382 64.8563 17.7429 65.075 18.1192C65.2936 18.4954 65.3597 18.9326 65.2631 19.436C65.1614 19.985 64.9072 20.3867 64.5004 20.6307C64.0937 20.8748 63.5853 20.9408 62.9854 20.829C62.5787 20.7527 62.2177 20.6002 61.9126 20.3714C61.6076 20.1426 61.389 19.8529 61.2568 19.502C61.1246 19.1512 61.0992 18.7649 61.1754 18.3429L62.4566 18.5818C62.3905 18.9479 62.4109 19.2275 62.5227 19.4156C62.6346 19.6088 62.8532 19.7308 63.1735 19.7918C63.6209 19.8732 63.8853 19.68 63.9717 19.2072H63.992Z" fill="white"/>
<path d="M77.9225 24.5757C77.5158 25.1909 77.0531 25.557 76.5345 25.6891C76.016 25.8162 75.4567 25.7044 74.8619 25.3485C74.2365 24.9723 73.8806 24.4842 73.7942 23.8741C73.7078 23.264 73.8908 22.5777 74.3484 21.8201L74.9025 20.8897C75.355 20.1322 75.8787 19.6492 76.4684 19.4459C77.0582 19.2425 77.6581 19.3238 78.2733 19.6899C78.8732 20.0509 79.2291 20.4932 79.341 21.0168C79.4528 21.5405 79.341 22.1303 79.0054 22.7861L77.8869 22.115C78.1106 21.7185 78.2123 21.4134 78.1869 21.1999C78.1665 20.9863 78.0089 20.7931 77.7141 20.6152C77.4141 20.4373 77.1396 20.4118 76.8904 20.5491C76.6413 20.6813 76.3718 20.9863 76.077 21.4592L75.4516 22.5014C75.1212 23.0505 74.9585 23.4623 74.9585 23.7419C74.9585 24.0216 75.1059 24.2503 75.4059 24.4283C75.7008 24.6011 75.9448 24.652 76.1431 24.5757C76.3413 24.4995 76.56 24.2808 76.7989 23.9148L77.9123 24.5808L77.9225 24.5757Z" fill="white"/>
<path d="M80.5163 27.6671L79.1385 26.5537L78.0403 27.3621L76.9727 26.4978L82.5855 22.7559L83.5108 23.5032L81.0399 29.7821L79.9621 28.9076L80.5214 27.6671H80.5163ZM80.0384 25.8877L80.9738 26.6452L81.95 24.4845L80.0384 25.8928V25.8877Z" fill="white"/>
<path d="M82.9746 30.3002L84.5507 31.9474L83.7728 32.6948L81.2969 30.107L85.9488 25.6533L86.8487 26.5939L82.9797 30.3002H82.9746Z" fill="white"/>
<path d="M88.468 35.3444C87.8579 35.7562 87.2885 35.9189 86.7598 35.8376C86.231 35.7562 85.7582 35.4359 85.3464 34.8817C84.9142 34.2971 84.7719 33.7073 84.9295 33.1074C85.082 32.5126 85.5142 31.9482 86.231 31.4195L87.1004 30.7738C87.8122 30.245 88.4782 30.001 89.1035 30.0366C89.7289 30.0722 90.2525 30.3772 90.6745 30.9517C91.0914 31.5161 91.249 32.0601 91.1524 32.5837C91.0558 33.1074 90.7254 33.6107 90.1661 34.0886L89.3882 33.0413C89.7441 32.7617 89.9577 32.5176 90.0187 32.3143C90.0797 32.1109 90.0085 31.8669 89.8051 31.5923C89.5967 31.3127 89.3526 31.1856 89.073 31.2161C88.7934 31.2466 88.4223 31.4195 87.9698 31.7449L86.9936 32.4668C86.4801 32.8481 86.17 33.1684 86.0632 33.4226C85.9565 33.6768 86.0073 33.9463 86.2158 34.2259C86.4191 34.5004 86.6276 34.6428 86.836 34.6479C87.0445 34.6479 87.3343 34.5309 87.6952 34.2869L88.468 35.3292V35.3444Z" fill="white"/>
<path d="M94.706 37.7136L90.7963 39.8489C90.2066 40.1641 89.6676 40.2505 89.1846 40.1031C88.6966 39.9556 88.2949 39.5845 87.9695 38.9897C87.6391 38.3847 87.5425 37.8356 87.6848 37.3424C87.8272 36.8493 88.1932 36.4425 88.7932 36.1171L92.6774 33.9971L93.3028 35.1461L89.4134 37.2712C89.0931 37.4441 88.8898 37.622 88.8135 37.8C88.7322 37.9779 88.7677 38.2016 88.9152 38.4762C89.0626 38.7456 89.2355 38.8981 89.4236 38.9236C89.6168 38.949 89.8659 38.8778 90.176 38.7151L94.0806 36.5798L94.706 37.7186V37.7136Z" fill="white"/>
<path d="M90.8467 42.3549L91.6805 44.4801L90.6738 44.8715L89.3672 41.5364L95.3614 39.1875L95.8342 40.3975L90.8467 42.3498V42.3549Z" fill="white"/>
<path d="M92.8962 48.1503L92.4743 46.4268L91.1117 46.4065L90.7812 45.0693L97.5126 45.4812L97.7973 46.6352L92.0319 50.1433L91.7015 48.796L92.8962 48.1452V48.1503ZM93.5928 46.442L93.8775 47.6114L95.962 46.4776L93.5928 46.442Z" fill="white"/>
<path d="M97.7809 53.5497L97.5928 51.9685L92.2748 52.6041L92.1172 51.3076L97.4352 50.6721L97.247 49.1164L98.3249 48.9893L98.8536 53.4175L97.7758 53.5446L97.7809 53.5497Z" fill="white"/>
<path d="M95.0621 59.1888C94.1978 59.1735 93.5318 58.96 93.059 58.5482C92.5861 58.1313 92.3573 57.5618 92.3675 56.8399C92.3777 56.118 92.6217 55.5536 93.0996 55.1469C93.5775 54.7402 94.2435 54.5419 95.0977 54.547L96.1958 54.5622C97.0805 54.5724 97.7668 54.791 98.26 55.2079C98.7531 55.6248 98.9921 56.1993 98.9819 56.9263C98.9718 57.6432 98.7176 58.2024 98.2244 58.6092C97.7312 59.0159 97.0449 59.2142 96.1602 59.2091L95.057 59.1938L95.0621 59.1888ZM96.1602 57.9025C96.7398 57.9127 97.172 57.8364 97.4618 57.6737C97.7465 57.511 97.8939 57.2568 97.899 56.9111C97.9041 56.5654 97.7719 56.3112 97.5025 56.1383C97.233 55.9705 96.8212 55.879 96.2619 55.8638L95.118 55.8485C94.5537 55.8383 94.1368 55.9197 93.8673 56.0824C93.5979 56.2451 93.4606 56.5044 93.4555 56.8552C93.4555 57.1958 93.5775 57.45 93.8368 57.6178C94.0961 57.7855 94.4977 57.8771 95.0468 57.8872L96.1653 57.9025H96.1602Z" fill="white"/>
<path d="M94.3653 62.1529L94.4619 61.5174L92.1384 61.1564L92.3367 59.8701L98.6969 60.8513L98.3817 62.9002C98.28 63.5459 98.0411 64.0137 97.6496 64.3136C97.2632 64.6136 96.7599 64.7153 96.1447 64.6187C95.3007 64.4865 94.7567 64.0899 94.5127 63.4239L91.7368 64.1357L91.6758 64.1255L91.8893 62.7426L94.3602 62.1427L94.3653 62.1529ZM95.5346 61.6801L95.4228 62.4122C95.3821 62.6664 95.438 62.8748 95.5905 63.0273C95.7431 63.1799 95.9617 63.2816 96.2464 63.3273C96.8819 63.4239 97.2429 63.2256 97.3191 62.7274L97.4361 61.9749L95.5397 61.6801H95.5346Z" fill="white"/>
<path d="M29.3215 89.073L31.5737 87.4868L31.0247 84.7871L33.2261 86.4394L35.6207 85.0871L34.731 87.6952L36.7595 89.556L34.009 89.5153L32.8651 92.0218L32.0517 89.3933L29.3164 89.0781L29.3215 89.073Z" fill="white"/>
<path d="M40.5375 96.389L42.1085 94.1316L40.6697 91.7828L43.3033 92.581L45.0929 90.4863L45.1488 93.2368L47.6908 94.2892L45.0878 95.1942L44.8692 97.9396L43.2067 95.7433L40.5273 96.3839L40.5375 96.389Z" fill="white"/>
<path d="M53.5779 99.4296L54.2846 96.7707L52.1289 95.0573L54.8794 94.9048L55.8454 92.3271L56.8368 94.8946L59.5873 95.0166L57.452 96.7554L58.1892 99.4093L55.8759 97.9146L53.5779 99.4347V99.4296Z" fill="white"/>
<path d="M66.8729 97.8224L66.6238 95.0821L64.0156 94.2076L66.5475 93.1247L66.5729 90.3691L68.3829 92.4435L71.0114 91.6147L69.598 93.9789L71.1944 96.2209L68.51 95.6109L66.8729 97.8224Z" fill="white"/>
<path d="M78.8222 91.7624L77.6528 89.2712L74.9023 89.3424L76.9106 87.4613L75.9903 84.8633L78.4002 86.1902L80.5864 84.5176L80.0678 87.2223L82.3353 88.7831L79.6051 89.1289L78.8222 91.7675V91.7624Z" fill="white"/>
</g>
<defs>
<clipPath id="clip0_1844_2907">
<rect width="94" height="94" fill="white" transform="translate(9.28906 9.28809)"/>
</clipPath>
</defs>
</svg>
