<svg width="103" height="16" viewBox="0 0 103 16" fill="none" xmlns="http://www.w3.org/2000/svg">
<path d="M6.48706 2.35294L2.719 15.7861H0L4.94559 0.213902H6.63693L6.48706 2.35294ZM9.4951 15.7861L5.71633 2.35294L5.53435 0.213902H7.2578L12.2249 15.7861H9.4951ZM9.55932 9.99997V12.1818H2.30152V9.99997H9.55932ZM20.703 11.7647C20.703 11.4438 20.6673 11.1587 20.5959 10.9091C20.5317 10.6523 20.4067 10.4206 20.2212 10.2139C20.0356 10.0071 19.7716 9.80393 19.4291 9.60424C19.0937 9.40467 18.6584 9.20145 18.1231 8.99459C17.5093 8.75936 16.9348 8.5026 16.3997 8.22455C15.8715 7.93944 15.4041 7.61855 14.9973 7.26203C14.5977 6.89839 14.2837 6.47415 14.0553 5.9893C13.827 5.50445 13.7127 4.94117 13.7127 4.29947C13.7127 3.66488 13.8234 3.08734 14.0446 2.56685C14.273 2.03922 14.5941 1.58645 15.008 1.20856C15.4291 0.823531 15.9287 0.527636 16.5067 0.320865C17.0848 0.106951 17.7235 0 18.4228 0C19.4291 0 20.2891 0.213902 21.0027 0.641718C21.7235 1.06952 22.273 1.6435 22.6512 2.36364C23.0366 3.08377 23.2292 3.88235 23.2292 4.75936H20.6388C20.6388 4.25312 20.5602 3.80392 20.4032 3.41176C20.2462 3.01961 20.0036 2.71302 19.6752 2.49198C19.347 2.27094 18.9224 2.16042 18.4014 2.16042C17.9233 2.16042 17.5272 2.25312 17.2133 2.4385C16.9063 2.62388 16.678 2.877 16.5281 3.19786C16.3854 3.51872 16.314 3.88591 16.314 4.29947C16.314 4.58466 16.3747 4.84492 16.496 5.08021C16.6173 5.30838 16.7922 5.51871 17.0206 5.71122C17.2489 5.90374 17.5272 6.08556 17.8555 6.25668C18.1837 6.4278 18.562 6.5918 18.9901 6.74865C19.7181 7.01247 20.3533 7.30484 20.8956 7.6256C21.438 7.94649 21.884 8.30657 22.2337 8.70582C22.5905 9.09802 22.8546 9.54364 23.0258 10.0428C23.2043 10.5418 23.2934 11.1087 23.2934 11.7433C23.2934 12.385 23.1828 12.9696 22.9617 13.4973C22.7475 14.0178 22.4335 14.4635 22.0197 14.8342C21.6057 15.205 21.1062 15.4938 20.521 15.7005C19.9358 15.9002 19.2793 16 18.5513 16C17.8804 16 17.2346 15.9002 16.6138 15.7005C16 15.5008 15.4505 15.1978 14.9653 14.7914C14.4799 14.3779 14.0945 13.861 13.8091 13.2406C13.5307 12.6203 13.3917 11.8931 13.3917 11.0588H15.9929C15.9929 11.5579 16.0535 11.9858 16.1748 12.3422C16.2961 12.6916 16.471 12.9803 16.6994 13.2085C16.9348 13.4296 17.2096 13.5935 17.5236 13.7005C17.8448 13.8004 18.2016 13.8503 18.5942 13.8503C19.0794 13.8503 19.4755 13.7647 19.7823 13.5935C20.0963 13.4154 20.3283 13.1693 20.4781 12.8556C20.628 12.5419 20.703 12.1783 20.703 11.7647ZM30.6369 8.77007H27.4576L27.4469 6.78074H30.2622C30.6977 6.78074 31.0686 6.69518 31.3756 6.52406C31.6824 6.35294 31.9144 6.10338 32.0714 5.7754C32.2355 5.44742 32.3175 5.05169 32.3175 4.58823C32.3175 4.07487 32.2462 3.65775 32.1034 3.3369C31.9608 3.00891 31.736 2.77005 31.429 2.62032C31.1293 2.47059 30.7439 2.39572 30.273 2.39572H28.2284V15.7861H25.6272V0.213902H30.273C31.0009 0.213902 31.6503 0.299473 32.2212 0.470589C32.7992 0.634587 33.2881 0.887709 33.6877 1.22995C34.0875 1.5722 34.3908 2.0107 34.5977 2.54545C34.8118 3.07308 34.9189 3.70053 34.9189 4.42781C34.9189 5.06238 34.7832 5.64705 34.5121 6.18181C34.2408 6.70945 33.8377 7.14438 33.3024 7.48664C32.7743 7.82176 32.1178 8.02133 31.3327 8.08558L30.6369 8.77007ZM30.5405 15.7861H26.6013L27.8001 13.6149H30.5405C31.0045 13.6149 31.3863 13.5151 31.686 13.3155C31.9858 13.1159 32.2105 12.8377 32.3604 12.4813C32.5102 12.1247 32.5853 11.7076 32.5853 11.23C32.5853 10.7308 32.5209 10.2959 32.3926 9.92513C32.2641 9.55435 32.0571 9.26911 31.7717 9.06955C31.4862 8.86986 31.108 8.77007 30.6369 8.77007H28.0142L28.0357 6.78074H31.3863L31.9858 7.54006C32.7351 7.55442 33.3453 7.73975 33.8162 8.09629C34.2872 8.44565 34.6334 8.89833 34.8546 9.45456C35.0759 10.0107 35.1864 10.6061 35.1864 11.2406C35.1864 12.2317 35.001 13.0659 34.6298 13.7433C34.2587 14.4136 33.7271 14.9233 33.0348 15.2727C32.3497 15.615 31.5183 15.7861 30.5405 15.7861ZM39.9393 0.213902L42.4977 5.7647L44.992 0.213902H47.9144L44.0179 7.92508L48 15.7861H44.9813L42.4121 10.1176L39.8324 15.7861H36.8671L40.8814 7.89307L36.9527 0.213902H39.9393Z" fill="#324A74"/>
<path d="M77.9862 6.72726V9.37973C77.9862 10.4777 77.8563 11.4403 77.5965 12.2674C77.3439 13.0945 76.976 13.786 76.4925 14.3423C76.0163 14.8912 75.4389 15.3048 74.7607 15.5829C74.0896 15.8609 73.3392 16 72.5093 16C71.6868 16 70.9363 15.8609 70.258 15.5829C69.5869 15.3048 69.006 14.8912 68.5154 14.3423C68.0319 13.786 67.6566 13.0945 67.3896 12.2674C67.1299 11.4403 67 10.4777 67 9.37973V6.72726C67 5.61497 67.1299 4.64171 67.3896 3.80748C67.6495 2.96613 68.021 2.26382 68.5045 1.70053C68.9952 1.13725 69.5761 0.713014 70.2471 0.427816C70.9254 0.142605 71.6724 0 72.4877 0C73.3175 0 74.068 0.142605 74.7391 0.427816C75.4174 0.713014 75.9982 1.13725 76.4816 1.70053C76.9651 2.26382 77.3368 2.96613 77.5965 3.80748C77.8563 4.64171 77.9862 5.61497 77.9862 6.72726ZM75.3776 9.37973V6.70588C75.3776 5.91444 75.3127 5.23707 75.1828 4.67379C75.0601 4.10338 74.8761 3.63992 74.6308 3.28343C74.3855 2.91979 74.0824 2.6524 73.7216 2.48129C73.368 2.30303 72.9567 2.21391 72.4877 2.21391C72.0331 2.21391 71.6254 2.30303 71.2646 2.48129C70.911 2.6524 70.608 2.91979 70.3554 3.28343C70.1101 3.63992 69.9225 4.10338 69.7926 4.67379C69.6699 5.23707 69.6086 5.91444 69.6086 6.70588V9.37973C69.6086 10.1568 69.6735 10.8271 69.8034 11.3904C69.9332 11.9465 70.1209 12.4028 70.3662 12.7593C70.6188 13.1087 70.9254 13.369 71.2863 13.5401C71.647 13.7112 72.0547 13.7967 72.5093 13.7967C72.9711 13.7967 73.3824 13.7112 73.7433 13.5401C74.1041 13.369 74.4035 13.1087 74.6416 12.7593C74.887 12.4028 75.071 11.9465 75.1936 11.3904C75.3163 10.8271 75.3776 10.1568 75.3776 9.37973ZM80.6597 0.213902H85.4222C86.4612 0.213902 87.3416 0.392162 88.0631 0.748669C88.7848 1.10518 89.3332 1.6328 89.7084 2.33155C90.0908 3.02317 90.2821 3.88235 90.2821 4.90908C90.2821 5.68627 90.163 6.37077 89.9248 6.96255C89.6939 7.55442 89.3584 8.05346 88.9183 8.45989C88.478 8.85915 87.9477 9.16933 87.3272 9.39031L86.5586 9.80746H82.5322L82.5213 7.6256H85.3573C85.8696 7.6256 86.2953 7.51511 86.6345 7.29413C86.9736 7.07307 87.2261 6.76648 87.3921 6.37432C87.5652 5.98217 87.6518 5.53654 87.6518 5.03743C87.6518 4.50267 87.5761 4.03921 87.4246 3.64705C87.273 3.24777 87.0349 2.94118 86.7102 2.72727C86.3854 2.50623 85.9561 2.39572 85.4222 2.39572H83.2898V15.7861H80.6597V0.213902ZM87.9982 15.7861L85 8.79149L87.7385 8.78078L90.8124 15.647V15.7861H87.9982ZM103 7.79682V13.9358C102.805 14.1712 102.509 14.4527 102.112 14.7807C101.723 15.1016 101.196 15.3868 100.532 15.6364C99.8755 15.8788 99.0457 16 98.0427 16C97.1985 16 96.4263 15.8646 95.7265 15.5936C95.0337 15.3226 94.4384 14.9126 93.9405 14.3637C93.4426 13.8146 93.0601 13.1301 92.7931 12.3102C92.5261 11.4831 92.3926 10.5062 92.3926 9.37973V6.60961C92.3926 5.49732 92.5117 4.52763 92.7499 3.70053C92.9952 2.87344 93.3523 2.18538 93.8214 1.63636C94.2905 1.08022 94.8606 0.670241 95.5316 0.406423C96.2027 0.135475 96.9748 0 97.8479 0C98.9519 0 99.872 0.192521 100.608 0.57754C101.351 0.955439 101.918 1.51872 102.307 2.26737C102.704 3.00891 102.935 3.91444 103 4.98396H100.435C100.377 4.32798 100.251 3.79679 100.056 3.39038C99.8684 2.97682 99.5977 2.67023 99.2441 2.47059C98.8906 2.27094 98.436 2.17112 97.8804 2.17112C97.3752 2.17112 96.9423 2.25669 96.5815 2.42781C96.2207 2.59894 95.9248 2.86631 95.6939 3.22994C95.463 3.58645 95.2935 4.04278 95.1852 4.59893C95.077 5.15507 95.0229 5.81817 95.0229 6.58823V9.37973C95.0229 10.164 95.0915 10.8378 95.2286 11.4011C95.3656 11.9644 95.564 12.4277 95.8239 12.7915C96.0909 13.1479 96.4192 13.4117 96.8088 13.5829C97.1985 13.7468 97.6422 13.8289 98.1401 13.8289C98.6309 13.8289 99.0205 13.779 99.3092 13.6792C99.5977 13.5793 99.8215 13.4688 99.9802 13.3476C100.146 13.2192 100.28 13.1194 100.381 13.0481V9.83958H97.837V7.79682H103Z" fill="#324A74"/>
<path fill-rule="evenodd" clip-rule="evenodd" d="M57.219 3.40803C54.4219 3.40803 52.1544 5.67552 52.1544 8.47266C52.1544 11.2697 54.4219 13.5372 57.219 13.5372C60.0161 13.5372 62.2836 11.2697 62.2836 8.47266C62.2836 5.67552 60.0161 3.40803 57.219 3.40803ZM50.9502 8.47266C50.9502 5.01048 53.7569 2.20386 57.219 2.20386C60.6811 2.20386 63.4877 5.01048 63.4877 8.47266C63.4877 11.9348 60.6811 14.7414 57.219 14.7414C53.7569 14.7414 50.9502 11.9348 50.9502 8.47266Z" fill="#BC2649"/>
<path d="M60.0524 8.47265C60.0524 10.0375 58.7838 11.306 57.219 11.306C55.6542 11.306 54.3857 10.0375 54.3857 8.47265C54.3857 6.9078 55.6542 5.63928 57.219 5.63928C58.7838 5.63928 60.0524 6.9078 60.0524 8.47265Z" fill="#BC2649"/>
</svg>
