<svg width="25" height="17" viewBox="0 0 25 17" fill="none" xmlns="http://www.w3.org/2000/svg">
<path d="M2.88462 0C1.29231 0 0 1.26933 0 2.83333V14.1667C0 15.7307 1.29231 17 2.88462 17H22.1154C23.7077 17 25 15.7307 25 14.1667V2.83333C25 1.26933 23.7077 0 22.1154 0H2.88462ZM2.88462 1.88889H22.1154C22.6452 1.88889 23.0769 2.31294 23.0769 2.83333V3.30556L12.5 8.91367L1.92308 3.30556V2.83333C1.92308 2.31294 2.35481 1.88889 2.88462 1.88889ZM1.92308 3.57094L8.20288 8.38194L2.04327 14.5803L9.55577 9.32639L12.5 11.186L15.4452 9.32639L22.9567 14.5803L16.7971 8.38194L23.0769 3.57094V14.1667C23.0716 14.3121 23.0304 14.4541 22.9567 14.5803C22.7981 14.8873 22.4894 15.1111 22.1154 15.1111H2.88462C2.51058 15.1111 2.20192 14.8882 2.04327 14.5803C1.96979 14.4543 1.92855 14.3118 1.92308 14.1667V3.57094Z" fill="white"/>
</svg>
