<svg width="18" height="18" viewBox="0 0 18 18" fill="none" xmlns="http://www.w3.org/2000/svg">
<path fill-rule="evenodd" clip-rule="evenodd" d="M4.72944 1.55031C4.46617 1.28704 4.03934 1.28704 3.77607 1.55031L2.35764 2.96874C1.34685 3.97953 1.06909 5.5113 1.66061 6.81264C3.58011 11.0355 6.96457 14.42 11.1875 16.3395C12.4888 16.931 14.0206 16.6533 15.0314 15.6425L16.4498 14.224C16.7131 13.9608 16.7131 13.5339 16.4498 13.2707L14.5417 11.3626C14.3365 11.1574 14.0231 11.1065 13.7635 11.2363L12.7046 11.7658C11.5967 12.3197 10.2587 12.1026 9.38282 11.2267L6.7734 8.61728C5.89755 7.74143 5.68042 6.4034 6.23435 5.29553L6.76382 4.23658C6.89359 3.97705 6.84272 3.6636 6.63754 3.45842L4.72944 1.55031ZM3.0551 0.829337C3.71655 0.167891 4.78896 0.16789 5.45041 0.829337L7.35852 2.73745C7.87402 3.25295 8.00182 4.04049 7.67579 4.69256L7.14632 5.75151C6.78865 6.46684 6.92885 7.33079 7.49437 7.89631L10.1038 10.5057C10.6693 11.0713 11.5333 11.2115 12.2486 10.8538L13.3075 10.3243C13.9596 9.99828 14.7472 10.1261 15.2627 10.6416L17.1708 12.5497C17.8322 13.2111 17.8322 14.2836 17.1708 14.945L15.7523 16.3634C14.441 17.6748 12.4538 18.0351 10.7655 17.2677C6.31823 15.2462 2.7539 11.6819 0.732394 7.23456C-0.0350012 5.54629 0.325348 3.55909 1.63667 2.24776L3.0551 0.829337Z" fill="white"/>
</svg>
