<svg width="21" height="26" viewBox="0 0 21 26" fill="none" xmlns="http://www.w3.org/2000/svg">
<path d="M10.5 5.57148C9.55604 5.57148 8.63329 5.84379 7.84841 6.35395C7.06354 6.86412 6.45181 7.58925 6.09057 8.43763C5.72934 9.28601 5.63482 10.2195 5.81898 11.1202C6.00314 12.0208 6.45769 12.8481 7.12517 13.4974C7.79265 14.1467 8.64307 14.5889 9.56889 14.7681C10.4947 14.9472 11.4543 14.8553 12.3264 14.5039C13.1985 14.1525 13.9439 13.5574 14.4684 12.7938C14.9928 12.0303 15.2727 11.1327 15.2727 10.2144C15.2727 8.98301 14.7699 7.80207 13.8748 6.93136C12.9798 6.06065 11.7658 5.57148 10.5 5.57148ZM10.5 13.0001C9.93363 13.0001 9.37997 12.8367 8.90905 12.5306C8.43813 12.2245 8.07109 11.7895 7.85434 11.2804C7.6376 10.7714 7.58089 10.2113 7.69139 9.67092C7.80188 9.13054 8.07462 8.63416 8.4751 8.24457C8.87559 7.85498 9.38584 7.58966 9.94133 7.48217C10.4968 7.37468 11.0726 7.42985 11.5959 7.6407C12.1191 7.85154 12.5664 8.2086 12.881 8.66671C13.1957 9.12483 13.3636 9.66342 13.3636 10.2144C13.3636 10.9532 13.0619 11.6618 12.5249 12.1842C11.9879 12.7066 11.2595 13.0001 10.5 13.0001ZM10.5 0C7.7162 0.00307213 5.04731 1.08021 3.07887 2.99512C1.11042 4.91002 0.00315803 7.50631 0 10.2144C0 13.8591 1.73131 17.722 5.01136 21.3864C6.48521 23.0422 8.14401 24.5333 9.9571 25.832C10.1176 25.9413 10.3088 26 10.5048 26C10.7007 26 10.8919 25.9413 11.0524 25.832C12.8622 24.5327 14.5178 23.0417 15.9886 21.3864C19.2639 17.722 21 13.8591 21 10.2144C20.9968 7.50631 19.8896 4.91002 17.9211 2.99512C15.9527 1.08021 13.2838 0.00307213 10.5 0ZM10.5 23.911C8.52767 22.402 1.90909 16.8595 1.90909 10.2144C1.90909 7.99791 2.8142 5.87222 4.42531 4.30494C6.03642 2.73765 8.22155 1.85716 10.5 1.85716C12.7785 1.85716 14.9636 2.73765 16.5747 4.30494C18.1858 5.87222 19.0909 7.99791 19.0909 10.2144C19.0909 16.8572 12.4723 22.402 10.5 23.911Z" fill="white"/>
</svg>
