<svg width="20" height="20" viewBox="0 0 20 20" fill="none" xmlns="http://www.w3.org/2000/svg">
<path d="M11.6673 12.4997C11.6673 13.4247 10.9257 14.1663 10.0007 14.1663C9.55862 14.1663 9.1347 13.9907 8.82214 13.6782C8.50958 13.3656 8.33398 12.9417 8.33398 12.4997C8.33398 11.5747 9.07565 10.833 10.0007 10.833C10.4427 10.833 10.8666 11.0086 11.1792 11.3212C11.4917 11.6337 11.6673 12.0576 11.6673 12.4997ZM10.909 16.6663C11.009 17.2663 11.2173 17.8247 11.509 18.333H5.00065C4.55862 18.333 4.1347 18.1574 3.82214 17.8449C3.50958 17.5323 3.33398 17.1084 3.33398 16.6663V8.33301C3.33398 7.40801 4.07565 6.66634 5.00065 6.66634H5.83398V4.99967C5.83398 2.69967 7.70065 0.833008 10.0007 0.833008C12.3007 0.833008 14.1673 2.69967 14.1673 4.99967V6.66634H15.0007C15.4427 6.66634 15.8666 6.84194 16.1792 7.1545C16.4917 7.46706 16.6673 7.89098 16.6673 8.33301V10.908C16.3923 10.8663 16.1173 10.833 15.834 10.833C15.5507 10.833 15.2757 10.8663 15.0007 10.908V8.33301H5.00065V16.6663H10.909ZM7.50065 6.66634H12.5007V4.99967C12.5007 3.61634 11.384 2.49967 10.0007 2.49967C8.61732 2.49967 7.50065 3.61634 7.50065 4.99967V6.66634ZM17.784 13.1997L14.7923 16.1913L13.4673 14.8663L12.5007 15.833L14.7923 18.333L18.7507 14.3747L17.784 13.1997Z" fill="#048011"/>
</svg>
