<svg width="21" height="20" viewBox="0 0 21 20" fill="none" xmlns="http://www.w3.org/2000/svg">
<g clip-path="url(#clip0_1136_903)">
<path d="M17.3646 3.76101C18.3457 3.48049 19.2727 3.05157 20.11 2.49077C19.8134 3.64703 19.1837 4.70207 18.2914 5.53769C18.3371 5.76484 18.3605 5.99552 18.3613 6.22678C18.3613 15.7744 8.74385 19.9255 0.875 15.7744C3.04956 15.8565 5.19459 15.2745 6.99522 14.1139C1.45392 11.7753 1.54916 7.37815 2.09033 4.98145C2.31764 3.97475 2.62363 3.32099 2.62363 3.32099C3.05482 3.90402 3.55687 4.4332 4.11754 4.8985C4.70546 5.38642 5.35784 5.8041 6.06058 6.13997C7.43349 6.79616 8.95599 7.11974 10.4925 7.08191V6.25168C10.4817 5.48982 10.7176 4.74319 11.1683 4.11279C11.619 3.48239 12.2627 2.99863 13.0123 2.72693C13.762 2.45523 14.5814 2.40871 15.3598 2.59366C16.1382 2.7786 16.8381 3.18609 17.3646 3.76101Z" stroke="white" stroke-width="2" stroke-linecap="round" stroke-linejoin="round"/>
</g>
<defs>
<clipPath id="clip0_1136_903">
<rect width="20.9836" height="19.9254" fill="white"/>
</clipPath>
</defs>
</svg>
