<svg width="20" height="20" viewBox="0 0 20 20" fill="none" xmlns="http://www.w3.org/2000/svg">
<g clip-path="url(#clip0_2228_3803)">
<path d="M16.55 3.76101C17.4851 3.48049 18.3686 3.05157 19.1666 2.49077C18.884 3.64703 18.2838 4.70207 17.4333 5.53769C17.4769 5.76484 17.4992 5.99552 17.5 6.22678C17.5 15.7744 8.33331 19.9255 0.833313 15.7744C2.90594 15.8565 4.95042 15.2745 6.66665 14.1139C1.3851 11.7753 1.47587 7.37815 1.99168 4.98145C2.20833 3.97475 2.49998 3.32099 2.49998 3.32099C2.91096 3.90402 3.38947 4.4332 3.92385 4.8985C4.48422 5.38642 5.10602 5.8041 5.77582 6.13997C7.08437 6.79616 8.53551 7.11974 9.99998 7.08191V6.25168C9.98973 5.48982 10.2146 4.74319 10.6441 4.11279C11.0737 3.48239 11.6872 2.99863 12.4017 2.72693C13.1162 2.45523 13.8973 2.40871 14.6392 2.59366C15.3811 2.7786 16.0481 3.18609 16.55 3.76101Z" stroke="#324A74" stroke-width="2" stroke-linecap="round" stroke-linejoin="round"/>
</g>
<defs>
<clipPath id="clip0_2228_3803">
<rect width="20" height="19.9254" fill="white"/>
</clipPath>
</defs>
</svg>
