<svg width="18" height="18" viewBox="0 0 18 18" fill="none" xmlns="http://www.w3.org/2000/svg">
<g clip-path="url(#clip0_42_127)">
<path d="M7.3755 0C11.4498 0 14.7519 3.258 14.7519 7.2756C14.7532 9.01917 14.1208 10.7038 12.9726 12.0159L17.8218 16.9416C17.8796 17 17.9252 17.0693 17.9558 17.1455C17.9865 17.2217 18.0016 17.3033 18.0004 17.3854C17.9991 17.4676 17.9815 17.5486 17.9485 17.6239C17.9155 17.6991 17.8679 17.767 17.8083 17.8236C17.6873 17.9387 17.5259 18.0019 17.3589 17.9995C17.1918 17.9972 17.0324 17.9295 16.9146 17.811L12.0699 12.888C10.7441 13.9679 9.08547 14.5559 7.3755 14.5521C3.303 14.5521 0 11.2941 0 7.2756C0 3.258 3.303 0 7.3755 0ZM7.3755 1.2474C4.0005 1.2474 1.2645 3.9465 1.2645 7.2756C1.2645 10.6056 4.0005 13.3047 7.3755 13.3047C10.7505 13.3047 13.4874 10.6047 13.4874 7.2756C13.4874 3.9456 10.7514 1.2474 7.3764 1.2474H7.3755Z" fill="#444444"/>
</g>
<defs>
<clipPath id="clip0_42_127">
<rect width="18" height="18" fill="white"/>
</clipPath>
</defs>
</svg>
