<svg width="22" height="21" viewBox="0 0 22 21" fill="none" xmlns="http://www.w3.org/2000/svg">
<g clip-path="url(#clip0_1136_909)">
<path d="M19.9974 5.27611C20.2952 5.56765 20.5068 5.92866 20.6106 6.32268C20.888 7.78279 21.0226 9.26412 21.0128 10.7478C21.0183 12.2092 20.8837 13.6682 20.6106 15.1065C20.5068 15.5005 20.2952 15.8615 19.9974 16.153C19.6996 16.4446 19.326 16.6563 18.9145 16.7669C17.4106 17.1488 11.3953 17.1488 11.3953 17.1488C11.3953 17.1488 5.38003 17.1488 3.8762 16.7669C3.47299 16.6621 3.10504 16.4604 2.80791 16.1812C2.51079 15.9019 2.29453 15.5546 2.18003 15.1729C1.90267 13.7128 1.76803 12.2314 1.77784 10.7478C1.77018 9.27521 1.90481 7.80509 2.18003 6.35589C2.28389 5.96187 2.49541 5.60086 2.79323 5.30931C3.09105 5.01777 3.46462 4.80601 3.8762 4.69543C4.49663 4.52876 7.9476 4.31745 11.3953 4.31354C14.8822 4.30959 18.3657 4.5148 18.9145 4.66222C19.326 4.7728 19.6996 4.98456 19.9974 5.27611Z" stroke="white" stroke-width="2" stroke-linecap="round" stroke-linejoin="round"/>
</g>
<defs>
<clipPath id="clip0_1136_909">
<rect width="20.9836" height="19.9254" fill="white" transform="translate(0.902344 0.992188)"/>
</clipPath>
</defs>
</svg>
