<svg width="20" height="16" viewBox="0 0 20 16" fill="none" xmlns="http://www.w3.org/2000/svg">
<path d="M18.199 2.27586C18.4829 2.56741 18.6845 2.92842 18.7835 3.32244C19.0478 4.78255 19.1762 6.26388 19.1668 7.74753C19.1721 9.209 19.0438 10.6679 18.7835 12.1062C18.6845 12.5002 18.4829 12.8612 18.199 13.1528C17.9152 13.4443 17.5591 13.6561 17.1668 13.7667C15.7335 14.1486 10.0001 14.1486 10.0001 14.1486C10.0001 14.1486 4.26682 14.1486 2.83348 13.7667C2.44917 13.6619 2.09847 13.4601 1.81527 13.1809C1.53207 12.9017 1.32595 12.5544 1.21682 12.1726C0.952457 10.7125 0.824134 9.23117 0.833484 7.74753C0.826181 6.27497 0.954496 4.80485 1.21682 3.35564C1.31581 2.96163 1.51741 2.60062 1.80127 2.30907C2.08513 2.01752 2.44119 1.80576 2.83348 1.69519C3.42483 1.52851 6.71403 1.31721 10.0001 1.3133C13.3235 1.30934 16.6438 1.51456 17.1668 1.66198C17.5591 1.77255 17.9152 1.98432 18.199 2.27586Z" stroke="#324A74" stroke-width="2" stroke-linecap="round" stroke-linejoin="round"/>
</svg>
